<svg xmlns="http://www.w3.org/2000/svg" version="1.1" xmlns:xlink="http://www.w3.org/1999/xlink" preserveAspectRatio="none" x="0px" y="0px" width="621px" height="143px" viewBox="0 0 621 143">
<defs>
<g id="l1">
<path fill="#212021" stroke="none" d="M 189.6 94.95 L 165.55 5.1 5.1 48.1 29.15 137.95 189.6 94.95 M 137.6 22.55 L 159.35 16.75 162.85 29.8 141.1 35.6 156.65 93.6 142.4 97.45 126.85 39.45 105.45 45.15 101.95 32.1 123.35 26.4 137.6 22.55 M 82.05 37.45 L 96.3 33.65 115.35 104.7 101.1 108.5 82.05 37.45 M 89.7 92.05 L 89.7 92.1 Q 91.75 99.25 87.45 106.3 83.4 113.05 76.75 115.05 L 35.55 126.05 16.5 55 55.65 44.5 Q 62.3 42.7 69.5 46.3 77 50.05 78.75 56.9 80.45 63.6 78.95 68.6 77.2 74.2 71.75 77.35 L 73.2 76.95 Q 79.5 77.05 83.85 81.25 87.75 85.05 89.7 92.05 M 73.25 92.95 Q 72.15 89.55 69.4 87.85 66.6 86.2 63.55 87 L 43.15 92.45 47.35 108.25 67.75 102.8 Q 68.35 102.65 68.65 102.5 L 69.15 102.3 Q 71.2 101.3 72.4 99.15 73.95 96.2 73.25 92.95 M 37.45 71.25 L 39.45 78.6 59.25 73.3 Q 59.85 73.1 60.45 72.75 62.2 71.75 63.15 69.9 64.4 67.4 63.7 64.2 62.7 61.1 60.35 59.6 58 58.1 55.3 58.6 L 35.5 63.9 37.45 71.25 Z"/>
<path fill="#FFFFFF" stroke="none" d="M 89.7 92.1 L 89.7 92.05 Q 87.75 85.05 83.85 81.25 79.5 77.05 73.2 76.95 L 71.75 77.35 Q 77.2 74.2 78.95 68.6 80.45 63.6 78.75 56.9 77 50.05 69.5 46.3 62.3 42.7 55.65 44.5 L 16.5 55 35.55 126.05 76.75 115.05 Q 83.4 113.05 87.45 106.3 91.75 99.25 89.7 92.1 M 39.45 78.6 L 37.45 71.25 35.5 63.9 55.3 58.6 Q 58 58.1 60.35 59.6 62.7 61.1 63.7 64.2 64.4 67.4 63.15 69.9 62.2 71.75 60.45 72.75 59.85 73.1 59.25 73.3 L 39.45 78.6 M 69.4 87.85 Q 72.15 89.55 73.25 92.95 73.95 96.2 72.4 99.15 71.2 101.3 69.15 102.3 L 68.65 102.5 Q 68.35 102.65 67.75 102.8 L 47.35 108.25 43.15 92.45 63.55 87 Q 66.6 86.2 69.4 87.85 M 96.3 33.65 L 82.05 37.45 101.1 108.5 115.35 104.7 96.3 33.65 M 159.35 16.75 L 137.6 22.55 123.35 26.4 101.95 32.1 105.45 45.15 126.85 39.45 142.4 97.45 156.65 93.6 141.1 35.6 162.85 29.8 159.35 16.75 Z"/>
<path fill="#EF4137" stroke="none" d="M 263.85 74.35 Q 262.85 82.95 256.4 89.3 248.8 96.95 238.05 96.95 237.9 96.95 237.8 96.95 235 96.95 232.45 96.4 225.25 94.9 219.7 89.3 218.55 88.15 217.55 86.9 L 197 92.5 Q 200.2 98.35 205.25 103.4 208.1 106.3 211.25 108.55 214.35 110.8 217.7 112.5 223.1 115.15 229.15 116.25 230.8 116.55 232.45 116.75 235.25 117.05 238.15 117.05 242.8 117.05 247.15 116.25 260.75 113.75 271.05 103.4 281.7 92.8 284 78.75 284.65 74.75 284.65 70.55 284.65 70.3 284.65 70.05 284.65 69.35 284.65 68.65 L 263.85 74.35 M 251.3 48.55 L 268.2 34.95 Q 255.45 24.05 238.15 24.05 237.95 24.05 237.8 24.05 222.8 24.15 211.25 32.5 208.1 34.75 205.25 37.6 191.85 51.05 191.65 70.05 191.65 70.3 191.65 70.55 191.65 82.6 196.95 92.4 L 213.35 79.15 Q 212.1 75.3 212.1 70.95 212.1 70.5 212.15 70.05 212.4 59.9 219.7 52.55 227.2 45.1 237.8 45 237.9 45 238.05 45 245.4 45 251.3 48.55 M 373.65 43.55 L 373.65 23.85 352.15 23.85 352.15 43.55 352.15 59.55 312.15 59.55 312.15 43.55 312.15 23.85 290.65 23.85 290.65 116.25 312.15 116.25 312.15 79.15 352.15 79.15 352.15 116.25 373.65 116.25 373.65 43.55 M 441.65 23.85 L 441.65 43.55 441.65 70.05 441.65 82.05 Q 441.6 82.8 441.5 83.55 440.7 88.65 436.45 93 430.7 98.9 421.65 99.15 412.6 98.9 406.85 93 402 88.05 401.65 82.05 L 401.65 70.05 401.65 43.55 401.65 23.85 380.15 23.85 380.15 43.55 380.15 83.55 Q 380.15 83.95 380.15 84.4 380.55 98.65 391.3 108.1 402.9 118.25 421.65 118.35 440.4 118.25 452 108.1 462.75 98.65 463.15 84.4 L 463.15 23.85 441.65 23.85 M 543.85 43.55 L 543.85 23.85 469.45 23.85 469.45 43.55 469.95 43.55 495.65 43.55 495.65 116.25 517.15 116.25 517.15 43.55 543.85 43.55 M 615.9 43.55 L 615.9 23.85 550.15 23.85 550.15 116.25 615.9 116.25 615.9 97.05 571.65 97.05 571.65 79.15 614.75 79.15 614.75 60.45 571.65 60.45 571.65 43.55 615.9 43.55 Z"/>
</g>
</defs>
<g transform="matrix(1,0,0,1,0,0)">
<use xlink:href="#l1"/>
</g>
</svg>
