<svg id="Layer_1" data-name="Layer 1" xmlns="http://www.w3.org/2000/svg" xmlns:xlink="http://www.w3.org/1999/xlink" width="202.25" height="79.23" viewBox="0 0 202.25 79.23"><defs><clipPath id="clip-path" transform="translate(-277.76 -344.31)"><rect x="277.76" y="344.31" width="212.48" height="79.39" style="fill:none"/></clipPath></defs><title>Douyin logo - Brandlogos.net</title><g style="clip-path:url(#clip-path)"><path d="M305,375.5v-3.07a27,27,0,0,0-3.24-.21A24,24,0,0,0,288,415.9a23.85,23.85,0,0,1-6.45-16.34A24.12,24.12,0,0,1,305,375.5Z" transform="translate(-277.76 -344.31)" style="fill:#00faf0"/><path d="M305.59,410.44a11,11,0,0,0,10.93-10.54V347.63h9.56a16.93,16.93,0,0,1-.3-3.33H312.72v52.27a11,11,0,0,1-10.93,10.54,10.68,10.68,0,0,1-5.08-1.28A10.88,10.88,0,0,0,305.59,410.44Z" transform="translate(-277.76 -344.31)" style="fill:#00faf0"/><path d="M344,365.38v-2.9a18,18,0,0,1-9.9-2.94A18.55,18.55,0,0,0,344,365.38Z" transform="translate(-277.76 -344.31)" style="fill:#00faf0"/><path d="M334.11,359.54a18.09,18.09,0,0,1-4.48-11.9h-3.5A18.36,18.36,0,0,0,334.11,359.54Z" transform="translate(-277.76 -344.31)" style="fill:#ff0050"/><path d="M301.79,385.22a10.94,10.94,0,0,0-5.08,20.65,10.93,10.93,0,0,1,8.88-17.37,10.33,10.33,0,0,1,3.24.51V375.71a27,27,0,0,0-3.24-.21H305v10.24A10.14,10.14,0,0,0,301.79,385.22Z" transform="translate(-277.76 -344.31)" style="fill:#ff0050"/><path d="M344,365.38v10.15a31,31,0,0,1-18.14-5.85v26.5A24,24,0,0,1,288,415.86a24,24,0,0,0,41.62-16.34V373a31.09,31.09,0,0,0,18.14,5.85V365.81A22.53,22.53,0,0,1,344,365.38Z" transform="translate(-277.76 -344.31)" style="fill:#ff0050"/><path d="M325.82,396.19v-26.5A31.09,31.09,0,0,0,344,375.54V365.39a18.4,18.4,0,0,1-9.9-5.85,18,18,0,0,1-7.94-11.9h-9.56V399.9a11,11,0,0,1-10.93,10.54,10.84,10.84,0,0,1-8.88-4.57,10.94,10.94,0,0,1,5.08-20.65,10.33,10.33,0,0,1,3.24.51V375.5a24,24,0,0,0-23.44,24,23.77,23.77,0,0,0,6.45,16.34,24,24,0,0,0,37.74-19.63Z" transform="translate(-277.76 -344.31)" style="fill:#111"/><path d="M376.06,358.31h-6.21v9.11h-7.21v6.2h7.21v12.65l-7.21,1v6.54l7.21-1v10.83a1.59,1.59,0,0,1-1.58,1.57h-5.2v6.2h7.78a5.21,5.21,0,0,0,5.2-5.2V391.91l6.3-1v-6.54l-6.3,1V373.68h6.3v-6.2h-6.3Z" transform="translate(-277.76 -344.31)" style="fill:#111"/><path d="M411.21,358.31h-6.16v32.4l-20.43,1.77V399l20.43-1.72v14.55h6.16V396.73l6.3-.57v-6.54l-6.3.57Z" transform="translate(-277.76 -344.31)" style="fill:#111"/><path d="M401.85,365.52,387.2,362.9v6.58l14.66,2.58Z" transform="translate(-277.76 -344.31)" style="fill:#111"/><path d="M401.85,379.12,387.2,376.5v6.58l14.66,2.62Z" transform="translate(-277.76 -344.31)" style="fill:#111"/><path d="M467.88,376.4l1-5.06h-6.54l-1,5.06H444.2l-.76-5.06h-6.59l.81,5.06H425.24v6.06H480V376.4Z" transform="translate(-277.76 -344.31)" style="fill:#111"/><path d="M478.29,362.61H457.52l-1.05-4.29H448.4l1.05,4.29H427v6h51.32Z" transform="translate(-277.76 -344.31)" style="fill:#111"/><path d="M469.83,386.9H435.41a5.21,5.21,0,0,0-5.2,5.2v14.17a5.21,5.21,0,0,0,5.2,5.2h34.42a5.21,5.21,0,0,0,5.2-5.2V392.1A5.18,5.18,0,0,0,469.83,386.9Zm-32.23,5.63h30.08a1.59,1.59,0,0,1,1.58,1.57v2.53H436.08v-2.53A1.49,1.49,0,0,1,437.61,392.53Zm30.08,13.36H437.61a1.59,1.59,0,0,1-1.58-1.57v-2.58h33.18v2.58A1.55,1.55,0,0,1,467.69,405.89Z" transform="translate(-277.76 -344.31)" style="fill:#111"/></g></svg>