<?xml version="1.0" encoding="UTF-8"?>
<svg version="1.1" xmlns="http://www.w3.org/2000/svg" width="1200" height="1200">
<path d="M0 0 C2.27012813 0.01074039 4.53946545 0.00000868 6.80957031 -0.01269531 C19.87045518 -0.02597411 32.98581129 0.77930029 45.64550781 4.19824219 C46.63043213 4.46036499 46.63043213 4.46036499 47.63525391 4.7277832 C49.51595508 5.23030103 51.39335454 5.74512927 53.27050781 6.26074219 C54.24503906 6.50824219 55.21957031 6.75574219 56.22363281 7.01074219 C67.61764433 9.94253463 78.3152264 14.02958844 88.75878906 19.44433594 C91.11213417 20.66158341 93.48532114 21.84116762 95.87597656 22.98339844 C103.67983691 26.71937956 110.43326872 30.98235414 117.27050781 36.26074219 C118.23601562 36.96070313 119.20152344 37.66066406 120.19628906 38.38183594 C127.73086357 43.86419171 134.54988358 49.83192253 141.27050781 56.26074219 C142.14835937 57.09734375 143.02621094 57.93394531 143.93066406 58.79589844 C151.87150466 66.54036585 159.15555769 74.98968877 165.27050781 84.26074219 C165.27050781 84.92074219 165.27050781 85.58074219 165.27050781 86.26074219 C165.93050781 86.26074219 166.59050781 86.26074219 167.27050781 86.26074219 C167.53863281 86.74800781 167.80675781 87.23527344 168.08300781 87.73730469 C170.06792479 91.32843738 172.06359281 94.90751491 174.13769531 98.44824219 C191.01172432 127.33763037 199.01322673 157.36712042 200.53613281 190.6550293 C200.5710936 191.34640488 200.60605438 192.03778046 200.64207458 192.75010681 C200.73807578 194.65953796 200.82308151 196.5695126 200.9074707 198.47949219 C201.08717407 199.85621094 201.08717407 199.85621094 201.27050781 201.26074219 C203.6904525 202.47071453 205.6049328 202.5797383 208.30175781 202.83886719 C233.4079808 205.42142371 256.24672515 211.02883863 276.27050781 227.26074219 C277.85338594 228.46967176 279.43670401 229.67802558 281.02050781 230.88574219 C282.43947786 232.00783552 283.85631862 233.13262944 285.27050781 234.26074219 C285.86347656 234.71707031 286.45644531 235.17339844 287.06738281 235.64355469 C292.6338329 240.11203526 296.89976607 245.6533177 301.27050781 251.26074219 C301.85316406 251.99035156 302.43582031 252.71996094 303.03613281 253.47167969 C304.27050781 255.26074219 304.27050781 255.26074219 304.27050781 257.26074219 C304.93050781 257.26074219 305.59050781 257.26074219 306.27050781 257.26074219 C307.42597567 259.32141527 308.57361047 261.38582549 309.71191406 263.45605469 C310.78102744 265.37992287 311.87351293 267.29093316 312.98535156 269.19042969 C317.76820096 277.58396408 320.86687327 285.96682651 323.27050781 295.26074219 C323.46805664 296.00146973 323.66560547 296.74219727 323.86914062 297.50537109 C332.62116713 331.33173867 326.07221794 365.54591419 308.68457031 395.40527344 C305.40584223 400.80969686 301.41635163 405.49884929 297.27050781 410.26074219 C296.73167969 411.01871094 296.19285156 411.77667969 295.63769531 412.55761719 C295.18652344 413.11964844 294.73535156 413.68167969 294.27050781 414.26074219 C293.61050781 414.26074219 292.95050781 414.26074219 292.27050781 414.26074219 C291.94050781 415.25074219 291.61050781 416.24074219 291.27050781 417.26074219 C290.61050781 417.26074219 289.95050781 417.26074219 289.27050781 417.26074219 C289.27050781 417.92074219 289.27050781 418.58074219 289.27050781 419.26074219 C287.55718028 420.84607921 285.77361734 422.35615433 283.95800781 423.82324219 C282.971875 424.62890625 281.98574219 425.43457031 280.96972656 426.26464844 C278.27050781 428.26074219 278.27050781 428.26074219 275.27050781 429.26074219 C275.27050781 429.92074219 275.27050781 430.58074219 275.27050781 431.26074219 C273.11789048 432.45664071 270.96485983 433.65169239 268.80957031 434.84277344 C267.27486957 435.69984478 265.74663201 436.56884539 264.23144531 437.45996094 C234.81945241 454.55071357 203.83413453 454.71935926 170.75922966 454.65291619 C165.69839173 454.64605835 160.6375835 454.65664004 155.57675171 454.66485596 C145.69029305 454.67812558 135.80390311 454.67534561 125.91744187 454.66661803 C117.87279929 454.65981352 109.82817583 454.65893667 101.78353119 454.66218948 C100.63391776 454.66264918 99.48430434 454.66310888 98.29985414 454.66358251 C95.9636109 454.6645418 93.62736766 454.66551444 91.29112443 454.66650029 C69.43421834 454.67503475 47.57735013 454.66525144 25.72045025 454.64909919 C7.01771609 454.63570497 -11.68496217 454.63802051 -30.38769531 454.65185547 C-52.16586069 454.66795814 -73.94399293 454.67420345 -95.72216344 454.66501868 C-98.05052645 454.66406315 -100.37888948 454.66312004 -102.7072525 454.66218948 C-103.85250235 454.66172666 -104.9977522 454.66126383 -106.17770658 454.66078698 C-114.19882947 454.65821057 -122.21993112 454.66253891 -130.24105072 454.66962814 C-140.03630033 454.67809595 -149.83147794 454.67565347 -159.62671944 454.65978591 C-164.61228958 454.65197245 -169.59774028 454.64869113 -174.58330917 454.65873337 C-228.34324787 454.75794244 -228.34324787 454.75794244 -249.72949219 447.26074219 C-251.32515463 446.74816715 -252.92157074 446.23793499 -254.51855469 445.72949219 C-265.08303936 442.28852283 -274.30022231 438.13134025 -283.72949219 432.26074219 C-284.84710938 431.64328125 -285.96472656 431.02582031 -287.11621094 430.38964844 C-291.23660924 428.05046103 -294.96303938 425.25026664 -298.72949219 422.38574219 C-299.40238281 421.88171875 -300.07527344 421.37769531 -300.76855469 420.85839844 C-304.14585032 418.30912702 -307.47090278 415.70257594 -310.72949219 413.00292969 C-311.59574219 412.28532471 -311.59574219 412.28532471 -312.47949219 411.55322266 C-313.72949219 410.26074219 -313.72949219 410.26074219 -313.72949219 408.26074219 C-314.71949219 407.93074219 -315.70949219 407.60074219 -316.72949219 407.26074219 C-316.72949219 406.60074219 -316.72949219 405.94074219 -316.72949219 405.26074219 C-317.71949219 404.93074219 -318.70949219 404.60074219 -319.72949219 404.26074219 C-321.57211344 402.1511169 -323.28687831 400.04767171 -324.97949219 397.82324219 C-325.46458252 397.19450195 -325.94967285 396.56576172 -326.44946289 395.91796875 C-337.72949219 381.20732825 -337.72949219 381.20732825 -337.72949219 378.26074219 C-338.38949219 378.26074219 -339.04949219 378.26074219 -339.72949219 378.26074219 C-345.58886719 366.54199219 -345.58886719 366.54199219 -346.65722656 364.39501953 C-347.36635104 362.98355181 -348.0862705 361.57745087 -348.81738281 360.17724609 C-350.94613902 356.06487615 -352.52744412 352.13268987 -353.72949219 347.63574219 C-354.70953901 344.00879725 -355.68743176 340.39644078 -356.79980469 336.80761719 C-368.11482259 300.0966702 -362.04980786 260.19762763 -346.54199219 225.76074219 C-345.98995117 224.52710938 -345.98995117 224.52710938 -345.42675781 223.26855469 C-344.52980838 221.26497933 -343.63069075 219.26240897 -342.72949219 217.26074219 C-342.06949219 217.26074219 -341.40949219 217.26074219 -340.72949219 217.26074219 C-340.46265625 216.54144531 -340.19582031 215.82214844 -339.92089844 215.08105469 C-334.51041651 202.27329091 -324.4410511 191.81869988 -314.79199219 182.07324219 C-314.12876953 181.40067383 -313.46554687 180.72810547 -312.78222656 180.03515625 C-312.15767578 179.41479492 -311.533125 178.79443359 -310.88964844 178.15527344 C-310.04865601 177.31766479 -310.04865601 177.31766479 -309.19067383 176.46313477 C-307.72949219 175.26074219 -307.72949219 175.26074219 -305.72949219 175.26074219 C-305.72949219 174.60074219 -305.72949219 173.94074219 -305.72949219 173.26074219 C-304.43530273 172.02734375 -304.43530273 172.02734375 -302.61621094 170.65136719 C-301.95057129 170.14677979 -301.28493164 169.64219238 -300.59912109 169.12231445 C-299.87901855 168.59049561 -299.15891602 168.05867676 -298.41699219 167.51074219 C-297.68657715 166.96796631 -296.95616211 166.42519043 -296.20361328 165.8659668 C-290.62361804 161.78251965 -284.94145472 158.30830374 -278.72949219 155.26074219 C-277.94832031 154.84695313 -277.16714844 154.43316406 -276.36230469 154.00683594 C-264.93717144 148.03205314 -253.48010451 143.98380248 -240.97949219 140.94824219 C-239.41799438 140.56647827 -239.41799438 140.56647827 -237.82495117 140.17700195 C-225.86543993 137.39261158 -214.28666459 137.12058661 -202.04199219 137.19824219 C-200.64681152 137.20327191 -199.25162908 137.20783219 -197.85644531 137.21191406 C-194.48074782 137.22359468 -191.10514393 137.23997386 -187.72949219 137.26074219 C-185.11824588 132.29338064 -183.0134739 127.40803366 -181.22949219 122.07324219 C-175.06897821 104.76205188 -164.31914627 88.96075598 -152.78808594 74.79980469 C-151.34398764 73.01865878 -149.92121867 71.22010786 -148.51464844 69.40917969 C-147.80179688 68.49394531 -147.08894531 67.57871094 -146.35449219 66.63574219 C-145.70738281 65.79785156 -145.06027344 64.95996094 -144.39355469 64.09667969 C-143.56984375 63.18789063 -143.56984375 63.18789063 -142.72949219 62.26074219 C-142.06949219 62.26074219 -141.40949219 62.26074219 -140.72949219 62.26074219 C-140.46015869 61.66237549 -140.1908252 61.06400879 -139.91333008 60.44750977 C-138.72778161 58.25758244 -137.605524 56.95102968 -135.78808594 55.27246094 C-134.92002319 54.46578979 -134.92002319 54.46578979 -134.03442383 53.64282227 C-133.41817139 53.08361084 -132.80191895 52.52439941 -132.16699219 51.94824219 C-131.21264282 51.07558716 -131.21264282 51.07558716 -130.23901367 50.18530273 C-104.57342693 26.90418223 -74.19571053 12.50213907 -40.72949219 4.26074219 C-39.47249512 3.92905029 -38.21549805 3.5973584 -36.92041016 3.25561523 C-32.93293435 2.26198943 -28.93513807 1.62030746 -24.85449219 1.15136719 C-24.12544678 1.067276 -23.39640137 0.98318481 -22.64526367 0.89654541 C-15.09822827 0.09386216 -7.5839444 -0.04244136 0 0 Z M-61.72949219 64.26074219 C-62.3330957 64.55174805 -62.93669922 64.84275391 -63.55859375 65.14257812 C-72.13563883 69.31412089 -79.70396 74.1630868 -87.12011719 80.15917969 C-89.72949219 82.26074219 -89.72949219 82.26074219 -92.72949219 84.26074219 C-92.72949219 84.92074219 -92.72949219 85.58074219 -92.72949219 86.26074219 C-93.32761719 86.54949219 -93.92574219 86.83824219 -94.54199219 87.13574219 C-96.92277011 88.30816244 -96.92277011 88.30816244 -99.72949219 90.26074219 C-99.72949219 90.92074219 -99.72949219 91.58074219 -99.72949219 92.26074219 C-100.71949219 92.59074219 -101.70949219 92.92074219 -102.72949219 93.26074219 C-102.72949219 93.92074219 -102.72949219 94.58074219 -102.72949219 95.26074219 C-103.38949219 95.26074219 -104.04949219 95.26074219 -104.72949219 95.26074219 C-106.31141036 96.74500451 -106.31141036 96.74500451 -107.85449219 98.63574219 C-108.39332031 99.26222656 -108.93214844 99.88871094 -109.48730469 100.53417969 C-110.92416366 102.17682646 -110.92416366 102.17682646 -110.72949219 104.26074219 C-111.38949219 104.26074219 -112.04949219 104.26074219 -112.72949219 104.26074219 C-116.03239411 107.71276052 -116.03239411 107.71276052 -116.72949219 112.26074219 C-117.38949219 112.26074219 -118.04949219 112.26074219 -118.72949219 112.26074219 C-120.11659179 114.25732495 -121.37351539 116.23314025 -122.60449219 118.32324219 C-122.96236816 118.91943359 -123.32024414 119.515625 -123.68896484 120.12988281 C-124.70981595 121.83579709 -125.71994351 123.54811497 -126.72949219 125.26074219 C-127.17292969 126.00195312 -127.61636719 126.74316406 -128.07324219 127.50683594 C-129.9379811 130.67830477 -131.42172557 133.82785482 -132.72949219 137.26074219 C-133.06207031 137.95296875 -133.39464844 138.64519531 -133.73730469 139.35839844 C-135.87905294 143.84408796 -137.25186902 147.16756803 -136.72949219 152.26074219 C-136.12363281 152.55207031 -135.51777344 152.84339844 -134.89355469 153.14355469 C-124.43908369 158.25820358 -115.04285882 164.28457022 -105.72949219 171.26074219 C-108.62457508 176.67938402 -111.97712475 181.24806968 -115.91699219 185.94824219 C-120.04142937 190.94985909 -124.13097284 195.96471085 -128.04199219 201.13574219 C-128.76 202.08191406 -129.47800781 203.02808594 -130.21777344 204.00292969 C-131.91494482 206.08486151 -131.91494482 206.08486151 -131.72949219 208.26074219 C-132.38949219 208.26074219 -133.04949219 208.26074219 -133.72949219 208.26074219 C-133.72949219 208.92074219 -133.72949219 209.58074219 -133.72949219 210.26074219 C-138.03132781 208.67093337 -141.38653406 206.84809601 -145.04199219 204.07324219 C-166.18910163 188.92690584 -194.26765865 184.39661972 -219.66699219 188.07324219 C-221.69293015 188.44206022 -223.71431529 188.83705191 -225.72949219 189.26074219 C-226.72078125 189.46699219 -227.71207031 189.67324219 -228.73339844 189.88574219 C-245.0813933 193.63704218 -259.47668176 201.09234544 -272.72949219 211.26074219 C-272.72949219 211.92074219 -272.72949219 212.58074219 -272.72949219 213.26074219 C-273.30183594 213.50824219 -273.87417969 213.75574219 -274.46386719 214.01074219 C-277.0795983 215.45390418 -278.87722675 217.14290441 -280.97949219 219.26074219 C-281.68589844 219.96199219 -282.39230469 220.66324219 -283.12011719 221.38574219 C-284.94659618 223.10184986 -284.94659618 223.10184986 -284.72949219 225.26074219 C-285.71949219 225.59074219 -286.70949219 225.92074219 -287.72949219 226.26074219 C-289.43100795 228.45902916 -290.96950595 230.62364302 -292.47949219 232.94824219 C-292.92196289 233.62741699 -293.36443359 234.3065918 -293.8203125 235.00634766 C-307.01698632 255.60521669 -311.99332886 275.90588805 -311.72949219 300.26074219 C-311.72530273 300.97907227 -311.72111328 301.69740234 -311.71679688 302.4375 C-311.46991855 320.45961757 -304.70863044 337.86352573 -295.72949219 353.26074219 C-295.06949219 353.26074219 -294.40949219 353.26074219 -293.72949219 353.26074219 C-293.35824219 354.33775391 -293.35824219 354.33775391 -292.97949219 355.43652344 C-283.89327687 375.96569117 -260.00907027 389.92836708 -239.90527344 397.79980469 C-225.48045094 402.95475693 -211.07286778 403.55871833 -195.90974426 403.51470947 C-194.15643408 403.51701897 -192.40312487 403.52019875 -190.64981765 403.52416396 C-185.87258118 403.53245318 -181.09542541 403.52841366 -176.31818879 403.52219152 C-171.15048009 403.51764392 -165.98278473 403.52466212 -160.81507874 403.53015137 C-150.70844714 403.5390219 -140.60184533 403.53713397 -130.49521259 403.53132609 C-122.27961422 403.52680112 -114.06402417 403.5262003 -105.84842491 403.52837372 C-104.67716877 403.52868018 -103.50591263 403.52898665 -102.29916387 403.5293024 C-99.91948766 403.52994188 -97.53981144 403.53059031 -95.16013523 403.53124759 C-72.87258131 403.53694383 -50.58504387 403.53040368 -28.29749265 403.51964685 C-9.18603178 403.51070847 9.9254048 403.51226712 29.03686523 403.52148438 C51.25175686 403.53219342 73.46663407 403.53639826 95.68152791 403.53025985 C98.05131455 403.52962277 100.42110119 403.52899403 102.79088783 403.52837372 C103.95675723 403.52806517 105.12262662 403.52775662 106.32382539 403.52743872 C114.52827204 403.52571394 122.73270953 403.52862211 130.93715477 403.53333282 C140.93717508 403.53894854 150.937164 403.53741051 160.93718072 403.52677134 C166.03638512 403.5215245 171.13553723 403.51944111 176.23474121 403.52606964 C180.90712502 403.53205141 185.5794083 403.52871736 190.25178305 403.51811454 C191.93726955 403.51588998 193.62276463 403.51699544 195.30824556 403.52186611 C219.18055841 403.58553268 237.99219358 397.61791148 256.01269531 381.67089844 C257.4923898 380.3269216 257.4923898 380.3269216 257.27050781 378.26074219 C257.93050781 378.26074219 258.59050781 378.26074219 259.27050781 378.26074219 C260.72548209 376.44673592 260.72548209 376.44673592 262.14550781 374.13574219 C263.82353661 371.51509189 265.49170166 368.95911421 267.33300781 366.44824219 C276.45093863 351.44777536 280.03419561 332.49629618 276.54394531 315.20214844 C275.60738716 311.48256584 274.51764325 307.88728076 273.27050781 304.26074219 C272.91988281 303.22433594 272.56925781 302.18792969 272.20800781 301.12011719 C267.99238387 289.93700367 260.70467645 278.74925494 251.27050781 271.26074219 C250.61050781 271.26074219 249.95050781 271.26074219 249.27050781 271.26074219 C249.27050781 270.60074219 249.27050781 269.94074219 249.27050781 269.26074219 C235.72366604 258.370998 219.28387059 253.16830476 202.02050781 253.07324219 C200.83972656 253.0590625 199.65894531 253.04488281 198.44238281 253.03027344 C194.51235515 253.2887679 194.51235515 253.2887679 191.27050781 255.26074219 C190.04902761 258.00549929 190.04902761 258.00549929 189.27050781 261.26074219 C186.20252803 272.06382157 181.72990023 281.47677488 176.27050781 291.26074219 C166.59725746 287.55266288 157.43337542 282.38544599 148.27050781 277.57324219 C147.21234863 277.02108032 147.21234863 277.02108032 146.1328125 276.45776367 C142.00169628 274.2736254 138.11333757 271.92070091 134.27050781 269.26074219 C134.85396578 265.73516639 135.79304087 262.94445135 137.39550781 259.76074219 C139.99765605 254.17601468 142.04539099 248.46422322 144.02050781 242.63574219 C144.47901123 241.31219727 144.47901123 241.31219727 144.94677734 239.96191406 C146.81738925 234.34273437 147.73786932 229.15450293 148.27050781 223.26074219 C148.60050781 222.60074219 148.93050781 221.94074219 149.27050781 221.26074219 C150.4004767 213.61355838 150.42007796 206.04236208 150.39550781 198.32324219 C150.399375 197.11216797 150.40324219 195.90109375 150.40722656 194.65332031 C151.28996566 183.35265643 151.28996566 183.35265643 148.27050781 173.26074219 C147.94210832 171.47544315 147.65868553 169.68181467 147.39550781 167.88574219 C146.01324095 159.31772036 144.00128308 151.3434365 140.28613281 143.48339844 C139.25790778 141.2331675 138.42577579 138.96101565 137.58300781 136.63574219 C133.07766901 125.27522121 125.68448811 114.88145324 118.27050781 105.26074219 C117.57570313 104.33519531 116.88089844 103.40964844 116.16503906 102.45605469 C115.53984375 101.73160156 114.91464844 101.00714844 114.27050781 100.26074219 C113.61050781 100.26074219 112.95050781 100.26074219 112.27050781 100.26074219 C112.02945312 99.69613281 111.78839844 99.13152344 111.54003906 98.54980469 C103.08256183 83.30032266 79.651755 68.79805431 63.48144531 63.04980469 C61.22926413 62.24602271 59.1189246 61.28269201 56.95800781 60.26074219 C41.5950302 53.41186231 24.95649402 50.85867226 8.27050781 50.26074219 C7.3359375 50.21949219 6.40136719 50.17824219 5.43847656 50.13574219 C-17.8441295 49.602807 -40.78393393 53.96209478 -61.72949219 64.26074219 Z " fill="#050001" transform="translate(528.7294921875,259.7392578125)"/>
<path d="M0 0 C6.22704656 0.92252542 9.95955113 5.9105149 13.86328125 10.4140625 C15 12 15 12 15 14 C15.66 14 16.32 14 17 14 C18.48046875 15.66479492 18.48046875 15.66479492 20.1875 17.98046875 C21.11175781 19.2324707 21.11175781 19.2324707 22.0546875 20.50976562 C22.69664062 21.39341797 23.33859375 22.27707031 24 23.1875 C24.96292969 24.48397461 24.96292969 24.48397461 25.9453125 25.80664062 C28.86319124 29.78972823 31.30747346 33.32955558 33 38 C33.66 38 34.32 38 35 38 C35.29132813 38.53367187 35.58265625 39.06734375 35.8828125 39.6171875 C38.12844712 43.69887558 40.42887904 47.72241683 42.875 51.6875 C53.24931338 68.94273553 60.76571238 87.60473271 66 107 C66.32355469 108.10859375 66.64710938 109.2171875 66.98046875 110.359375 C78.58554135 151.79971086 80.64554508 197.13564564 68.83203125 238.8359375 C67.94435416 242.21161093 67.47790911 245.54528414 67 249 C66.20244853 252.0697125 65.08528042 255.02071668 64 258 C63.55269531 259.23621094 63.10539063 260.47242188 62.64453125 261.74609375 C59.74932564 269.65668339 56.67098244 277.41115619 53 285 C52.47664062 286.08667969 51.95328125 287.17335938 51.4140625 288.29296875 C44.59392645 302.19555377 36.80374818 315.27253657 28 328 C27.60683594 328.57041016 27.21367188 329.14082031 26.80859375 329.72851562 C22.08405342 336.54306447 22.08405342 336.54306447 20 339 C19.34 339 18.68 339 18 339 C17.78988281 339.52078125 17.57976563 340.0415625 17.36328125 340.578125 C15.41158117 344.04532859 12.85492146 346.81486877 10.1875 349.75 C9.40536133 350.65298828 9.40536133 350.65298828 8.60742188 351.57421875 C4.69830223 355.87864263 4.69830223 355.87864263 1.2578125 356.4765625 C-1.49819951 355.8948437 -2.97875145 354.94638749 -5 353 C-5 352.34 -5 351.68 -5 351 C-5.99 350.67 -6.98 350.34 -8 350 C-8 349.34 -8 348.68 -8 348 C-8.99 347.67 -9.98 347.34 -11 347 C-11 346.34 -11 345.68 -11 345 C-11.99 344.67 -12.98 344.34 -14 344 C-14 343.34 -14 342.68 -14 342 C-14.57975586 341.74621582 -15.15951172 341.49243164 -15.75683594 341.23095703 C-18.25072223 339.86241385 -19.89743836 338.33002231 -21.890625 336.3046875 C-22.59960938 335.58925781 -23.30859375 334.87382813 -24.0390625 334.13671875 C-24.76867187 333.39035156 -25.49828125 332.64398437 -26.25 331.875 C-27.36761719 330.74384766 -27.36761719 330.74384766 -28.5078125 329.58984375 C-30.3431342 327.73099228 -32.1736191 325.86762995 -34 324 C-32.32757375 320.4541213 -30.35040847 318.09006967 -27.625 315.25 C-23.2803075 310.5569721 -19.33341817 305.68071313 -15.5 300.5625 C-14.9838916 299.87639648 -14.4677832 299.19029297 -13.93603516 298.48339844 C-11.65306763 295.40348151 -9.6493173 292.47337462 -8 289 C-7.34 289 -6.68 289 -6 289 C-5.896875 288.2678125 -5.79375 287.535625 -5.6875 286.78125 C-4.93015133 283.71743039 -3.83644461 282.05061751 -2 279.5 C24.23848179 239.3105872 30.35160156 184.42555332 21.0859375 138.15625 C20.1909535 134.06601609 19.12463764 130.03226154 18 126 C17.81179688 125.30116699 17.62359375 124.60233398 17.4296875 123.88232422 C11.19641888 100.82442473 1.16081421 79.27345608 -12.9375 59.9375 C-15 57 -15 57 -15 55 C-15.66 55 -16.32 55 -17 55 C-18.66211662 53.01203677 -20.21590458 51.02084295 -21.75 48.9375 C-24.59828691 45.12171452 -27.43660421 41.42551995 -30.6875 37.9375 C-31.450625 36.968125 -32.21375 35.99875 -33 35 C-32.64453125 32.81640625 -32.64453125 32.81640625 -32 31 C-31.34 31 -30.68 31 -30 31 C-30 30.34 -30 29.68 -30 29 C-28.61474609 27.64038086 -28.61474609 27.64038086 -26.6484375 26.02734375 C-20.34407172 20.66904961 -14.67185624 14.68127774 -8.89453125 8.76757812 C-8.03472656 7.89681641 -7.17492187 7.02605469 -6.2890625 6.12890625 C-5.51256348 5.33556885 -4.73606445 4.54223145 -3.93603516 3.72485352 C-2 2 -2 2 0 2 C0 1.34 0 0.68 0 0 Z " fill="#060001" transform="translate(957,407)"/>
<path d="M0 0 C2.68282999 2.81987042 4.93393278 5.55536556 6.6875 9.0625 C9.76974287 7.84803996 9.76974287 7.84803996 11.59765625 5.203125 C14.516255 -0.52946322 21.018934 -4.85379622 26.875 -7.22265625 C33.34397288 -8.86685352 40.0438526 -8.89431629 46.6875 -8.9375 C47.6671875 -8.95039062 48.646875 -8.96328125 49.65625 -8.9765625 C59.52267848 -8.57066513 67.08926987 -2.40278198 73.70703125 4.484375 C79.64111312 12.2092153 81.83988854 21.2151954 81.81689453 30.74072266 C81.81952301 32.07033272 81.81952301 32.07033272 81.82220459 33.42680359 C81.82661016 36.3600764 81.82369015 39.29328906 81.8203125 42.2265625 C81.82098579 44.26012178 81.82195603 46.29368098 81.82321167 48.32723999 C81.82468679 52.58926154 81.82253959 56.85126214 81.81787109 61.11328125 C81.81216668 66.58921279 81.8154585 72.0650954 81.82144356 77.54102516 C81.825048 81.73931246 81.82391125 85.93758806 81.82131577 90.1358757 C81.82064655 92.15579611 81.82147474 94.17571756 81.82379532 96.19563675 C81.82632071 99.01147551 81.82248319 101.82723368 81.81689453 104.64306641 C81.81891876 105.4856752 81.82094299 106.328284 81.82302856 107.19642639 C81.80176396 112.94823604 81.80176396 112.94823604 80.6875 114.0625 C78.40802208 114.1627093 76.12542865 114.19331303 73.84375 114.1953125 C73.15945923 114.19626923 72.47516846 114.19722595 71.7701416 114.19821167 C70.32088123 114.1988933 68.87161782 114.19704023 67.42236328 114.19287109 C65.19687072 114.18752252 62.97157999 114.1928166 60.74609375 114.19921875 C59.34114539 114.19855797 57.93619715 114.1972768 56.53125 114.1953125 C55.24412109 114.19418457 53.95699219 114.19305664 52.63085938 114.19189453 C49.6875 114.0625 49.6875 114.0625 48.6875 113.0625 C48.5731724 110.67669626 48.52268207 108.31864293 48.51391602 105.93164062 C48.507229 105.18517273 48.50054199 104.43870483 48.49365234 103.6696167 C48.47956539 102.04195309 48.46768306 100.4142693 48.45770454 98.78657532 C48.44131752 96.20477096 48.41807547 93.6231136 48.39280701 91.04138184 C48.32200504 83.69823539 48.26217875 76.35502535 48.21069336 69.01171875 C48.17874312 64.52359839 48.13741518 60.03564081 48.09049797 55.5476532 C48.07455836 53.84139464 48.06220003 52.13509852 48.05359077 50.42878723 C48.37829776 35.72540642 48.37829776 35.72540642 43.6875 22.0625 C37.18723169 19.14762324 28.90303365 18.47840195 22.171875 21.0078125 C17.63280893 23.68081807 14.82281584 26.64782145 13.13392639 31.72747803 C12.49026823 35.09411582 12.50897028 38.44496993 12.48217773 41.86035156 C12.47227814 42.64122131 12.46237854 43.42209106 12.45217896 44.22662354 C12.42064627 46.80209341 12.39583914 49.37758171 12.37109375 51.953125 C12.35051711 53.74103265 12.32952045 55.52893551 12.30812073 57.3168335 C12.25297337 62.01855589 12.20353177 66.72032166 12.15527344 71.42211914 C12.10500482 76.22155611 12.04934675 81.02093023 11.99414062 85.8203125 C11.88664877 95.23432327 11.78568206 104.64838753 11.6875 114.0625 C1.1275 114.0625 -9.4325 114.0625 -20.3125 114.0625 C-21.48771692 110.53684925 -21.45875701 107.71785828 -21.48608398 103.99584961 C-21.492771 103.27995667 -21.49945801 102.56406372 -21.50634766 101.82647705 C-21.52039348 100.27142471 -21.53228903 98.71635181 -21.54229546 97.16126823 C-21.55874298 94.69244395 -21.58198681 92.22376961 -21.60719299 89.75502014 C-21.67783313 82.7352756 -21.7378111 75.71546713 -21.78930664 68.69555664 C-21.82129769 64.39963804 -21.86263102 60.10388811 -21.90950203 55.80810738 C-21.9254125 54.17803581 -21.93778393 52.54792539 -21.94640923 50.917799 C-21.58876857 35.94852724 -21.58876857 35.94852724 -26.3125 22.0625 C-32.86027317 19.11694015 -40.94917642 18.74808265 -47.828125 20.8203125 C-51.68547006 22.63469332 -54.03608938 24.3979715 -56.3125 28.0625 C-58.60742364 38.58712811 -58.57827291 49.4546658 -58.47265625 60.17578125 C-58.46636093 61.64787901 -58.46112922 63.11998166 -58.45689392 64.59208679 C-58.44378597 68.40978254 -58.41942469 72.22730858 -58.39154053 76.04492188 C-58.34786078 82.1981247 -58.31868545 88.35137982 -58.2954998 94.50469017 C-58.28531502 96.6424553 -58.26828424 98.78008722 -58.25050354 100.9178009 C-58.24397263 102.20732162 -58.23744171 103.49684235 -58.23071289 104.82543945 C-58.22245987 105.96076614 -58.21420685 107.09609283 -58.20570374 108.26582336 C-58.3125 111.0625 -58.3125 111.0625 -59.3125 114.0625 C-63.38683604 114.27974212 -67.46159681 114.47655801 -71.5378418 114.65454102 C-72.92417719 114.71794693 -74.31026978 114.78691716 -75.69604492 114.86157227 C-77.68856194 114.96794455 -79.68219982 115.05262226 -81.67578125 115.13671875 C-82.87501221 115.19432373 -84.07424316 115.25192871 -85.30981445 115.3112793 C-88.3125 115.0625 -88.3125 115.0625 -89.97677898 113.84389591 C-91.71106711 111.53094752 -91.68728935 110.1875275 -91.6867218 107.31138611 C-91.69373611 106.33411057 -91.70075043 105.35683502 -91.70797729 104.34994507 C-91.70033356 103.27918732 -91.69268982 102.20842957 -91.68481445 101.10522461 C-91.68846512 99.97658493 -91.69211578 98.84794525 -91.69587708 97.68510437 C-91.70400017 93.94486567 -91.69035825 90.20505776 -91.67578125 86.46484375 C-91.67526289 83.87317403 -91.67577965 81.28150392 -91.67729187 78.68983459 C-91.67720207 73.25499138 -91.66709304 67.82030685 -91.64868164 62.38549805 C-91.62750326 56.09781974 -91.62400635 49.81032404 -91.6302436 43.52261728 C-91.63593327 37.47790037 -91.63019289 31.43326479 -91.61907005 25.38855171 C-91.61521028 22.81403424 -91.61407303 20.23951125 -91.6156559 17.66499138 C-91.61602509 14.07334659 -91.60344771 10.4819835 -91.5871582 6.89038086 C-91.58963562 5.81759888 -91.59211304 4.74481689 -91.59466553 3.63952637 C-91.58758072 2.66507065 -91.58049591 1.69061493 -91.57319641 0.68663025 C-91.57114354 -0.1630536 -91.56909067 -1.01273745 -91.56697559 -1.88816929 C-91.3125 -3.9375 -91.3125 -3.9375 -89.3125 -5.9375 C-86.53100586 -6.18041992 -86.53100586 -6.18041992 -83.02734375 -6.16796875 C-81.77501953 -6.16603516 -80.52269531 -6.16410156 -79.23242188 -6.16210938 C-77.26112305 -6.14374023 -77.26112305 -6.14374023 -75.25 -6.125 C-73.93193359 -6.12435547 -72.61386719 -6.12371094 -71.25585938 -6.12304688 C-61.45259123 -6.07759123 -61.45259123 -6.07759123 -60.3125 -4.9375 C-60.07822222 -2.92155418 -59.89913876 -0.899026 -59.75 1.125 C-59.62431641 2.78208984 -59.62431641 2.78208984 -59.49609375 4.47265625 C-59.43550781 5.32730469 -59.37492187 6.18195312 -59.3125 7.0625 C-58.673125 6.381875 -58.03375 5.70125 -57.375 5 C-42.28489966 -10.04723073 -16.79477317 -16.00940608 0 0 Z " fill="#060002" transform="translate(258.3125,822.9375)"/>
<path d="M0 0 C1.48486328 1.44897461 1.48486328 1.44897461 3.1953125 3.46484375 C4.12972168 4.56481689 4.12972168 4.56481689 5.08300781 5.68701172 C12.71023713 14.8898098 20.198449 24.18178297 26.375 34.4375 C26.93743408 35.36767944 26.93743408 35.36767944 27.51123047 36.31665039 C29.13003569 39.10251032 30 40.72148499 30 44 C30.66 44 31.32 44 32 44 C38.32678612 58.60700389 44.31155532 73.25067162 47 89 C47.19207031 89.98226562 47.38414062 90.96453125 47.58203125 91.9765625 C54.14187384 128.50403133 48.171426 167.35987007 30.97558594 200.11621094 C29.00750193 203.91644523 27.18035293 207.78866512 25.32421875 211.64453125 C24.04516612 213.91966026 22.84584901 215.19408522 21 217 C19.41203793 219.19437743 17.85506059 221.39938566 16.3125 223.625 C5.04199298 239.55795305 5.04199298 239.55795305 0.58203125 240.5234375 C-3.07785122 239.78149461 -4.48690683 237.96728199 -7 235.25 C-10.17852936 231.85294675 -13.35971944 228.88947269 -17 226 C-18.68862973 224.35558971 -20.35314304 222.68624367 -22 221 C-23.10933203 219.88797949 -24.22009239 218.77738262 -25.33203125 217.66796875 C-28.5546875 214.4453125 -31.77734375 211.22265625 -35 208 C-33.77773803 204.55651194 -32.54597694 202.23217831 -30 199.625 C-20.52653406 189.08576914 -14.12095854 177.12514583 -9 164 C-8.67386719 163.18144531 -8.34773437 162.36289062 -8.01171875 161.51953125 C1.40465098 135.781454 0.18380906 105.54576772 -9 80 C-9.28488281 79.16726563 -9.56976562 78.33453125 -9.86328125 77.4765625 C-14.92012863 63.70946258 -23.4881792 50.1833264 -34 40 C-34 39.34 -34 38.68 -34 38 C-34.99 37.67 -35.98 37.34 -37 37 C-35.51339119 31.64361053 -31.94289923 28.54292938 -28.09375 24.765625 C-27.41324585 24.08699402 -26.7327417 23.40836304 -26.03161621 22.70916748 C-24.59602943 21.28028828 -23.15685662 19.85500406 -21.71435547 18.43310547 C-19.50094014 16.25092687 -17.29845013 14.05818146 -15.09765625 11.86328125 C-13.70114345 10.47593549 -12.30402859 9.08919545 -10.90625 7.703125 C-10.24475952 7.0458844 -9.58326904 6.3886438 -8.9017334 5.71148682 C-8.28769653 5.1070575 -7.67365967 4.50262817 -7.04101562 3.87988281 C-6.23065857 3.07976776 -6.23065857 3.07976776 -5.40393066 2.26348877 C-3.57052494 0.61348738 -2.48788283 0 0 0 Z " fill="#060001" transform="translate(893,462)"/>
<path d="M0 0 C10.56 0 21.12 0 32 0 C32 53.46 32 106.92 32 162 C21.77 162 11.54 162 1 162 C0.67 158.7 0.34 155.4 0 152 C-0.99 151.67 -1.98 151.34 -3 151 C-3.20625 151.556875 -3.4125 152.11375 -3.625 152.6875 C-5.52307289 155.87971349 -8.02964612 157.86634282 -11 160 C-11.90032959 160.65331299 -11.90032959 160.65331299 -12.81884766 161.31982422 C-19.63348757 165.66921126 -25.88366808 165.78496827 -33.8125 165.6875 C-35.00681641 165.71521484 -36.20113281 165.74292969 -37.43164062 165.77148438 C-48.45923032 165.74146916 -57.51690721 162.0788508 -65.5 154.4375 C-66.2734375 153.71433594 -67.046875 152.99117187 -67.84375 152.24609375 C-81.69374962 137.81901081 -85.53339299 120.6527514 -85.34765625 101.19848633 C-84.87305523 83.1183733 -79.99433429 66.46408933 -67.875 52.5625 C-57.03866708 42.90402935 -45.24521544 37.36288219 -30.5703125 37.75390625 C-18.66859767 38.89343214 -10.88171044 44.57700055 -2 52 C-1.98969254 51.36328873 -1.97938507 50.72657745 -1.96876526 50.0705719 C-1.86093669 43.46873202 -1.74632039 36.86703522 -1.62768555 30.26538086 C-1.58426057 27.79861431 -1.54259128 25.33181622 -1.50268555 22.86499023 C-1.44516555 19.32786534 -1.38141925 15.79090034 -1.31640625 12.25390625 C-1.29969376 11.14350479 -1.28298126 10.03310333 -1.26576233 8.88905334 C-1.24581711 7.86807053 -1.22587189 6.84708771 -1.20532227 5.79516602 C-1.18977798 4.89137711 -1.1742337 3.9875882 -1.15821838 3.05641174 C-1 1 -1 1 0 0 Z M-45 76 C-52.6047673 86.73614207 -53.32356284 100.82740169 -51.49609375 113.4921875 C-49.65294876 122.61312212 -46.34191367 130.02402376 -39 136 C-32.48654525 139.62183134 -25.57219149 140.08666435 -18.38671875 138.37890625 C-10.94908977 135.83950333 -6.62698794 131.5171378 -2.71875 124.796875 C-0.17528398 119.60093728 0.78184955 114.74779 1 109 C1.03996094 108.15695312 1.07992187 107.31390625 1.12109375 106.4453125 C1.43029287 93.89546588 -0.06764705 83.17308657 -8.375 73.37890625 C-13.26593977 68.69638721 -20.45292369 66.95828301 -27.0625 66.5625 C-34.43861096 67.38206788 -40.26470609 70.18235319 -45 76 Z " fill="#060001" transform="translate(1001,775)"/>
<path d="M0 0 C1.155 -0.01611328 2.31 -0.03222656 3.5 -0.04882812 C19.2907081 -0.05773936 31.8440276 5.01814101 43.33984375 15.89453125 C55.92636971 29.21258179 62.57817689 47.18958812 62.8125 65.4375 C62.625 69.3125 62.625 69.3125 61.625 71.3125 C61.4695269 72.80964833 61.34980892 74.31061346 61.25 75.8125 C60.27149808 86.00644534 56.39298116 94.33203063 51.625 103.3125 C50.965 103.3125 50.305 103.3125 49.625 103.3125 C49.3465625 104.3025 49.3465625 104.3025 49.0625 105.3125 C44.03623386 115.80209891 33.82714697 121.99455947 23.39086914 126.25854492 C16.40815522 128.21279944 9.33036976 128.01168015 2.12426758 127.90942383 C-0.56860031 127.87492184 -3.25820841 127.88886451 -5.95117188 127.90820312 C-7.69011792 127.90130735 -9.42905564 127.8916374 -11.16796875 127.87890625 C-12.35425117 127.88634605 -12.35425117 127.88634605 -13.5644989 127.89393616 C-19.60316913 127.76834102 -24.01490304 125.97363564 -29.375 123.3125 C-30.64323779 122.8059526 -31.91369414 122.3048779 -33.1875 121.8125 C-47.25600131 114.65137909 -55.24599255 99.5171271 -60.18359375 85.26953125 C-61.87952849 79.97084676 -62.33807696 74.85834111 -62.375 69.3125 C-62.41238281 68.23097656 -62.44976563 67.14945313 -62.48828125 66.03515625 C-62.93140483 46.04795071 -55.61149484 28.29066843 -41.95703125 13.796875 C-30.05191765 2.34203045 -15.99320597 -0.04432707 0 0 Z M-22.375 37.3125 C-27.84334847 45.51502271 -28.74031514 54.51759579 -28.6875 64.125 C-28.68621094 65.0938916 -28.68492187 66.0627832 -28.68359375 67.06103516 C-28.59271782 73.81652473 -27.91715541 79.98737523 -25.375 86.3125 C-24.715 86.3125 -24.055 86.3125 -23.375 86.3125 C-23.354375 86.993125 -23.33375 87.67375 -23.3125 88.375 C-21.71144478 93.3916397 -18.01823142 96.59650694 -13.66015625 99.42578125 C-6.57571709 102.69671487 3.05278392 102.76965102 10.3828125 100.43359375 C17.45402709 96.80210558 22.82207134 90.74026095 25.625 83.3125 C27.92403085 74.13083592 28.12271375 64.72276239 27.625 55.3125 C27.295 54.9825 26.965 54.6525 26.625 54.3125 C26.563125 53.013125 26.50125 51.71375 26.4375 50.375 C25.86751974 44.55372621 23.24520825 39.85126855 19.625 35.3125 C18.635 34.9825 17.645 34.6525 16.625 34.3125 C16.625 33.6525 16.625 32.9925 16.625 32.3125 C11.11550174 28.48645954 6.39372627 28.11111478 -0.1875 28.0625 C-0.87392578 28.041875 -1.56035156 28.02125 -2.26757812 28 C-10.47594788 27.93787421 -16.8668004 31.24251885 -22.375 37.3125 Z " fill="#060002" transform="translate(728.375,812.6875)"/>
<path d="M0 0 C0.68429077 -0.00095673 1.36858154 -0.00191345 2.0736084 -0.00289917 C3.52286877 -0.0035808 4.97213218 -0.00172773 6.42138672 0.00244141 C8.64687928 0.00778998 10.87217001 0.0024959 13.09765625 -0.00390625 C14.50260461 -0.00324547 15.90755285 -0.0019643 17.3125 0 C18.59962891 0.00112793 19.88675781 0.00225586 21.21289062 0.00341797 C24.15625 0.1328125 24.15625 0.1328125 25.15625 1.1328125 C25.2699798 3.44120247 25.31315162 5.7530793 25.32983398 8.06420898 C25.336521 8.78956345 25.34320801 9.51491791 25.35009766 10.26225281 C25.36418497 11.84407789 25.37606718 13.42592374 25.38604546 15.00778008 C25.40243872 17.5184505 25.42568207 20.02897014 25.45094299 22.53956604 C25.52172035 29.68051623 25.58151029 36.82153231 25.63305664 43.96264648 C25.66504687 48.32758023 25.70638619 52.69234797 25.75325203 57.05714607 C25.76917053 58.71512896 25.78153837 60.37315017 25.79015923 62.03118706 C25.83516011 70.5718992 25.943463 78.81928392 28.15625 87.1328125 C28.30722641 87.85500473 28.45820282 88.57719696 28.61375427 89.3212738 C28.99189617 91.28795738 28.99189617 91.28795738 30.875 92.26953125 C40.36758711 95.86176027 47.50681095 96.92208993 57.15625 93.1328125 C62.13631781 90.33152436 64.19074034 86.32920948 66.15625 81.1328125 C68.51531361 72.21568497 68.48235805 63.15366347 68.53515625 54 C68.55136496 52.47110975 68.56854838 50.94222955 68.58665466 49.4133606 C68.63194589 45.42562491 68.66697289 41.43787525 68.69885254 37.45001221 C68.75113252 31.03320579 68.81574879 24.61654491 68.88706779 18.19992447 C68.90991306 15.96133026 68.926162 13.7227551 68.94178772 11.48410034 C68.9551834 10.12465184 68.96879723 8.76520547 68.98266602 7.40576172 C68.99693382 5.62019363 68.99693382 5.62019363 69.01148987 3.79855347 C69.15625 1.1328125 69.15625 1.1328125 70.15625 0.1328125 C72.36275656 0.03268849 74.57247386 0.0020007 76.78125 0 C77.44334473 -0.00095673 78.10543945 -0.00191345 78.78759766 -0.00289917 C80.18977961 -0.00358076 81.5919647 -0.00172792 82.99414062 0.00244141 C85.14720713 0.00779004 87.30006502 0.0024958 89.453125 -0.00390625 C90.81250046 -0.00324546 92.1718758 -0.00196429 93.53125 0 C95.39910156 0.00169189 95.39910156 0.00169189 97.3046875 0.00341797 C100.15625 0.1328125 100.15625 0.1328125 101.15625 1.1328125 C101.25209998 2.67634381 101.2781307 4.22426358 101.27650452 5.77076721 C101.27856651 7.27475571 101.27856651 7.27475571 101.28067017 8.80912781 C101.27527725 10.47284172 101.27527725 10.47284172 101.26977539 12.17016602 C101.26992142 13.33098694 101.27006744 14.49180786 101.2702179 15.68780518 C101.26951817 19.54579502 101.26172298 23.40373728 101.25390625 27.26171875 C101.25204228 29.92829978 101.25056912 32.59487814 101.24961853 35.26145935 C101.24650548 41.5761013 101.23829244 47.89072601 101.22826904 54.20536035 C101.2171071 61.39266883 101.21159725 68.57997811 101.20657361 75.7672931 C101.1961098 90.55580839 101.17851086 105.34431015 101.15625 120.1328125 C96.75968827 120.15746754 92.3631628 120.17565092 87.96655273 120.18774414 C86.46980082 120.19278371 84.97305384 120.19961537 83.47631836 120.20825195 C81.32925193 120.22033409 79.18225038 120.22604441 77.03515625 120.23046875 C75.09491577 120.23832397 75.09491577 120.23832397 73.11547852 120.24633789 C70.15625 120.1328125 70.15625 120.1328125 69.15625 119.1328125 C69.08398498 117.27993748 69.0724378 115.42447372 69.09375 113.5703125 C69.10277344 112.55839844 69.11179687 111.54648437 69.12109375 110.50390625 C69.13269531 109.72144531 69.14429688 108.93898438 69.15625 108.1328125 C68.13917969 109.02033203 68.13917969 109.02033203 67.1015625 109.92578125 C53.02755239 121.87504468 42.15199491 124.127867 24.15625 123.1328125 C14.06358506 121.79618572 7.51723934 117.33653358 1.28125 109.4453125 C-2.00507137 105.02024256 -4.17191008 101.49236065 -5.40625 96.0703125 C-5.65503906 95.00683594 -5.90382813 93.94335938 -6.16015625 92.84765625 C-8.096732 82.3237503 -7.99122685 71.78938429 -7.9765625 61.12890625 C-7.97723706 59.39681484 -7.97820835 57.66472353 -7.97946167 55.93263245 C-7.98092794 52.32446378 -7.97881633 48.71632004 -7.97412109 45.1081543 C-7.96838574 40.47429423 -7.97173341 35.8404916 -7.97769356 31.20663357 C-7.98129535 27.64058493 -7.98016302 24.07455009 -7.97756577 20.50850105 C-7.97689742 18.79839127 -7.97772169 17.08828025 -7.98004532 15.37817192 C-7.98256971 13.00134795 -7.9787361 10.62461953 -7.97314453 8.24780273 C-7.97516876 7.53775085 -7.97719299 6.82769897 -7.97927856 6.09613037 C-7.94943813 -0.71073916 -6.56004646 0.00574866 0 0 Z " fill="#060001" transform="translate(806.84375,816.8671875)"/>
<path d="M0 0 C1.62615234 -0.00386719 1.62615234 -0.00386719 3.28515625 -0.0078125 C5.9375 0.125 5.9375 0.125 6.9375 1.125 C8.62462082 1.17991533 10.31228525 1.21819918 12 1.25 C22.96865061 2.10079032 34.26174037 7.14066128 42.109375 14.8984375 C49.52021766 23.92446382 52.87561037 34.65659197 53.9375 46.125 C50.44352801 48.45431466 49.00753178 48.38208028 44.87890625 48.390625 C43.09323242 48.39449219 43.09323242 48.39449219 41.27148438 48.3984375 C40.02689453 48.39070312 38.78230469 48.38296875 37.5 48.375 C35.63891602 48.38660156 35.63891602 48.38660156 33.74023438 48.3984375 C32.54849609 48.39585937 31.35675781 48.39328125 30.12890625 48.390625 C29.03779541 48.38836914 27.94668457 48.38611328 26.82250977 48.38378906 C23.94489067 48.12566295 22.28554401 47.78934984 19.9375 46.125 C19.19631795 43.81425595 18.53543673 41.47688447 17.9375 39.125 C16.15718405 35.09586389 13.96619008 32.95361383 10.01953125 30.91796875 C3.55709286 28.45666482 -2.63219011 28.59851955 -9.02734375 31.125 C-14.70491119 33.91474523 -17.93204322 37.50361377 -20.25 43.26953125 C-24.51129989 58.24554194 -25.20606244 77.17234067 -18.1171875 91.32421875 C-15.48159109 95.82425559 -12.44194012 97.8845159 -7.484375 99.58984375 C-1.20221205 100.97799911 5.22021093 101.19132384 10.9375 98.125 C11.9275 98.125 12.9175 98.125 13.9375 98.125 C14.3396875 97.320625 14.3396875 97.320625 14.75 96.5 C15.62524798 94.74950404 16.54954143 93.02332543 17.5 91.3125 C19.0531826 87.8684864 19.56322052 84.86779481 19.9375 81.125 C23.25746264 80.01834579 25.75438599 79.99565144 29.25 79.9921875 C30.49007812 79.99089844 31.73015625 79.98960937 33.0078125 79.98828125 C34.30460938 79.99214844 35.60140625 79.99601563 36.9375 80 C38.88269531 79.99419922 38.88269531 79.99419922 40.8671875 79.98828125 C42.10726562 79.98957031 43.34734375 79.99085938 44.625 79.9921875 C46.33236328 79.99387939 46.33236328 79.99387939 48.07421875 79.99560547 C50.9375 80.125 50.9375 80.125 53.9375 81.125 C52.48582763 93.73504952 48.18622026 102.55505614 39.9375 112.125 C39.40382813 112.7540625 38.87015625 113.383125 38.3203125 114.03125 C33.65626872 119.11929776 28.12903426 122.17534577 21.9375 125.125 C20.87728638 125.64646606 20.87728638 125.64646606 19.7956543 126.1784668 C16.05241475 127.41811314 12.46159055 127.48804009 8.55859375 127.53125 C7.34672142 127.54835022 7.34672142 127.54835022 6.11036682 127.5657959 C4.40167428 127.58464408 2.69290989 127.59774327 0.98413086 127.60546875 C-1.59330392 127.62476273 -4.16746188 127.6867868 -6.74414062 127.75 C-16.94701223 127.88040865 -24.29081317 126.85704573 -33.0625 121.125 C-34.45770874 120.34672852 -34.45770874 120.34672852 -35.88110352 119.55273438 C-36.60096436 119.08158203 -37.3208252 118.61042969 -38.0625 118.125 C-38.0625 117.465 -38.0625 116.805 -38.0625 116.125 C-39.5475 115.63 -39.5475 115.63 -41.0625 115.125 C-48.86852574 107.14404931 -53.43838773 95.79523135 -56.0625 85.125 C-56.26746094 84.39539063 -56.47242188 83.66578125 -56.68359375 82.9140625 C-61.2035596 64.64716602 -57.92367568 43.50109565 -49.0625 27.125 C-41.77746532 15.98594698 -31.13163787 5.73650615 -18.0625 2.125 C-15.42744739 1.75462657 -12.81900762 1.50855003 -10.1640625 1.3359375 C-6.57990199 0.97618905 -3.80754406 -0.00907639 0 0 Z " fill="#060001" transform="translate(560.0625,812.875)"/>
<path d="M0 0 C5.01685644 -0.19844556 10.03140981 -0.34323193 15.05126953 -0.43945312 C16.75675257 -0.47957452 18.46196228 -0.53408953 20.16650391 -0.60351562 C34.28957288 -1.16415117 34.28957288 -1.16415117 38.36206055 1.60766602 C39.93848134 3.67682599 40.97914863 5.61382817 42 8 C42.64066406 9.01964844 43.28132813 10.03929687 43.94140625 11.08984375 C44.47636719 12.02957031 45.01132812 12.96929688 45.5625 13.9375 C46.14386719 14.95714844 46.72523438 15.97679687 47.32421875 17.02734375 C48.15373047 18.49880859 48.15373047 18.49880859 49 20 C49.50144531 20.86753906 50.00289063 21.73507812 50.51953125 22.62890625 C51.19048828 23.80259766 51.19048828 23.80259766 51.875 25 C52.26429688 25.680625 52.65359375 26.36125 53.0546875 27.0625 C54.01431933 29.02934872 54.55170493 30.86344478 55 33 C58.18749156 30.89063058 59.68643788 29.15884127 61.25 25.6875 C63.35941132 21.23284256 65.66639777 16.95518808 68.125 12.6875 C68.46176758 12.10121826 68.79853516 11.51493652 69.14550781 10.91088867 C70.09154466 9.27076396 71.04559403 7.6352688 72 6 C72.53367187 5.05769531 73.06734375 4.11539063 73.6171875 3.14453125 C75 1 75 1 77 0 C79.62627133 -0.08667255 82.22562483 -0.11560135 84.8515625 -0.09765625 C85.62559418 -0.0962413 86.39962585 -0.09482635 87.19711304 -0.09336853 C89.67311442 -0.08776403 92.14902588 -0.07521083 94.625 -0.0625 C96.30208203 -0.05748558 97.97916547 -0.05292257 99.65625 -0.04882812 C103.77086806 -0.03779315 107.88541878 -0.02052554 112 0 C111.27978667 4.0768156 110.16381891 6.71321659 107.875 10.1875 C107.24207031 11.15171875 106.60914063 12.1159375 105.95703125 13.109375 C103.620924 16.55991265 101.24190433 19.97680383 98.8359375 23.37890625 C92.37121071 32.36104438 92.37121071 32.36104438 87 42 C86.34 42 85.68 42 85 42 C84.74605469 42.721875 84.49210937 43.44375 84.23046875 44.1875 C82.52224729 48.09200619 79.97236635 51.15367843 77.36328125 54.5 C75.78014466 56.89528102 75.78014466 56.89528102 76.09765625 59.5234375 C77.10587244 62.2905763 78.36476234 64.26486072 80.125 66.625 C82.71212104 70.18361139 85.16515736 73.77059071 87.5 77.5 C90.27097676 81.90023704 93.18398316 86.16634786 96.1875 90.41015625 C98.83597598 94.19450878 101.38647668 98.04145592 103.93359375 101.89453125 C105.36842873 104.05085225 106.81510983 106.19237101 108.28515625 108.32421875 C109.01605469 109.39285156 109.74695313 110.46148438 110.5 111.5625 C111.1703125 112.53316406 111.840625 113.50382813 112.53125 114.50390625 C114 117 114 117 114 120 C108.66154426 120.12368107 103.32392376 120.21437609 97.984375 120.2746582 C96.16847201 120.299789 94.35267004 120.33389961 92.53710938 120.37719727 C89.92552777 120.43791511 87.31528406 120.46622281 84.703125 120.48828125 C83.89256653 120.51408768 83.08200806 120.5398941 82.24688721 120.56648254 C78.2627186 120.56846107 76.45696293 120.44347878 73.54272461 117.61523438 C73.03362549 116.75220703 72.52452637 115.88917969 72 115 C71.54238281 114.23042969 71.08476562 113.46085938 70.61328125 112.66796875 C69.96939453 111.44013672 69.96939453 111.44013672 69.3125 110.1875 C67.45736018 106.69659422 65.57344439 103.22967551 63.61328125 99.796875 C63.20231201 99.07604736 62.79134277 98.35521973 62.36791992 97.61254883 C61.54687709 96.17576419 60.72287344 94.74066698 59.89575195 93.30737305 C57 88.22101363 57 88.22101363 57 86 C55.03243548 86.03122943 55.03243548 86.03122943 53 87 C52.62101562 88.20462891 52.62101562 88.20462891 52.234375 89.43359375 C50.5292544 94.36009725 47.85199891 98.51348379 45.125 102.9375 C44.06446172 104.67538937 43.00455379 106.41366357 41.9453125 108.15234375 C41.47625488 108.91538818 41.00719727 109.67843262 40.52392578 110.46459961 C38.63158155 113.61294867 36.82246281 116.81069007 35 120 C22.46 120 9.92 120 -3 120 C-0.77619664 113.32858991 -0.77619664 113.32858991 2.0625 110 C5.45519424 105.8061562 8.35916712 101.42371514 11.23608398 96.86401367 C14.57857919 91.59538206 18.08600901 86.45070666 21.625 81.3125 C22.73479 79.69038801 23.84417611 78.06799962 24.953125 76.4453125 C26.75939573 73.80288801 28.58014211 71.17246681 30.421875 68.5546875 C31.06640625 67.60851562 31.7109375 66.66234375 32.375 65.6875 C32.91898437 64.90761719 33.46296875 64.12773438 34.0234375 63.32421875 C35.37003628 60.11931366 34.96597238 58.31006537 34 55 C32.5267571 52.49965103 32.5267571 52.49965103 30.5625 50.125 C27.08688867 45.56131714 23.99194012 40.89323078 21 36 C17.46679035 30.24270362 13.72381583 24.74856458 9.6796875 19.33203125 C8.22250199 17.30891555 6.95396111 15.30426295 5.75 13.125 C4.10693932 9.95047353 4.10693932 9.95047353 1.75 7.375 C-0.30701015 4.58334337 -0.15653704 3.36554642 0 0 Z " fill="#060001" transform="translate(395,817)"/>
<path d="M0 0 C1.15113281 0.00193359 2.30226563 0.00386719 3.48828125 0.00585938 C5.28458984 0.02422852 5.28458984 0.02422852 7.1171875 0.04296875 C8.32246094 0.04361328 9.52773438 0.04425781 10.76953125 0.04492188 C19.71141582 0.09008291 19.71141582 0.09008291 21.9921875 1.23046875 C23.10196534 5.08407771 23.10317603 8.80306282 23.07447815 12.79206848 C23.07124902 13.43745833 23.06801989 14.08284817 23.06469291 14.74779528 C23.05266624 16.90199352 23.03328368 19.05606129 23.01391602 21.21020508 C23.00376809 22.7577181 22.99407497 24.30523417 22.98480225 25.85275269 C22.95837274 30.04864572 22.9255828 34.24446777 22.89165235 38.44030595 C22.85725827 42.82717819 22.8287117 47.21408838 22.79954529 51.60099792 C22.74344125 59.90590882 22.68207707 68.21077219 22.61882395 76.51563138 C22.54706106 85.97140412 22.48116081 95.42721488 22.41575348 104.88303339 C22.28108907 124.33222963 22.13828693 143.78135482 21.9921875 163.23046875 C11.4321875 163.23046875 0.8721875 163.23046875 -10.0078125 163.23046875 C-10.0078125 110.10046875 -10.0078125 56.97046875 -10.0078125 2.23046875 C-5.96613577 0.20963038 -4.36698616 -0.01699865 0 0 Z " fill="#050001" transform="translate(634.0078125,773.76953125)"/>
<path d="M0 0 C0.68429077 -0.00095673 1.36858154 -0.00191345 2.0736084 -0.00289917 C3.52286877 -0.0035808 4.97213218 -0.00172773 6.42138672 0.00244141 C8.64687928 0.00778998 10.87217001 0.0024959 13.09765625 -0.00390625 C14.50260461 -0.00324547 15.90755285 -0.0019643 17.3125 0 C18.59962891 0.00112793 19.88675781 0.00225586 21.21289062 0.00341797 C24.15625 0.1328125 24.15625 0.1328125 25.15625 1.1328125 C25.25209998 2.67634381 25.2781307 4.22426358 25.27650452 5.77076721 C25.27787918 6.77342621 25.27925385 7.77608521 25.28067017 8.80912781 C25.27527725 10.47284172 25.27527725 10.47284172 25.26977539 12.17016602 C25.26992142 13.33098694 25.27006744 14.49180786 25.2702179 15.68780518 C25.26951817 19.54579502 25.26172298 23.40373728 25.25390625 27.26171875 C25.25204228 29.92829978 25.25056912 32.59487814 25.24961853 35.26145935 C25.24650548 41.5761013 25.23829244 47.89072601 25.22826904 54.20536035 C25.2171071 61.39266883 25.21159725 68.57997811 25.20657361 75.7672931 C25.1961098 90.5558096 25.17776464 105.34430758 25.15625 120.1328125 C14.26625 120.1328125 3.37625 120.1328125 -7.84375 120.1328125 C-7.86629742 104.6344112 -7.88472941 89.13601797 -7.89556217 73.63760471 C-7.90072503 66.44190955 -7.90776753 59.24622528 -7.91918945 52.05053711 C-7.9291366 45.78096556 -7.9356035 39.51140189 -7.93783849 33.24182266 C-7.93914555 29.92015629 -7.94274997 26.59851784 -7.94948006 23.27685738 C-7.95668628 19.57461303 -7.95774112 15.87241619 -7.95727539 12.17016602 C-7.96087067 11.06102341 -7.96446594 9.9518808 -7.96817017 8.80912781 C-7.9667955 7.80646881 -7.96542084 6.80380981 -7.96400452 5.77076721 C-7.96492631 4.89414208 -7.9658481 4.01751696 -7.96679783 3.11432743 C-7.68683581 -1.39407332 -3.6600207 0.00320733 0 0 Z " fill="#060001" transform="translate(358.84375,816.8671875)"/>
<path d="M0 0 C0.68429077 -0.00095673 1.36858154 -0.00191345 2.0736084 -0.00289917 C3.52286877 -0.0035808 4.97213218 -0.00172773 6.42138672 0.00244141 C8.64687928 0.00778998 10.87217001 0.0024959 13.09765625 -0.00390625 C14.50260461 -0.00324547 15.90755285 -0.0019643 17.3125 0 C18.59962891 0.00112793 19.88675781 0.00225586 21.21289062 0.00341797 C24.15625 0.1328125 24.15625 0.1328125 25.15625 1.1328125 C25.25599389 3.03566237 25.2870563 4.94219503 25.2890625 6.84765625 C25.29099609 8.58885742 25.29099609 8.58885742 25.29296875 10.36523438 C25.28910156 11.58791016 25.28523438 12.81058594 25.28125 14.0703125 C25.28705078 15.89852539 25.28705078 15.89852539 25.29296875 17.76367188 C25.29167969 18.92576172 25.29039062 20.08785156 25.2890625 21.28515625 C25.28793457 22.35757568 25.28680664 23.42999512 25.28564453 24.53491211 C25.15625 27.1328125 25.15625 27.1328125 24.15625 29.1328125 C19.75968827 29.15746754 15.3631628 29.17565092 10.96655273 29.18774414 C9.46980082 29.19278371 7.97305384 29.19961537 6.47631836 29.20825195 C4.32925193 29.22033409 2.18225038 29.22604441 0.03515625 29.23046875 C-1.90508423 29.23832397 -1.90508423 29.23832397 -3.88452148 29.24633789 C-6.84375 29.1328125 -6.84375 29.1328125 -7.84375 28.1328125 C-7.94358058 26.14524222 -7.97455753 24.1541373 -7.9765625 22.1640625 C-7.97785156 20.95363281 -7.97914063 19.74320313 -7.98046875 18.49609375 C-7.97660156 17.22121094 -7.97273438 15.94632813 -7.96875 14.6328125 C-7.97261719 13.35792969 -7.97648437 12.08304688 -7.98046875 10.76953125 C-7.97917969 9.55910156 -7.97789062 8.34867188 -7.9765625 7.1015625 C-7.97543457 5.98201172 -7.97430664 4.86246094 -7.97314453 3.70898438 C-7.71720362 -1.38665428 -4.39782573 0.00385388 0 0 Z " fill="#050001" transform="translate(358.84375,773.8671875)"/>
<path d="M0 0 C0.66 0 1.32 0 2 0 C2 0.66 2 1.32 2 2 C214.355 1.505 214.355 1.505 431 1 C430.67 1.66 430.34 2.32 430 3 C425.19884732 3.95505119 420.52247223 4.12521269 415.63853741 4.12584114 C414.57230569 4.1280213 414.57230569 4.1280213 413.48453394 4.13024551 C411.10853855 4.13388773 408.73260804 4.13042734 406.35661316 4.12698364 C404.63353181 4.12813617 402.91045071 4.12972458 401.18737012 4.13171089 C396.45662719 4.13588627 391.72590442 4.13382156 386.99516141 4.13072467 C381.89143129 4.12846347 376.78770465 4.13195382 371.68397522 4.13470459 C361.6865478 4.13915382 351.68912789 4.13818949 341.69170018 4.13529195 C333.56552138 4.13303422 325.43934469 4.132727 317.31316566 4.13381577 C316.15690032 4.133969 315.00063499 4.13412223 313.8093313 4.13428011 C311.46041335 4.13459983 309.1114954 4.13492405 306.76257745 4.1352527 C284.72978512 4.13810511 262.69699694 4.1348244 240.66420529 4.12945233 C221.76238152 4.12498629 202.86056389 4.12575905 183.95874023 4.13037109 C162.00981508 4.13572413 140.06089358 4.13782857 118.11196786 4.13475883 C115.77073912 4.13444028 113.42951038 4.13412591 111.08828163 4.13381577 C109.93635557 4.13366149 108.78442952 4.13350721 107.59759661 4.13334826 C99.48347668 4.13248517 91.36935906 4.13394157 83.25523949 4.13629532 C73.36330626 4.13910167 63.47138098 4.13833745 53.57944866 4.13301457 C48.53321773 4.1303886 43.48700002 4.1293538 38.4407692 4.13266373 C33.81877635 4.13564949 29.19680895 4.13399589 24.57481841 4.12868617 C22.90527825 4.1275717 21.23573594 4.12813161 19.56619718 4.13056196 C-0.23500718 4.15716903 -0.23500718 4.15716903 -5 3 C-5.33 2.34 -5.66 1.68 -6 1 C-4.7934375 1.0309375 -4.7934375 1.0309375 -3.5625 1.0625 C-1.06645115 1.29633621 -1.06645115 1.29633621 0 0 Z " fill="#1C0004" transform="translate(314,710)"/>
<path d="M0 0 C-5.06512025 3.37674683 -10.30627972 3.12532238 -16.26076126 3.12863445 C-16.97282533 3.13038749 -17.68488941 3.13214053 -18.41853118 3.13394669 C-20.80469544 3.13859885 -23.19079855 3.13614323 -25.57696533 3.13371277 C-27.30488534 3.13558111 -29.03280492 3.13788191 -30.76072383 3.14057809 C-35.50916918 3.14669916 -40.25759694 3.14656215 -45.00604534 3.14538372 C-50.12668314 3.1451798 -55.24731527 3.15069746 -60.36795044 3.15544128 C-70.39825563 3.16374903 -80.42855494 3.16649614 -90.45886329 3.16705366 C-98.6070648 3.16752857 -106.75526437 3.16958202 -114.90346527 3.17275429 C-137.98897291 3.18155957 -161.07447589 3.18617362 -184.15998521 3.18542381 C-185.4046315 3.18538386 -186.64927779 3.1853439 -187.93164062 3.18530273 C-189.80087964 3.18524141 -189.80087964 3.18524141 -191.70788106 3.18517885 C-211.9269847 3.18477195 -232.14606975 3.19435293 -252.36516801 3.2084411 C-273.11013659 3.22278212 -293.85509609 3.22971261 -314.60006976 3.22884732 C-326.25339973 3.22851467 -337.90671019 3.23129199 -349.56003571 3.24202538 C-359.4763822 3.25110029 -369.39270033 3.25333039 -379.30904916 3.24651595 C-384.37252475 3.24323604 -389.43594584 3.24324678 -394.49941635 3.2518692 C-399.12783969 3.25967017 -403.75616472 3.2583692 -408.38458547 3.24958507 C-410.0654539 3.24803587 -411.74632944 3.24991887 -413.4271895 3.25544515 C-415.69911589 3.26242434 -417.97068961 3.25727626 -420.2426033 3.24888897 C-421.50837621 3.24910634 -422.77414912 3.24932371 -424.07827878 3.24954766 C-427 3 -427 3 -429 1 C-375.21443074 0.87252287 -321.42886131 0.74512019 -267.64329164 0.61781773 C-261.29702516 0.60279699 -254.95075867 0.58777564 -248.60449219 0.57275391 C-246.70930791 0.56826798 -246.70930791 0.56826798 -244.77583708 0.56369144 C-224.30363436 0.51523203 -203.83143175 0.46672253 -183.35922919 0.41819459 C-162.36130992 0.36842159 -141.36339052 0.31870224 -120.36547101 0.26903296 C-107.403023 0.23836938 -94.4405751 0.20766369 -81.47812732 0.17690456 C-72.59581385 0.15583135 -63.71350026 0.13481013 -54.83118658 0.11383021 C-49.70246834 0.10171469 -44.57375016 0.08957585 -39.44503212 0.07737541 C-34.75204582 0.06621202 -30.05905937 0.05511374 -25.36607279 0.0440678 C-23.66611181 0.04005499 -21.96615089 0.03601804 -20.26619004 0.03195482 C-17.95893842 0.02644357 -15.65168661 0.0210195 -13.34443474 0.01561737 C-12.06173946 0.01257961 -10.77904419 0.00954185 -9.45747936 0.00641203 C-6.3049755 0.00056559 -3.1525082 -0.001211 0 0 Z " fill="#130008" transform="translate(745,662)"/>
<path d="M0 0 C0.66 0 1.32 0 2 0 C2 0.66 2 1.32 2 2 C137.63 2.33 273.26 2.66 413 3 C413 3.33 413 3.66 413 4 C361.19343019 4.02288724 309.38686089 4.04050886 257.58028702 4.05106533 C251.46449472 4.05231604 245.34870244 4.05361036 239.23291016 4.05493164 C237.40658857 4.05532511 237.40658857 4.05532511 235.5433716 4.05572652 C215.82722002 4.06007821 196.11107135 4.06796301 176.3949215 4.0771528 C156.1653914 4.08650325 135.93586283 4.09205857 115.70633066 4.09408849 C103.22295845 4.09546082 90.73959447 4.09979577 78.2562248 4.10791647 C69.6967286 4.11320107 61.13723667 4.11480038 52.57773896 4.11350138 C47.6388946 4.11286069 42.70006464 4.11384516 37.76122284 4.11920547 C33.2370247 4.12407986 28.71285062 4.12431212 24.18865137 4.12089889 C22.55456722 4.12047718 20.92048157 4.12173875 19.28640039 4.12488318 C-0.19228463 4.16017689 -0.19228463 4.16017689 -5 3 C-5.33 2.34 -5.66 1.68 -6 1 C-4.7934375 1.0309375 -4.7934375 1.0309375 -3.5625 1.0625 C-1.06645115 1.29633621 -1.06645115 1.29633621 0 0 Z " fill="#360000" transform="translate(314,710)"/>
<path d="M0 0 C7.92 0 15.84 0 24 0 C24 0.99 24 1.98 24 3 C24.66 3.33 25.32 3.66 26 4 C25.23969482 3.99476318 24.47938965 3.98952637 23.69604492 3.98413086 C20.1932053 3.96312074 16.690379 3.95026426 13.1875 3.9375 C11.99189453 3.92912109 10.79628906 3.92074219 9.56445312 3.91210938 C2.31492441 3.89235589 -4.79538651 4.18206935 -12 5 C-11.67 4.34 -11.34 3.68 -11 3 C-8.49609375 2.3671875 -8.49609375 2.3671875 -5.4375 1.875 C-3.91962891 1.62363281 -3.91962891 1.62363281 -2.37109375 1.3671875 C-1.58863281 1.24601562 -0.80617188 1.12484375 0 1 C0 0.67 0 0.34 0 0 Z " fill="#1B0008" transform="translate(317,444)"/>
<path d="M0 0 C11.22 0 22.44 0 34 0 C33.67 1.65 33.34 3.3 33 5 C32.34 4.67 31.68 4.34 31 4 C31 3.01 31 2.02 31 1 C30.01 1.495 30.01 1.495 29 2 C26.82175039 2.08559118 24.64084745 2.10713412 22.4609375 2.09765625 C21.15898437 2.09443359 19.85703125 2.09121094 18.515625 2.08789062 C17.13541601 2.07953466 15.75520768 2.07106971 14.375 2.0625 C12.98698074 2.05748501 11.59895978 2.0529221 10.2109375 2.04882812 C6.80724868 2.03700976 3.40364561 2.02053434 0 2 C0 1.34 0 0.68 0 0 Z " fill="#1E000E" transform="translate(473,817)"/>
<path d="M0 0 C0 0.66 0 1.32 0 2 C-3.07617188 2.29296875 -3.07617188 2.29296875 -6.15234375 2.5859375 C-6.76207031 2.72257812 -7.37179687 2.85921875 -8 3 C-8.33 3.66 -8.66 4.32 -9 5 C-16.75 5.125 -16.75 5.125 -19 4 C-19.99 3.67 -20.98 3.34 -22 3 C-14.99675741 0.1608476 -7.4798982 -0.08115622 0 0 Z " fill="#1A0008" transform="translate(316,397)"/>
<path d="M0 0 C0.99 0.33 1.98 0.66 3 1 C1.4722133 4.43752007 -0.50181056 7.18953688 -3 10 C-3.66 10 -4.32 10 -5 10 C-5.33 10.99 -5.66 11.98 -6 13 C-6.66 12.67 -7.32 12.34 -8 12 C-8 11.01 -8 10.02 -8 9 C-7.34 9 -6.68 9 -6 9 C-5.67 8.01 -5.34 7.02 -5 6 C-4.34 6 -3.68 6 -3 6 C-3 5.01 -3 4.02 -3 3 C-1.5 1.3125 -1.5 1.3125 0 0 Z " fill="#1E0009" transform="translate(826,664)"/>
<path d="M0 0 C6.44070471 -0.10655578 12.62641289 0.03794912 19 1 C19 1.66 19 2.32 19 3 C16.39521117 3.0809313 13.79293347 3.14045434 11.1875 3.1875 C10.08051758 3.22520508 10.08051758 3.22520508 8.95117188 3.26367188 C3.45025238 3.33834499 3.45025238 3.33834499 0.98828125 1.48828125 C0.66214844 0.99714844 0.33601562 0.50601562 0 0 Z " fill="#20000E" transform="translate(732,463)"/>
<path d="M0 0 C1.25683594 0.04833984 2.51367188 0.09667969 3.80859375 0.14648438 C5.12730469 0.20255859 6.44601562 0.25863281 7.8046875 0.31640625 C9.14451188 0.36963038 10.48435558 0.42237076 11.82421875 0.47460938 C15.10959637 0.60460633 18.39469428 0.73958311 21.6796875 0.87890625 C21.3496875 1.53890625 21.0196875 2.19890625 20.6796875 2.87890625 C16.22140824 2.93673665 11.7632247 2.9724448 7.3046875 3.00390625 C6.03367187 3.02066406 4.76265625 3.03742187 3.453125 3.0546875 C2.24140625 3.06113281 1.0296875 3.06757812 -0.21875 3.07421875 C-1.33942871 3.08469238 -2.46010742 3.09516602 -3.61474609 3.10595703 C-6.3203125 2.87890625 -6.3203125 2.87890625 -8.3203125 0.87890625 C-5.47357495 -0.54446252 -3.17415903 -0.12868212 0 0 Z " fill="#1A000C" transform="translate(590.3203125,858.12109375)"/>
<path d="M0 0 C0.79921875 0.01804687 1.5984375 0.03609375 2.421875 0.0546875 C3.02515625 0.07789063 3.6284375 0.10109375 4.25 0.125 C4.25 0.455 4.25 0.785 4.25 1.125 C6.89 1.785 9.53 2.445 12.25 3.125 C9.16651718 3.8958707 7.19762714 4.24581536 4.140625 4.22265625 C3.38652344 4.21943359 2.63242187 4.21621094 1.85546875 4.21289062 C1.07816406 4.20451172 0.30085937 4.19613281 -0.5 4.1875 C-1.29277344 4.18298828 -2.08554687 4.17847656 -2.90234375 4.17382812 C-4.85159508 4.16208565 -6.80080738 4.14415146 -8.75 4.125 C-8.75 3.465 -8.75 2.805 -8.75 2.125 C-5.68753253 0.34090198 -3.52920727 -0.10380021 0 0 Z " fill="#1D0010" transform="translate(727.75,837.875)"/>
<path d="M0 0 C0.66 0 1.32 0 2 0 C2 0.66 2 1.32 2 2 C8.27 2.33 14.54 2.66 21 3 C21 3.33 21 3.66 21 4 C0.12991443 4.23304066 0.12991443 4.23304066 -5 3 C-5.33 2.34 -5.66 1.68 -6 1 C-4.7934375 1.0309375 -4.7934375 1.0309375 -3.5625 1.0625 C-1.06645115 1.29633621 -1.06645115 1.29633621 0 0 Z " fill="#300011" transform="translate(314,710)"/>
<path d="M0 0 C2.475 0.99 2.475 0.99 5 2 C5 2.66 5 3.32 5 4 C5.99 4 6.98 4 8 4 C8.33 5.32 8.66 6.64 9 8 C9.66 8 10.32 8 11 8 C10.67 9.32 10.34 10.64 10 12 C8.33333333 10.33333333 6.66666667 8.66666667 5 7 C4.071875 6.113125 3.14375 5.22625 2.1875 4.3125 C0 2 0 2 0 0 Z " fill="#130006" transform="translate(782,532)"/>
<path d="M0 0 C1.76923828 0.01353516 1.76923828 0.01353516 3.57421875 0.02734375 C4.47785156 0.03894531 5.38148438 0.05054688 6.3125 0.0625 C5.9825 0.7225 5.6525 1.3825 5.3125 2.0625 C4.56484375 2.01609375 3.8171875 1.9696875 3.046875 1.921875 C-3.06873316 1.50405974 -3.06873316 1.50405974 -8.375 4.0625 C-8.808125 4.7225 -9.24125 5.3825 -9.6875 6.0625 C-9.6875 4.4125 -9.6875 2.7625 -9.6875 1.0625 C-6.26517028 -0.07827657 -3.60076783 -0.03565117 0 0 Z " fill="#130009" transform="translate(589.6875,892.9375)"/>
<path d="M0 0 C4.29 0 8.58 0 13 0 C13.66 1.32 14.32 2.64 15 4 C10.05 3.67 5.1 3.34 0 3 C0 2.01 0 1.02 0 0 Z " fill="#1A000C" transform="translate(724,510)"/>
<path d="M0 0 C0.99 0.33 1.98 0.66 3 1 C3 1.99 3 2.98 3 4 C3.99 4 4.98 4 6 4 C8.27837542 6.27837542 8.96646289 7.50812237 9.1875 10.75 C9.125625 11.4925 9.06375 12.235 9 13 C5.41193683 9.61127367 2.54315201 6.23858668 0 2 C0 1.34 0 0.68 0 0 Z " fill="#180008" transform="translate(511,915)"/>
<path d="M0 0 C-0.99 0.33 -1.98 0.66 -3 1 C-3 1.99 -3 2.98 -3 4 C-4.0725 4.28875 -5.145 4.5775 -6.25 4.875 C-9.09400364 5.72820109 -11.43508983 6.5636503 -14 8 C-11.34673047 4.0200957 -5.21203669 -2.60601835 0 0 Z " fill="#23000A" transform="translate(286,818)"/>
<path d="M0 0 C0.66 0.99 1.32 1.98 2 3 C1.5359375 3.8353125 1.5359375 3.8353125 1.0625 4.6875 C-0.05761821 7.12540433 -0.56037364 9.36224186 -1 12 C-2.32 12.33 -3.64 12.66 -5 13 C-4.54803755 11.39402675 -4.08817673 9.79027492 -3.625 8.1875 C-3.36976563 7.29417969 -3.11453125 6.40085937 -2.8515625 5.48046875 C-2 3 -2 3 0 0 Z " fill="#150008" transform="translate(669,511)"/>
<path d="M0 0 C4.49539759 0.83248103 7.88353642 2.65254395 10.8125 6.1875 C11.204375 6.785625 11.59625 7.38375 12 8 C11.01 8.33 10.02 8.66 9 9 C9 8.01 9 7.02 9 6 C6.3260876 5.10869587 3.76276177 4.52268466 1 4 C0.67 2.68 0.34 1.36 0 0 Z " fill="#130007" transform="translate(246,816)"/>
<path d="M0 0 C-1.125 2 -1.125 2 -3 4 C-6.1875 4.25 -6.1875 4.25 -9 4 C-9 3.01 -9 2.02 -9 1 C-3.375 -1.125 -3.375 -1.125 0 0 Z " fill="#180008" transform="translate(282,404)"/>
<path d="M0 0 C1 3 1 3 0 6 C-2.79899966 9.10159421 -5.22637281 11.25399339 -9 13 C-8.06398754 11.58235006 -7.1261208 10.16592432 -6.1875 8.75 C-5.66542969 7.96109375 -5.14335938 7.1721875 -4.60546875 6.359375 C-3.12865878 4.18907519 -1.59310127 2.08586232 0 0 Z " fill="#35000B" transform="translate(798,622)"/>
<path d="M0 0 C0.33 0 0.66 0 1 0 C1 1.65 1 3.3 1 5 C1.61875 5.0825 2.2375 5.165 2.875 5.25 C5 6 5 6 6.25 8.0625 C6.4975 8.701875 6.745 9.34125 7 10 C6.01 10 5.02 10 4 10 C1.25 7.25 1.25 7.25 -1 4 C-0.8125 1.625 -0.8125 1.625 0 0 Z " fill="#1C000D" transform="translate(925,438)"/>
<path d="M0 0 C0.33 0.66 0.66 1.32 1 2 C-0.375 3.5 -0.375 3.5 -2 5 C-2.66 5 -3.32 5 -4 5 C-4.33 5.99 -4.66 6.98 -5 8 C-5.66 8 -6.32 8 -7 8 C-7.33 8.66 -7.66 9.32 -8 10 C-7.52153935 5.69385411 -6.34073619 3.75119451 -3 1 C-2.01 0.67 -1.02 0.34 0 0 Z " fill="#180007" transform="translate(428,350)"/>
<path d="M0 0 C0.66 0.33 1.32 0.66 2 1 C1.39891424 6.65020618 -0.07528683 11.66164461 -2 17 C-2.66 16.67 -3.32 16.34 -4 16 C-3.67 13.36 -3.34 10.72 -3 8 C-2.01 7.67 -1.02 7.34 0 7 C0 4.69 0 2.38 0 0 Z " fill="#2F0019" transform="translate(1023,648)"/>
<path d="M0 0 C2.97 1.65 5.94 3.3 9 5 C9 5.33 9 5.66 9 6 C7.02 6 5.04 6 3 6 C2.67 5.34 2.34 4.68 2 4 C1.34 4 0.68 4 0 4 C0 2.68 0 1.36 0 0 Z " fill="#120007" transform="translate(794,480)"/>
<path d="M0 0 C0 3.96 0 7.92 0 12 C-0.33 12 -0.66 12 -1 12 C-1.16276042 9.98177083 -1.32552083 7.96354167 -1.48828125 5.9453125 C-1.87393036 3.60480784 -1.87393036 3.60480784 -5 2 C-2 0 -2 0 0 0 Z " fill="#360021" transform="translate(1003,923)"/>
<path d="M0 0 C0.66 0.33 1.32 0.66 2 1 C0.02 5.455 0.02 5.455 -2 10 C-2.33 10 -2.66 10 -3 10 C-3.36923077 4.58461538 -3.36923077 4.58461538 -1.5 1.625 C-1.005 1.08875 -0.51 0.5525 0 0 Z " fill="#1B000C" transform="translate(609,906)"/>
<path d="M0 0 C0.66 0.33 1.32 0.66 2 1 C0.35 2.65 -1.3 4.3 -3 6 C-4.32 5.34 -5.64 4.68 -7 4 C-1.7265625 0.77734375 -1.7265625 0.77734375 0 0 Z " fill="#19000B" transform="translate(217,816)"/>
<path d="M0 0 C1.32 0.33 2.64 0.66 4 1 C4.66 3.97 5.32 6.94 6 10 C5.34 10 4.68 10 4 10 C3.32845067 8.71086513 2.66291141 7.41859796 2 6.125 C1.62875 5.40570312 1.2575 4.68640625 0.875 3.9453125 C0 2 0 2 0 0 Z " fill="#210009" transform="translate(185,628)"/>
<path d="M0 0 C0.33 0.66 0.66 1.32 1 2 C3.52733235 2.65555119 3.52733235 2.65555119 6 3 C6.33 3.99 6.66 4.98 7 6 C3.51460083 5.35455571 0.97180943 3.89865603 -2 2 C-1.34 1.34 -0.68 0.68 0 0 Z " fill="#180008" transform="translate(528,931)"/>
<path d="M0 0 C3.26954202 0.56371414 4.82575883 1.49962266 7 4 C5.1875 4.625 5.1875 4.625 3 5 C2.01 4.34 1.02 3.68 0 3 C0 2.01 0 1.02 0 0 Z " fill="#150006" transform="translate(835,908)"/>
<path d="M0 0 C0.66 0 1.32 0 2 0 C2 0.66 2 1.32 2 2 C2.99 1.67 3.98 1.34 5 1 C5.33 3.64 5.66 6.28 6 9 C2.91910327 6.22719294 1.31224548 3.93673644 0 0 Z " fill="#230013" transform="translate(869,512)"/>
<path d="M0 0 C0 0.66 0 1.32 0 2 C-6.625 5.125 -6.625 5.125 -10 4 C-6.58908673 0.88145073 -4.68377325 -0.53528837 0 0 Z " fill="#1B000B" transform="translate(760,933)"/>
<path d="M0 0 C2.475 0.99 2.475 0.99 5 2 C5.33 4.31 5.66 6.62 6 9 C3.43004926 7.71502463 3.09565537 6.50087627 1.875 3.9375 C1.52179688 3.20402344 1.16859375 2.47054687 0.8046875 1.71484375 C0.53914063 1.14894531 0.27359375 0.58304688 0 0 Z " fill="#27000B" transform="translate(399,826)"/>
<path d="M0 0 C0.33 0.99 0.66 1.98 1 3 C-1.39509338 5.89932357 -3.31245243 6.50168276 -7 7 C-4.66666667 4.66666667 -2.33333333 2.33333333 0 0 Z " fill="#230012" transform="translate(781,643)"/>
<path d="M0 0 C0.33 0.99 0.66 1.98 1 3 C-0.9375 5.6875 -0.9375 5.6875 -3 8 C-3.1875 5.125 -3.1875 5.125 -3 2 C-2.01 1.34 -1.02 0.68 0 0 Z " fill="#1E000D" transform="translate(1000,707)"/>
</svg>
