<?xml version="1.0" encoding="UTF-8"?>
<svg version="1.1" xmlns="http://www.w3.org/2000/svg" width="1200" height="675">
<path d="M0 0 C1.24845292 -0.00260775 2.49690584 -0.00521549 3.78319067 -0.00790226 C5.17107624 -0.00574014 6.55896168 -0.00348348 7.94684696 -0.0011425 C9.41928984 -0.00229435 10.89173244 -0.00388231 12.36417443 -0.00586975 C16.41585358 -0.01005428 20.46750927 -0.0079763 24.51918852 -0.00488353 C28.88667279 -0.00262609 33.25415294 -0.00611078 37.62163639 -0.00886345 C46.18000535 -0.01331654 54.73836555 -0.01234668 63.29673486 -0.00945081 C70.25121289 -0.00719483 77.20568845 -0.0068851 84.16016674 -0.00797462 C85.14898513 -0.00812786 86.13780352 -0.00828109 87.1565861 -0.00843897 C89.16520031 -0.00875868 91.17381452 -0.0090829 93.18242873 -0.00941156 C112.0298882 -0.01226504 130.87734281 -0.00898147 149.72480149 -0.00361119 C165.90388602 0.00085603 182.08296337 0.00008133 198.26204777 -0.00452995 C217.03931565 -0.00987923 235.81657927 -0.01198963 254.59384781 -0.00891769 C256.595487 -0.00859913 258.59712619 -0.00828476 260.59876537 -0.00797462 C262.07612115 -0.00774321 262.07612115 -0.00774321 263.58332251 -0.00750712 C270.53056279 -0.00664298 277.47780038 -0.00810266 284.42504025 -0.01045418 C292.88987538 -0.01325632 301.35470124 -0.01250516 309.81953531 -0.00717343 C314.14008123 -0.00454194 318.46061168 -0.00352206 322.78115749 -0.00682259 C326.73439051 -0.00979687 330.68759367 -0.00817373 334.64082397 -0.00284503 C336.07281589 -0.0017257 337.50481033 -0.00230137 338.93680065 -0.00472082 C340.88016762 -0.00775303 342.82354163 -0.00405081 344.76690674 0 C345.84732111 0.00016235 346.92773548 0.0003247 348.04088968 0.00049198 C350.79169022 0.11916774 353.26630715 0.52092854 355.94637394 1.12584114 C357.61077502 1.33722541 359.27774193 1.52909045 360.94637394 1.70396614 C379.97605519 3.80913961 398.50373308 6.89448253 415.94637394 15.12584114 C416.61588078 15.44005013 417.28538761 15.75425911 417.97518253 16.07798958 C450.86385184 31.81762145 476.07114783 59.32131986 488.42611027 93.68297005 C498.04494381 121.84740247 499.40902755 151.0613476 499.35320699 180.55428994 C499.34840665 184.84286342 499.36104492 189.13139503 499.3712244 193.4199543 C499.38828703 201.7891433 499.38927852 210.15825682 499.3840115 218.52745868 C499.37994398 225.34251188 499.38144372 232.15754304 499.38675976 238.97259521 C499.38750818 239.94842165 499.3882566 240.92424808 499.3890277 241.92964501 C499.39055944 243.91308253 499.39209779 245.89652004 499.39364267 247.87995755 C499.40732307 266.41784843 499.40196216 284.95569695 499.39045746 303.49358683 C499.38053583 320.38112741 499.39345525 337.26855826 499.41739165 354.15608192 C499.44189004 371.57388389 499.45136393 388.99163499 499.44473892 406.40945381 C499.44126965 416.15701071 499.44332501 425.90448343 499.46098995 435.65202713 C499.47584742 443.95208699 499.47617373 452.2520034 499.45891904 460.55206085 C499.45051525 464.77073791 499.44799169 468.98916029 499.46357059 473.2078228 C499.55806655 500.79749107 498.3391614 528.60486524 489.94637394 555.12584114 C489.59349308 556.24224983 489.59349308 556.24224983 489.23348331 557.38121223 C483.62079407 574.48954799 474.23585416 590.93945786 461.94637394 604.12584114 C461.42237003 604.69609016 460.89836613 605.26633919 460.35848331 605.85386848 C432.7341935 635.65616768 397.38295304 648.18167209 357.65731144 651.73130989 C354.01233872 651.98487465 354.01233872 651.98487465 350.94637394 653.12584114 C348.97446502 653.21990104 346.9994687 653.25318652 345.02531815 653.25447559 C343.15872568 653.25931226 343.15872568 653.25931226 341.25442427 653.26424664 C339.86586731 653.26277535 338.47731045 653.26120762 337.0887537 653.25955391 C335.61946311 653.26142115 334.15017301 653.2637215 332.68088371 653.26641923 C328.63292127 653.27255509 324.58497944 653.27240153 320.53701341 653.27122486 C316.17479117 653.27102128 311.81257563 653.27653566 307.45035648 653.28128242 C298.89752163 653.28960082 290.34469367 653.29233786 281.79185512 653.2928948 C274.83647677 653.29336968 267.8811007 653.29542305 260.92572308 653.29859543 C241.20353048 653.30740755 221.48134332 653.31201428 201.75914874 653.31126495 C200.69517866 653.311225 199.63120858 653.31118504 198.53499699 653.31114388 C197.46972575 653.31110299 196.40445451 653.31106211 195.30690233 653.31101999 C178.06384898 653.31061403 160.82081752 653.32016964 143.57777049 653.33428224 C125.87031204 653.34866035 108.16286425 653.35555154 90.45539981 653.35468847 C80.51527026 653.35435685 70.57516362 653.35708811 60.63503933 653.36786652 C52.16603885 653.3769907 43.69707165 653.37913127 35.22806837 653.37235709 C30.91044672 653.36910071 26.59288884 653.36900303 22.27527332 653.37771034 C18.31409972 653.38561618 14.35304001 653.38410256 10.39186905 653.37542621 C8.96708867 653.37390008 7.54229961 653.37567348 6.11752947 653.38128629 C-3.12436114 653.41525053 -11.93903374 652.62632036 -21.05362606 651.12584114 C-23.13248907 650.82375646 -25.21184184 650.52500054 -27.29190731 650.23130989 C-54.53418848 646.18774048 -77.9298446 637.98675091 -100.05362606 621.12584114 C-100.62951473 620.68755989 -101.2054034 620.24927864 -101.79874325 619.79771614 C-108.2361212 614.84186807 -108.2361212 614.84186807 -111.05362606 612.12584114 C-111.05362606 611.46584114 -111.05362606 610.80584114 -111.05362606 610.12584114 C-111.71362606 610.12584114 -112.37362606 610.12584114 -113.05362606 610.12584114 C-113.05362606 609.46584114 -113.05362606 608.80584114 -113.05362606 608.12584114 C-113.71362606 608.12584114 -114.37362606 608.12584114 -115.05362606 608.12584114 C-116.99893856 606.00865364 -116.99893856 606.00865364 -119.17862606 603.25084114 C-119.90307919 602.34591927 -120.62753231 601.44099739 -121.37393856 600.50865364 C-123.05362606 598.12584114 -123.05362606 598.12584114 -123.05362606 596.12584114 C-123.71362606 596.12584114 -124.37362606 596.12584114 -125.05362606 596.12584114 C-126.16348934 594.74327278 -126.16348934 594.74327278 -127.37393856 592.78599739 C-128.04743343 591.69968025 -128.04743343 591.69968025 -128.73453426 590.59141731 C-129.21108456 589.79840218 -129.68763485 589.00538704 -130.17862606 588.18834114 C-130.91568783 586.96304695 -130.91568783 586.96304695 -131.66763973 585.71299934 C-145.16768137 562.90955822 -150.56464253 540.37953642 -153.66812801 514.13585091 C-153.9168772 512.19359076 -154.2141781 510.25664951 -154.56985462 508.33109897 C-155.05621209 505.10870726 -155.17897685 502.0888156 -155.1794672 498.83170605 C-155.18207495 497.58050443 -155.1846827 496.32930281 -155.18736947 495.04018599 C-155.18520761 493.65956296 -155.18295097 492.27894007 -155.1806097 490.89831734 C-155.18176223 489.42557373 -155.18335064 487.95283041 -155.18533695 486.4800877 C-155.18951222 482.43678843 -155.18744768 478.39351276 -155.18435073 474.35021341 C-155.18208952 469.98817941 -155.18557986 465.62614948 -155.18833065 461.26411629 C-155.19277969 452.72005577 -155.19181568 444.17600404 -155.18891801 435.63194317 C-155.18666044 428.68801835 -155.18635299 421.74409599 -155.18744183 414.8001709 C-155.18759506 413.81220094 -155.18774829 412.82423097 -155.18790617 411.80632253 C-155.18822589 409.79932285 -155.1885501 407.79232317 -155.18887876 405.78532349 C-155.19173105 386.96068544 -155.18845053 368.13605226 -155.18307839 349.31141501 C-155.17861128 333.15800188 -155.17938601 317.00459594 -155.18399715 300.85118294 C-155.18934852 282.09585528 -155.19145566 263.3405319 -155.18838489 244.58520359 C-155.18806634 242.58524478 -155.18775197 240.58528596 -155.18744183 238.58532715 C-155.18728755 237.60129469 -155.18713327 236.61726224 -155.18697432 235.60341062 C-155.18611081 228.66810751 -155.18756851 221.73280711 -155.18992138 214.79750443 C-155.19272584 206.34521821 -155.19196746 197.89294128 -155.18664064 189.44065613 C-155.18401227 185.12794957 -155.18298395 180.81525849 -155.18628979 176.50255203 C-155.18927054 172.55422862 -155.18763021 168.60593505 -155.18231224 164.65761434 C-155.18119565 163.22968427 -155.18176242 161.80175168 -155.18418802 160.37382323 C-155.18723472 158.43115637 -155.18350767 156.48848243 -155.1794672 154.54581738 C-155.17930485 153.46724659 -155.1791425 152.38867581 -155.17897522 151.27742106 C-155.04215286 147.83737728 -154.58731253 144.52527841 -154.05362606 141.12584114 C-153.79639109 139.10282412 -153.54249027 137.07938038 -153.29190731 135.05552864 C-149.63319954 106.62878426 -142.51985358 81.28757764 -125.05362606 58.12584114 C-124.07121216 56.6905584 -123.09142153 55.25347042 -122.11612606 53.81334114 C-121.43550106 52.92646614 -120.75487606 52.03959114 -120.05362606 51.12584114 C-119.39362606 51.12584114 -118.73362606 51.12584114 -118.05362606 51.12584114 C-117.80612606 50.56896614 -117.55862606 50.01209114 -117.30362606 49.43834114 C-113.4869955 42.3775746 -107.23375479 37.99648523 -101.05362606 33.12584114 C-100.17964169 32.40138802 -99.30565731 31.67693489 -98.40518856 30.93052864 C-73.93556895 11.36885566 -44.42801567 4.26349952 -13.86221981 1.52037239 C-10.3485081 1.2635603 -10.3485081 1.2635603 -8.19394058 0.60904801 C-5.42357069 -0.01640295 -2.84088043 0.00042696 0 0 Z " fill="#524AED" transform="translate(437.05362606048584,10.87415885925293)"/>
<path d="M0 0 C1.24845292 -0.00260775 2.49690584 -0.00521549 3.78319067 -0.00790226 C5.17107624 -0.00574014 6.55896168 -0.00348348 7.94684696 -0.0011425 C9.41928984 -0.00229435 10.89173244 -0.00388231 12.36417443 -0.00586975 C16.41585358 -0.01005428 20.46750927 -0.0079763 24.51918852 -0.00488353 C28.88667279 -0.00262609 33.25415294 -0.00611078 37.62163639 -0.00886345 C46.18000535 -0.01331654 54.73836555 -0.01234668 63.29673486 -0.00945081 C70.25121289 -0.00719483 77.20568845 -0.0068851 84.16016674 -0.00797462 C85.14898513 -0.00812786 86.13780352 -0.00828109 87.1565861 -0.00843897 C89.16520031 -0.00875868 91.17381452 -0.0090829 93.18242873 -0.00941156 C112.0298882 -0.01226504 130.87734281 -0.00898147 149.72480149 -0.00361119 C165.90388602 0.00085603 182.08296337 0.00008133 198.26204777 -0.00452995 C217.03931565 -0.00987923 235.81657927 -0.01198963 254.59384781 -0.00891769 C256.595487 -0.00859913 258.59712619 -0.00828476 260.59876537 -0.00797462 C262.07612115 -0.00774321 262.07612115 -0.00774321 263.58332251 -0.00750712 C270.53056279 -0.00664298 277.47780038 -0.00810266 284.42504025 -0.01045418 C292.88987538 -0.01325632 301.35470124 -0.01250516 309.81953531 -0.00717343 C314.14008123 -0.00454194 318.46061168 -0.00352206 322.78115749 -0.00682259 C326.73439051 -0.00979687 330.68759367 -0.00817373 334.64082397 -0.00284503 C336.07281589 -0.0017257 337.50481033 -0.00230137 338.93680065 -0.00472082 C340.88016762 -0.00775303 342.82354163 -0.00405081 344.76690674 0 C345.84732111 0.00016235 346.92773548 0.0003247 348.04088968 0.00049198 C350.79169022 0.11916774 353.26630715 0.52092854 355.94637394 1.12584114 C357.61077502 1.33722541 359.27774193 1.52909045 360.94637394 1.70396614 C379.97605519 3.80913961 398.50373308 6.89448253 415.94637394 15.12584114 C416.61588078 15.44005013 417.28538761 15.75425911 417.97518253 16.07798958 C450.86385184 31.81762145 476.07114783 59.32131986 488.42611027 93.68297005 C498.08996714 121.97923305 499.40791281 151.27376853 499.30922985 180.89144802 C499.29816542 185.22660178 499.30477061 189.56173739 499.30901432 193.89689827 C499.31460075 202.35062742 499.30442571 210.80426458 499.28872636 219.25797808 C499.27106554 229.11688734 499.26976463 238.97577953 499.26911077 248.83470213 C499.26742913 266.42200255 499.25168727 284.00926141 499.22762394 301.59654427 C499.20431539 318.64472486 499.19019043 335.69287911 499.18660831 352.74107552 C499.18638555 353.79361735 499.18616278 354.84615919 499.18593326 355.93059623 C499.18549065 358.05113707 499.18504862 360.17167791 499.18460719 362.29221874 C499.18427784 363.86144546 499.18427784 363.86144546 499.18394184 365.46237373 C499.18372585 366.50596831 499.18350987 367.54956289 499.18328734 368.62478155 C499.17958672 384.91038301 499.16823238 401.19598027 499.15581144 417.4815771 C499.15138212 423.37384299 499.14794149 429.26610848 499.14518932 435.15837538 C499.14075548 444.49312292 499.13297377 453.82785484 499.11841491 463.16259253 C499.11181735 467.42491403 499.10674348 471.68722183 499.10595417 475.94954872 C499.10516539 479.8521836 499.09974091 483.7547838 499.09063467 487.65740788 C499.08813359 489.0673195 499.08729041 490.47723526 499.08829346 491.88714874 C499.09221556 498.72065947 499.01525913 505.36886576 497.94637394 512.12584114 C497.61637394 512.12584114 497.28637394 512.12584114 496.94637394 512.12584114 C496.94637394 476.81584114 496.94637394 441.50584114 496.94637394 405.12584114 C495.62637394 405.12584114 494.30637394 405.12584114 492.94637394 405.12584114 C492.94637394 404.46584114 492.94637394 403.80584114 492.94637394 403.12584114 C492.13942081 403.28955208 491.33246769 403.45326302 490.50106144 403.62193489 C486.31868606 404.21482107 482.28692576 404.23478366 478.07137394 404.18834114 C477.28762394 404.18382942 476.50387394 404.1793177 475.69637394 404.17466927 C473.7796738 404.16298207 471.86301345 404.14505022 469.94637394 404.12584114 C470.27637394 403.13584114 470.60637394 402.14584114 470.94637394 401.12584114 C470.53804662 398.88004086 469.96850345 397.17010016 468.94637394 395.12584114 C468.28637394 394.79584114 467.62637394 394.46584114 466.94637394 394.12584114 C464.94637394 391.12584114 464.94637394 391.12584114 465.32137394 388.93834114 C465.52762394 388.34021614 465.73387394 387.74209114 465.94637394 387.12584114 C463.96637394 387.78584114 461.98637394 388.44584114 459.94637394 389.12584114 C459.28637394 388.46584114 458.62637394 387.80584114 457.94637394 387.12584114 C456.95637394 386.79584114 455.96637394 386.46584114 454.94637394 386.12584114 C455.60637394 385.13584114 456.26637394 384.14584114 456.94637394 383.12584114 C457.05178319 380.91502263 457.05178319 380.91502263 455.94637394 378.12584114 C455.20387394 378.33209114 454.46137394 378.53834114 453.69637394 378.75084114 C450.94637394 379.12584114 450.94637394 379.12584114 448.69637394 378.62584114 C446.94637394 377.12584114 446.94637394 377.12584114 446.19637394 373.50084114 C446.07262394 371.83021614 446.07262394 371.83021614 445.94637394 370.12584114 C445.26574894 370.86834114 445.26574894 370.86834114 444.57137394 371.62584114 C442.94637394 373.12584114 442.94637394 373.12584114 440.94637394 373.12584114 C440.28637394 372.13584114 439.62637394 371.14584114 438.94637394 370.12584114 C438.11106144 369.41427864 438.11106144 369.41427864 437.25887394 368.68834114 C436.82574894 368.17271614 436.39262394 367.65709114 435.94637394 367.12584114 C436.38387394 365.06334114 436.38387394 365.06334114 436.94637394 363.12584114 C436.28637394 362.46584114 435.62637394 361.80584114 434.94637394 361.12584114 C433.95637394 361.62084114 433.95637394 361.62084114 432.94637394 362.12584114 C432.20387394 362.04334114 431.46137394 361.96084114 430.69637394 361.87584114 C427.59553454 362.15773563 427.05105673 362.67497086 424.82137394 364.68834114 C423.39824894 365.89490364 423.39824894 365.89490364 421.94637394 367.12584114 C420.95637394 366.79584114 419.96637394 366.46584114 418.94637394 366.12584114 C418.94637394 362.79250781 418.94637394 359.45917447 418.94637394 356.12584114 C417.99762394 356.04334114 417.04887394 355.96084114 416.07137394 355.87584114 C411.17380321 355.16328474 406.19362652 353.68883839 401.94637394 351.12584114 C401.09481144 349.11412239 401.09481144 349.11412239 400.94637394 347.12584114 C401.27637394 346.46584114 401.60637394 345.80584114 401.94637394 345.12584114 C399.30637394 344.79584114 396.66637394 344.46584114 393.94637394 344.12584114 C393.14684256 340.83887881 392.84978458 339.41560922 393.94637394 336.12584114 C393.33116886 336.12584114 392.71596378 336.12584114 392.08211613 336.12584114 C384.03686873 336.12584114 375.99162134 336.12584114 367.94637394 336.12584114 C367.96699894 335.36271614 367.98762394 334.59959114 368.00887394 333.81334114 C368.07580235 331.02398328 368.07580235 331.02398328 366.94637394 328.12584114 C366.61637394 327.13584114 366.28637394 326.14584114 365.94637394 325.12584114 C365.28637394 324.46584114 364.62637394 323.80584114 363.94637394 323.12584114 C363.94637394 322.13584114 363.94637394 321.14584114 363.94637394 320.12584114 C362.95637394 320.12584114 361.96637394 320.12584114 360.94637394 320.12584114 C358.27970727 320.12584114 355.61304061 320.12584114 352.94637394 320.12584114 C352.94637394 319.46584114 352.94637394 318.80584114 352.94637394 318.12584114 C352.28637394 317.79584114 351.62637394 317.46584114 350.94637394 317.12584114 C350.94637394 314.79250781 350.94637394 312.45917447 350.94637394 310.12584114 C347.97637394 310.12584114 345.00637394 310.12584114 341.94637394 310.12584114 C341.61637394 307.81584114 341.28637394 305.50584114 340.94637394 303.12584114 C339.62637394 303.12584114 338.30637394 303.12584114 336.94637394 303.12584114 C336.94637394 302.46584114 336.94637394 301.80584114 336.94637394 301.12584114 C332.82247549 300.23406973 332.82247549 300.23406973 328.69637394 300.68834114 C328.11887394 300.83271614 327.54137394 300.97709114 326.94637394 301.12584114 C326.28637394 300.46584114 325.62637394 299.80584114 324.94637394 299.12584114 C325.60637394 297.47584114 326.26637394 295.82584114 326.94637394 294.12584114 C324.18373105 293.52851295 321.78604625 293.12584114 318.94637394 293.12584114 C318.28637394 293.78584114 317.62637394 294.44584114 316.94637394 295.12584114 C316.94637394 294.46584114 316.94637394 293.80584114 316.94637394 293.12584114 C313.64637394 293.12584114 310.34637394 293.12584114 306.94637394 293.12584114 C306.28637394 291.80584114 305.62637394 290.48584114 304.94637394 289.12584114 C303.1698645 287.59048683 301.31726151 286.24790369 299.40731144 284.88365364 C297.94637394 283.12584114 297.94637394 283.12584114 297.94637394 277.12584114 C293.65637394 276.79584114 289.36637394 276.46584114 284.94637394 276.12584114 C284.61637394 276.78584114 284.28637394 277.44584114 283.94637394 278.12584114 C283.94637394 277.46584114 283.94637394 276.80584114 283.94637394 276.12584114 C282.95637394 276.12584114 281.96637394 276.12584114 280.94637394 276.12584114 C280.61637394 276.78584114 280.28637394 277.44584114 279.94637394 278.12584114 C277.94637394 277.12584114 275.94637394 276.12584114 273.94637394 275.12584114 C274.27637394 273.80584114 274.60637394 272.48584114 274.94637394 271.12584114 C262.07637394 271.12584114 249.20637394 271.12584114 235.94637394 271.12584114 C236.60637394 270.79584114 237.26637394 270.46584114 237.94637394 270.12584114 C237.94637394 269.46584114 237.94637394 268.80584114 237.94637394 268.12584114 C238.60637394 268.12584114 239.26637394 268.12584114 239.94637394 268.12584114 C239.94637394 267.46584114 239.94637394 266.80584114 239.94637394 266.12584114 C233.34637394 266.12584114 226.74637394 266.12584114 219.94637394 266.12584114 C219.94637394 347.63584114 219.94637394 429.14584114 219.94637394 513.12584114 C183.64637394 513.12584114 147.34637394 513.12584114 109.94637394 513.12584114 C109.92131779 505.07016731 109.89626163 497.01449348 109.87044621 488.71470833 C109.78952054 462.91438341 109.70386866 437.11407625 109.615257 411.31377666 C109.60148808 407.30354046 109.58776088 403.29330413 109.57405949 399.2830677 C109.57133118 398.48473067 109.56860288 397.68639364 109.5657919 396.86386457 C109.52176473 383.9518593 109.48111464 371.0398455 109.44172133 358.12782535 C109.40119887 344.87044892 109.35702696 331.61308824 109.30949539 318.35573506 C109.2803004 310.18091676 109.25392286 302.00609948 109.23119497 293.83126059 C109.21531826 288.21894474 109.19588397 282.60664808 109.17370553 276.99435362 C109.16102967 273.76054159 109.15040009 270.52674613 109.14295483 267.29291725 C109.13461085 263.77631635 109.12031209 260.25978634 109.10459232 256.74321175 C109.10361422 255.7353917 109.10263611 254.72757165 109.10162836 253.68921161 C109.06729827 247.68511525 108.72978626 241.77112864 108.15345806 235.79407811 C107.9628286 233.33785606 107.94358438 230.9614335 108.00887394 228.50084114 C108.33546148 225.05233319 108.33546148 225.05233319 105.94637394 223.12584114 C105.86118511 219.72199196 105.95312941 216.37790837 106.11238956 212.97935677 C106.34778132 208.82299731 106.34778132 208.82299731 104.42293644 205.32115364 C103.93567081 204.92670052 103.44840519 204.53224739 102.94637394 204.12584114 C103.25887394 200.93834114 103.25887394 200.93834114 103.94637394 198.12584114 C102.95637394 198.45584114 101.96637394 198.78584114 100.94637394 199.12584114 C98.94637394 199.12584114 96.94637394 199.12584114 94.94637394 199.12584114 C95.28668644 198.04302864 95.28668644 198.04302864 95.63387394 196.93834114 C96.03420971 193.33531917 95.08552511 191.97804269 92.94637394 189.12584114 C92.28637394 188.79584114 91.62637394 188.46584114 90.94637394 188.12584114 C90.32137394 185.06334114 90.32137394 185.06334114 89.94637394 182.12584114 C88.62637394 182.12584114 87.30637394 182.12584114 85.94637394 182.12584114 C83.61304061 182.12584114 81.27970727 182.12584114 78.94637394 182.12584114 C76.94637394 175.37584114 76.94637394 175.37584114 76.94637394 173.12584114 C76.32762394 173.31146614 75.70887394 173.49709114 75.07137394 173.68834114 C72.94637394 174.12584114 72.94637394 174.12584114 70.94637394 173.12584114 C70.61637394 203.48584114 70.28637394 233.84584114 69.94637394 265.12584114 C34.96637394 265.12584114 -0.01362606 265.12584114 -36.05362606 265.12584114 C-36.05362606 234.76584114 -36.05362606 204.40584114 -36.05362606 173.12584114 C-11.63362606 172.79584114 12.78637394 172.46584114 37.94637394 172.12584114 C37.61637394 170.80584114 37.28637394 169.48584114 36.94637394 168.12584114 C39.94637394 166.12584114 39.94637394 166.12584114 41.94637394 166.12584114 C43.36610796 163.47567096 44.30466098 161.05938612 44.94637394 158.12584114 C45.5260116 155.73483581 46.16638018 153.46582242 46.94637394 151.12584114 C46.28637394 150.79584114 45.62637394 150.46584114 44.94637394 150.12584114 C45.27637394 148.80584114 45.60637394 147.48584114 45.94637394 146.12584114 C42.2630821 147.66768424 39.77264522 149.08609957 37.38387394 152.25084114 C34.94637394 155.12584114 34.94637394 155.12584114 32.13387394 156.00084114 C31.41199894 156.04209114 30.69012394 156.08334114 29.94637394 156.12584114 C28.82137394 153.87584114 28.82137394 153.87584114 27.94637394 151.12584114 C28.82137394 148.81334114 28.82137394 148.81334114 29.94637394 147.12584114 C30.60637394 147.12584114 31.26637394 147.12584114 31.94637394 147.12584114 C31.48814926 143.65642568 31.05505711 140.45189065 29.94637394 137.12584114 C27.47137394 138.11584114 27.47137394 138.11584114 24.94637394 139.12584114 C24.51324894 138.63084114 24.08012394 138.13584114 23.63387394 137.62584114 C21.94896911 135.79365922 21.94896911 135.79365922 18.94637394 136.12584114 C18.61637394 137.11584114 18.28637394 138.10584114 17.94637394 139.12584114 C15.30637394 139.12584114 12.66637394 139.12584114 9.94637394 139.12584114 C10.21449894 138.56896614 10.48262394 138.01209114 10.75887394 137.43834114 C10.82074894 136.67521614 10.88262394 135.91209114 10.94637394 135.12584114 C9.73981144 134.01209114 9.73981144 134.01209114 8.50887394 132.87584114 C5.7610641 129.92697204 5.59413414 129.56875256 5.63387394 125.81334114 C5.78856144 123.98802864 5.78856144 123.98802864 5.94637394 122.12584114 C5.71949894 122.72396614 5.49262394 123.32209114 5.25887394 123.93834114 C3.59028352 126.71932518 1.81799074 127.69003274 -1.05362606 129.12584114 C-1.71362606 129.12584114 -2.37362606 129.12584114 -3.05362606 129.12584114 C-3.38362606 129.78584114 -3.71362606 130.44584114 -4.05362606 131.12584114 C-5.04362606 130.79584114 -6.03362606 130.46584114 -7.05362606 130.12584114 C-6.77518856 128.73365364 -6.77518856 128.73365364 -6.49112606 127.31334114 C-5.81238725 124.11240344 -5.81238725 124.11240344 -7.05362606 121.12584114 C-7.79612606 121.51771614 -8.53862606 121.90959114 -9.30362606 122.31334114 C-10.66487606 122.71552864 -10.66487606 122.71552864 -12.05362606 123.12584114 C-14.36612606 121.75084114 -14.36612606 121.75084114 -16.05362606 120.12584114 C-15.72362606 118.47584114 -15.39362606 116.82584114 -15.05362606 115.12584114 C-17.81626895 114.52851295 -20.21395375 114.12584114 -23.05362606 114.12584114 C-25.19153087 112.23945455 -26.77506694 110.68295938 -28.05362606 108.12584114 C-28.71362606 108.12584114 -29.37362606 108.12584114 -30.05362606 108.12584114 C-30.05362606 108.78584114 -30.05362606 109.44584114 -30.05362606 110.12584114 C-29.39362606 110.45584114 -28.73362606 110.78584114 -28.05362606 111.12584114 C-31.05362606 111.12584114 -31.05362606 111.12584114 -33.05362606 110.12584114 C-32.06362606 108.14584114 -32.06362606 108.14584114 -31.05362606 106.12584114 C-32.53862606 105.63084114 -32.53862606 105.63084114 -34.05362606 105.12584114 C-34.74112606 103.06334114 -34.74112606 103.06334114 -35.05362606 101.12584114 C-36.04362606 101.12584114 -37.03362606 101.12584114 -38.05362606 101.12584114 C-39.05362606 99.45917447 -40.05362606 97.79250781 -41.05362606 96.12584114 C-42.04362606 96.12584114 -43.03362606 96.12584114 -44.05362606 96.12584114 C-44.71362606 95.46584114 -45.37362606 94.80584114 -46.05362606 94.12584114 C-47.04362606 94.12584114 -48.03362606 94.12584114 -49.05362606 94.12584114 C-49.71362606 93.13584114 -50.37362606 92.14584114 -51.05362606 91.12584114 C-50.06362606 89.64084114 -50.06362606 89.64084114 -49.05362606 88.12584114 C-49.65175106 88.31146614 -50.24987606 88.49709114 -50.86612606 88.68834114 C-53.05362606 89.12584114 -53.05362606 89.12584114 -56.05362606 88.12584114 C-57.29229767 85.51086775 -58.13866589 82.87072165 -59.05362606 80.12584114 C-60.70362606 80.12584114 -62.35362606 80.12584114 -64.05362606 80.12584114 C-64.38362606 80.78584114 -64.71362606 81.44584114 -65.05362606 82.12584114 C-66.53862606 82.62084114 -66.53862606 82.62084114 -68.05362606 83.12584114 C-67.72362606 84.44584114 -67.39362606 85.76584114 -67.05362606 87.12584114 C-69.36612606 87.81334114 -69.36612606 87.81334114 -72.05362606 88.12584114 C-73.86612606 86.68834114 -73.86612606 86.68834114 -75.05362606 85.12584114 C-73.98603265 82.82640918 -73.04673014 81.11845266 -71.30362606 79.25084114 C-69.67088056 77.04322037 -69.67088056 77.04322037 -70.86612606 73.87584114 C-71.45393856 72.51459114 -71.45393856 72.51459114 -72.05362606 71.12584114 C-72.88893856 71.43521614 -72.88893856 71.43521614 -73.74112606 71.75084114 C-76.71492288 72.23307846 -78.29310945 71.23004778 -81.05362606 70.12584114 C-83.16183403 70.44435884 -83.16183403 70.44435884 -85.05362606 71.12584114 C-86.04362606 71.12584114 -87.03362606 71.12584114 -88.05362606 71.12584114 C-88.05362606 68.48584114 -88.05362606 65.84584114 -88.05362606 63.12584114 C-89.04362606 63.12584114 -90.03362606 63.12584114 -91.05362606 63.12584114 C-91.38362606 62.46584114 -91.71362606 61.80584114 -92.05362606 61.12584114 C-93.04362606 61.12584114 -94.03362606 61.12584114 -95.05362606 61.12584114 C-97.05362606 57.37584114 -97.05362606 57.37584114 -97.05362606 55.12584114 C-98.04362606 54.63084114 -98.04362606 54.63084114 -99.05362606 54.12584114 C-99.28050106 54.72396614 -99.50737606 55.32209114 -99.74112606 55.93834114 C-101.40971648 58.71932518 -103.18200926 59.69003274 -106.05362606 61.12584114 C-106.71362606 61.12584114 -107.37362606 61.12584114 -108.05362606 61.12584114 C-108.38362606 61.78584114 -108.71362606 62.44584114 -109.05362606 63.12584114 C-109.89816962 59.74766689 -110.16207525 57.45118871 -109.05362606 54.12584114 C-110.04362606 53.46584114 -111.03362606 52.80584114 -112.05362606 52.12584114 C-112.38362606 52.78584114 -112.71362606 53.44584114 -113.05362606 54.12584114 C-114.37362606 54.12584114 -115.69362606 54.12584114 -117.05362606 54.12584114 C-123.32467391 57.72182662 -127.21428089 64.2209516 -131.05362606 70.12584114 C-131.38362606 69.46584114 -131.71362606 68.80584114 -132.05362606 68.12584114 C-131.35495419 67.15002083 -130.65628231 66.17420052 -129.93643856 65.16880989 C-129.01714258 63.88367163 -128.09787313 62.59851439 -127.17862606 61.31334114 C-126.71843075 60.67074348 -126.25823544 60.02814583 -125.78409481 59.36607552 C-125.33936825 58.74410286 -124.89464169 58.1221302 -124.43643856 57.48130989 C-124.02796688 56.9104969 -123.6194952 56.33968391 -123.19864559 55.75157356 C-122.12499774 54.22717675 -121.08788616 52.67723129 -120.05362606 51.12584114 C-119.39362606 51.12584114 -118.73362606 51.12584114 -118.05362606 51.12584114 C-117.80612606 50.56896614 -117.55862606 50.01209114 -117.30362606 49.43834114 C-113.4869955 42.3775746 -107.23375479 37.99648523 -101.05362606 33.12584114 C-100.17964169 32.40138802 -99.30565731 31.67693489 -98.40518856 30.93052864 C-73.93556895 11.36885566 -44.42801567 4.26349952 -13.86221981 1.52037239 C-10.3485081 1.2635603 -10.3485081 1.2635603 -8.19394058 0.60904801 C-5.42357069 -0.01640295 -2.84088043 0.00042696 0 0 Z M-76.05362606 68.12584114 C-75.05362606 70.12584114 -75.05362606 70.12584114 -75.05362606 70.12584114 Z M-27.05362606 105.12584114 C-27.05362606 105.78584114 -27.05362606 106.44584114 -27.05362606 107.12584114 C-26.39362606 106.79584114 -25.73362606 106.46584114 -25.05362606 106.12584114 C-25.71362606 105.79584114 -26.37362606 105.46584114 -27.05362606 105.12584114 Z " fill="#4C58ED" transform="translate(437.05362606048584,10.87415885925293)"/>
<path d="M0 0 C83.82 0 167.64 0 254 0 C254 30.03 254 60.06 254 91 C205.82 91 157.64 91 108 91 C108 172.51 108 254.02 108 338 C72.36 338 36.72 338 0 338 C0 226.46 0 114.92 0 0 Z " fill="#FEFEFE" transform="translate(548,185)"/>
<path d="M0 0 C0.99 -0.33 1.98 -0.66 3 -1 C3.99 -0.67 4.98 -0.34 6 0 C6.66 -0.165 7.32 -0.33 8 -0.5 C10 -1 10 -1 13 0 C13.99 -0.33 14.98 -0.66 16 -1 C16.99 -0.67 17.98 -0.34 19 0 C19.66 -0.165 20.32 -0.33 21 -0.5 C23 -1 23 -1 26 0 C26.99 -0.33 27.98 -0.66 29 -1 C29.99 -0.67 30.98 -0.34 32 0 C32.99 -0.33 33.98 -0.66 35 -1 C35.99 -0.67 36.98 -0.34 38 0 C38.99 -0.33 39.98 -0.66 41 -1 C41.99 -0.67 42.98 -0.34 44 0 C44.99 -0.33 45.98 -0.66 47 -1 C47.99 -0.67 48.98 -0.34 50 0 C50.99 -0.33 51.98 -0.66 53 -1 C53.99 -0.67 54.98 -0.34 56 0 C56.99 -0.33 57.98 -0.66 59 -1 C59.99 -0.67 60.98 -0.34 62 0 C62.99 -0.33 63.98 -0.66 65 -1 C67 1 67 1 67.125 3.9375 C67.08375 4.948125 67.0425 5.95875 67 7 C67 9.78822789 67.01011565 12.57629013 67.0222168 15.36448669 C67.0593252 23.92421779 67.08535132 32.48394095 67.10362434 41.04373264 C67.11409032 45.78301735 67.12831011 50.52223086 67.15087891 55.26147461 C67.17255378 59.84255107 67.18455631 64.42355878 67.18975449 69.00468254 C67.19345747 70.753052 67.20068822 72.50141757 67.21146011 74.24975777 C67.22590559 76.68945706 67.22798097 79.12886858 67.22705078 81.56860352 C67.23424133 82.29540817 67.24143188 83.02221283 67.24884033 83.77104187 C67.22810693 88.77189307 67.22810693 88.77189307 65 91 C63.18213654 91.24888897 63.18213654 91.24888897 60.93859863 91.24723816 C60.08891006 91.25143265 59.2392215 91.25562714 58.36378479 91.25994873 C56.96264687 91.25151947 56.96264687 91.25151947 55.53320312 91.24291992 C54.05991798 91.24576744 54.05991798 91.24576744 52.55686951 91.24867249 C49.29824942 91.25238833 46.0398504 91.24166451 42.78125 91.23046875 C40.52445502 91.22927729 38.26765954 91.22882372 36.01086426 91.2290802 C31.27625433 91.22751393 26.54171986 91.21921334 21.80712891 91.20581055 C15.72704281 91.18882053 9.64703973 91.18499613 3.56693268 91.18575573 C-1.09463295 91.18548427 -5.7561803 91.18000689 -10.41773987 91.17275429 C-12.66011924 91.16956387 -14.90250069 91.16759935 -17.1448822 91.16686058 C-20.27435868 91.16470097 -23.40374574 91.15596489 -26.53320312 91.14526367 C-27.93434105 91.14594345 -27.93434105 91.14594345 -29.36378479 91.14663696 C-30.21347336 91.14237198 -31.06316193 91.13810699 -31.93859863 91.13371277 C-33.04914989 91.131199 -33.04914989 91.131199 -34.18213654 91.12863445 C-36 91 -36 91 -38 90 C-38 60.63 -38 31.26 -38 1 C-34.05379774 0.21075955 -31.09123187 -0.1081474 -27.1484375 -0.0625 C-26.05015625 -0.05476563 -24.951875 -0.04703125 -23.8203125 -0.0390625 C-22.68335938 -0.02617187 -21.54640625 -0.01328125 -20.375 0 C-18.11202676 0.02548393 -15.84899785 0.04652546 -13.5859375 0.0625 C-12.08619385 0.07990234 -12.08619385 0.07990234 -10.55615234 0.09765625 C-1.28307939 -0.25661588 -1.28307939 -0.25661588 0 0 Z " fill="#2FCEB6" transform="translate(735,433)"/>
<path d="M0 0 C34.32 0 68.64 0 104 0 C104 30.03 104 60.06 104 91 C69.68 91 35.36 91 0 91 C0 60.97 0 30.94 0 0 Z " fill="#FEFEFE" transform="translate(402,185)"/>
<path d="M0 0 C0.495 0.99 0.495 0.99 1 2 C4.3 1.34 7.6 0.68 11 0 C10.67 1.32 10.34 2.64 10 4 C10.845625 3.649375 11.69125 3.29875 12.5625 2.9375 C16.53577075 1.8538807 19.03351162 1.93209928 23 3 C24.3125 4.875 24.3125 4.875 25 7 C25.99 8.485 25.99 8.485 27 10 C27 10.99 27 11.98 27 13 C27.495 13.99 27.495 13.99 28 15 C28.99 14.67 29.98 14.34 31 14 C30.34 15.32 29.68 16.64 29 18 C30.32 18 31.64 18 33 18 C36.66666667 18 40.33333333 18 44 18 C44.99 17.896875 45.98 17.79375 47 17.6875 C47.99 17.790625 48.98 17.89375 50 18 C52.31141604 20.85074644 53 22.3139451 53 26 C53.89335797 28.35785318 53.89335797 28.35785318 57.0625 29.125 C58.031875 29.41375 59.00125 29.7025 60 30 C60 33 60 33 59 35 C59.86625 34.79375 60.7325 34.5875 61.625 34.375 C65.44875246 33.95013862 67.54160458 34.34940219 71 36 C72.83798629 38.6256947 73.20431021 40.81724084 74 44 C150.23 44 226.46 44 305 44 C305 44.33 305 44.66 305 45 C221.18 45 137.36 45 51 45 C51 156.54 51 268.08 51 383 C86.64 383 122.28 383 159 383 C159 301.49 159 219.98 159 136 C207.18 136 255.36 136 305 136 C305 136.33 305 136.66 305 137 C257.15 137 209.3 137 160 137 C160 218.51 160 300.02 160 384 C123.7 384 87.4 384 50 384 C49.97494385 375.94432617 49.9498877 367.88865234 49.92407227 359.58886719 C49.8431466 333.78854227 49.75749472 307.98823511 49.66888306 282.18793552 C49.65511414 278.17769932 49.64138694 274.16746299 49.62768555 270.15722656 C49.62495724 269.35888953 49.62222894 268.5605525 49.61941796 267.73802343 C49.57539079 254.82601816 49.5347407 241.91400436 49.49534739 229.00198421 C49.45482493 215.74460778 49.41065302 202.48724709 49.36312145 189.22989392 C49.33392646 181.05507562 49.30754892 172.88025833 49.28482103 164.70541945 C49.26894432 159.0931036 49.24951003 153.48080694 49.22733159 147.86851248 C49.21465573 144.63470044 49.20402615 141.40090499 49.19658089 138.16707611 C49.18823691 134.65047521 49.17393815 131.1339452 49.15821838 127.61737061 C49.15724028 126.60955056 49.15626217 125.60173051 49.15525442 124.56337047 C49.12092433 118.5592741 48.78341232 112.6452875 48.20708412 106.66823697 C48.01645466 104.21201492 47.99721044 101.83559236 48.0625 99.375 C48.38908754 95.92649205 48.38908754 95.92649205 46 94 C45.91481117 90.59615082 46.00675547 87.25206723 46.16601562 83.85351562 C46.40140738 79.69715617 46.40140738 79.69715617 44.4765625 76.1953125 C43.98929688 75.80085938 43.50203125 75.40640625 43 75 C43.3125 71.8125 43.3125 71.8125 44 69 C43.01 69.33 42.02 69.66 41 70 C39 70 37 70 35 70 C35.3403125 68.9171875 35.3403125 68.9171875 35.6875 67.8125 C36.08783577 64.20947803 35.13915117 62.85220155 33 60 C32.34 59.67 31.68 59.34 31 59 C30.375 55.9375 30.375 55.9375 30 53 C28.68 53 27.36 53 26 53 C23.66666667 53 21.33333333 53 19 53 C17 46.25 17 46.25 17 44 C16.071875 44.2784375 16.071875 44.2784375 15.125 44.5625 C13 45 13 45 11 44 C10.67 74.36 10.34 104.72 10 136 C9.67 136 9.34 136 9 136 C9 105.97 9 75.94 9 45 C-25.32 45 -59.64 45 -95 45 C-95 75.03 -95 105.06 -95 136 C-95.33 136 -95.66 136 -96 136 C-96 105.64 -96 75.28 -96 44 C-71.58 43.67 -47.16 43.34 -22 43 C-22.495 41.02 -22.495 41.02 -23 39 C-20 37 -20 37 -18 37 C-16.58026597 34.34982982 -15.64171296 31.93354498 -15 29 C-14.42036234 26.60899466 -13.77999376 24.33998128 -13 22 C-13.66 21.67 -14.32 21.34 -15 21 C-15 19.02 -15 17.04 -15 15 C-12.92446352 14.4465236 -11.15634036 14 -9 14 C-7.40861915 9.82262526 -6.78721942 6.46839215 -7 2 C-5.0625 2.375 -5.0625 2.375 -3 3 C-2.505 3.99 -2.505 3.99 -2 5 C-2 4.01 -2 3.02 -2 2 C-1.34 2 -0.68 2 0 2 C0 1.34 0 0.68 0 0 Z " fill="#6869EE" transform="translate(497,140)"/>
<path d="M0 0 C0.99 0.99 1.98 1.98 3 3 C3.99 2.67 4.98 2.34 6 2 C6.33 1.34 6.66 0.68 7 0 C7.99 2.475 7.99 2.475 9 5 C10.93798263 2.22739701 10.93798263 2.22739701 12 0 C14.875 0.6875 14.875 0.6875 18 2 C19.7923557 5.15796004 20.38944338 8.43841972 21 12 C19.68 12.66 18.36 13.32 17 14 C16.67 44.36 16.34 74.72 16 106 C15.67 106 15.34 106 15 106 C15 75.97 15 45.94 15 15 C-19.32 15 -53.64 15 -89 15 C-89 45.03 -89 75.06 -89 106 C-89.33 106 -89.66 106 -90 106 C-90 75.64 -90 45.28 -90 14 C-65.58 13.67 -41.16 13.34 -16 13 C-16.495 11.02 -16.495 11.02 -17 9 C-14 7 -14 7 -12 7 C-8.98841175 5.91891704 -6.68225182 4.78816788 -4 3 C-3.34 3 -2.68 3 -2 3 C-1.67 2.34 -1.34 1.68 -1 1 C-0.67 0.67 -0.34 0.34 0 0 Z " fill="#7675EE" transform="translate(491,170)"/>
<path d="M0 0 C33.33 0 66.66 0 101 0 C100.67 0.99 100.34 1.98 100 3 C99.01 2.67 98.02 2.34 97 2 C96.01 2.33 95.02 2.66 94 3 C93.01 2.67 92.02 2.34 91 2 C90.01 2.33 89.02 2.66 88 3 C87.01 2.67 86.02 2.34 85 2 C84.01 2.33 83.02 2.66 82 3 C81.01 2.67 80.02 2.34 79 2 C78.01 2.33 77.02 2.66 76 3 C75.01 2.67 74.02 2.34 73 2 C72.01 2.33 71.02 2.66 70 3 C69.01 2.67 68.02 2.34 67 2 C66.01 2.33 65.02 2.66 64 3 C63.01 2.67 62.02 2.34 61 2 C60.34 2.165 59.68 2.33 59 2.5 C57 3 57 3 54 2 C53.01 2.33 52.02 2.66 51 3 C50.01 2.67 49.02 2.34 48 2 C47.34 2.165 46.68 2.33 46 2.5 C44 3 44 3 41 2 C40.01 2.33 39.02 2.66 38 3 C36.68 2.67 35.36 2.34 34 2 C29.545 2.495 29.545 2.495 25 3 C17.08 3 9.16 3 1 3 C1 32.37 1 61.74 1 92 C29.05 92 57.1 92 86 92 C86 92.99 86 93.98 86 95 C75.3949001 95.0463488 64.78982432 95.08188219 54.18464375 95.10362434 C49.26018508 95.11405969 44.33579573 95.12821443 39.41137695 95.15087891 C34.6586813 95.17261604 29.90605231 95.1845705 25.15331078 95.18975449 C23.34043516 95.19344867 21.52756318 95.20066246 19.71471596 95.21146011 C17.17472078 95.22598656 14.63500077 95.22797746 12.0949707 95.22705078 C11.34618652 95.23424133 10.59740234 95.24143188 9.82592773 95.24884033 C5.77220836 95.23284656 2.64855647 94.80374371 -1 93 C-1.02315752 81.46492819 -1.04093253 69.92986189 -1.05181217 58.39477158 C-1.05703351 53.03872609 -1.06411763 47.6826965 -1.07543945 42.32666016 C-1.08629485 37.15900771 -1.09228249 31.99137055 -1.09487724 26.82370758 C-1.09672669 24.85092172 -1.10033813 22.87813672 -1.10573006 20.90535736 C-1.11297563 18.14489423 -1.11398945 15.38449453 -1.11352539 12.62402344 C-1.11712067 11.80618881 -1.12071594 10.98835419 -1.12442017 10.14573669 C-1.11781832 6.522919 -0.88516597 3.54066388 0 0 Z " fill="#4B5BEC" transform="translate(696,431)"/>
<path d="M0 0 C2.32443169 1.7874151 2.95373216 2.66985852 3.36749268 5.6222229 C3.36384705 6.67710907 3.36020142 7.73199524 3.35644531 8.81884766 C3.35944641 10.0192569 3.36244751 11.21966614 3.36553955 12.45645142 C3.35319275 13.76246307 3.34084595 15.06847473 3.328125 16.4140625 C3.3250597 17.78477774 3.32318945 19.15549613 3.32244873 20.5262146 C3.31783549 23.41652181 3.30340538 26.30655208 3.28125 29.19677734 C3.25354482 32.82157109 3.24220742 36.44614478 3.23740387 40.07103348 C3.21776621 53.86910967 3.08023194 67.66848636 2.671875 81.4609375 C2.65038391 82.5079483 2.62889282 83.55495911 2.60675049 84.63369751 C2.57248962 85.58263885 2.53822876 86.5315802 2.50292969 87.50927734 C2.47833679 88.33374359 2.4537439 89.15820984 2.42840576 90.00765991 C2 92 2 92 -1 94 C-3.48046875 94.1953125 -3.48046875 94.1953125 -6.1875 94.125 C-7.08855469 94.10695313 -7.98960937 94.08890625 -8.91796875 94.0703125 C-9.60503906 94.04710937 -10.29210937 94.02390625 -11 94 C-11 93.01 -11 92.02 -11 91 C-8.03 91 -5.06 91 -2 91 C-0.94275083 86.7005157 -0.87101107 82.5354489 -0.90234375 78.13623047 C-0.90380402 77.36003357 -0.90526428 76.58383667 -0.9067688 75.78411865 C-0.91056347 74.10519648 -0.91666803 72.42627827 -0.92483521 70.74737167 C-0.93762442 68.09134876 -0.94412066 65.43537591 -0.94897461 62.77932739 C-0.96038765 57.14452908 -0.9796397 51.50977216 -1 45.875 C-1.02358765 39.33816956 -1.04397568 32.8013626 -1.05593872 26.26449966 C-1.06242875 23.64593615 -1.07493466 21.02744468 -1.08764648 18.40890503 C-1.0912782 16.80759748 -1.09463003 15.20628927 -1.09765625 13.60498047 C-1.10282257 12.87556244 -1.10798889 12.14614441 -1.11331177 11.3946228 C-1.11363602 8.31278045 -0.98293848 5.94881543 0 3 C-0.66 2.67 -1.32 2.34 -2 2 C-1.34 2 -0.68 2 0 2 C0 1.34 0 0.68 0 0 Z " fill="#5163EC" transform="translate(802,432)"/>
<path d="M0 0 C31.68 0 63.36 0 96 0 C95.67 0.99 95.34 1.98 95 3 C94.01 2.67 93.02 2.34 92 2 C91.01 2.33 90.02 2.66 89 3 C88.01 2.67 87.02 2.34 86 2 C85.01 2.33 84.02 2.66 83 3 C82.01 2.67 81.02 2.34 80 2 C79.01 2.33 78.02 2.66 77 3 C76.01 2.67 75.02 2.34 74 2 C73.01 2.33 72.02 2.66 71 3 C70.01 2.67 69.02 2.34 68 2 C67.01 2.33 66.02 2.66 65 3 C64.01 2.67 63.02 2.34 62 2 C61.01 2.33 60.02 2.66 59 3 C58.01 2.67 57.02 2.34 56 2 C55.34 2.165 54.68 2.33 54 2.5 C52 3 52 3 49 2 C48.01 2.33 47.02 2.66 46 3 C45.01 2.67 44.02 2.34 43 2 C42.34 2.165 41.68 2.33 41 2.5 C39 3 39 3 36 2 C35.01 2.33 34.02 2.66 33 3 C31.66373031 2.67864006 30.33050594 2.3444457 29 2 C26.98666106 2.09089109 26.98666106 2.09089109 24.91015625 2.43359375 C19.73618611 3.09425852 14.64679407 3.11218512 9.4375 3.0625 C8.52419922 3.05798828 7.61089844 3.05347656 6.66992188 3.04882812 C4.44654262 3.0371874 2.22330879 3.02083851 0 3 C0 2.01 0 1.02 0 0 Z " fill="#4668E8" transform="translate(701,431)"/>
<path d="M0 0 C0 0.66 0 1.32 0 2 C-0.928125 2.37125 -1.85625 2.7425 -2.8125 3.125 C-6.19889034 4.72274455 -6.19889034 4.72274455 -7.4375 7.9375 C-9.57783847 12.13256341 -11.84727708 12.88588652 -16 15 C-16.66 15.66 -17.32 16.32 -18 17 C-18.66 17 -19.32 17 -20 17 C-20 16.34 -20 15.68 -20 15 C-22.97 15.66 -25.94 16.32 -29 17 C-25.12997243 12.73014502 -21.11584064 10.0963905 -16.0625 7.375 C-15.02706055 6.80265625 -15.02706055 6.80265625 -13.97070312 6.21875 C-2.65901131 0 -2.65901131 0 0 0 Z " fill="#565AE8" transform="translate(369,25)"/>
<path d="M0 0 C0.66 0.33 1.32 0.66 2 1 C2.625 3.0625 2.625 3.0625 3 5 C2.01 5.495 2.01 5.495 1 6 C0.34 5.67 -0.32 5.34 -1 5 C-0.67 6.65 -0.34 8.3 0 10 C-1.485 10.4640625 -1.485 10.4640625 -3 10.9375 C-10.20567068 14.00685262 -15.00924271 21.51501941 -19 28 C-19.33 27.34 -19.66 26.68 -20 26 C-19.30132812 25.02417969 -18.60265625 24.04835938 -17.8828125 23.04296875 C-16.96351652 21.75783049 -16.04424707 20.47267325 -15.125 19.1875 C-14.66480469 18.54490234 -14.20460938 17.90230469 -13.73046875 17.24023438 C-13.28574219 16.61826172 -12.84101563 15.99628906 -12.3828125 15.35546875 C-11.97434082 14.78465576 -11.56586914 14.21384277 -11.14501953 13.62573242 C-10.07137168 12.10133561 -9.0342601 10.55139015 -8 9 C-7.34 9 -6.68 9 -6 9 C-5.7525 8.443125 -5.505 7.88625 -5.25 7.3125 C-3.78393985 4.60028873 -1.97010529 2.36412635 0 0 Z " fill="#4F51EC" transform="translate(325,53)"/>
<path d="M0 0 C0.66 0.33 1.32 0.66 2 1 C1.731875 1.721875 1.46375 2.44375 1.1875 3.1875 C1.125625 4.115625 1.06375 5.04375 1 6 C1.825 6.804375 2.65 7.60875 3.5 8.4375 C4.325 9.283125 5.15 10.12875 6 11 C5.8125 14.3125 5.8125 14.3125 5 17 C4.73445313 16.41734375 4.46890625 15.8346875 4.1953125 15.234375 C2.96697004 12.93825772 1.59685061 11.19643982 -0.125 9.25 C-0.66382813 8.63640625 -1.20265625 8.0228125 -1.7578125 7.390625 C-2.16773438 6.93171875 -2.57765625 6.4728125 -3 6 C-4.65 7.32 -6.3 8.64 -8 10 C-8.66 9.67 -9.32 9.34 -10 9 C-6.7 6.03 -3.4 3.06 0 0 Z " fill="#585AE8" transform="translate(337,43)"/>
<path d="M0 0 C0.66 0 1.32 0 2 0 C1.4261537 3.7856726 -0.21632776 5.62951173 -2.8125 8.375 C-5.93531013 11.76692124 -8.58703315 15.07892887 -11 19 C-11.33 18.34 -11.66 17.68 -12 17 C-11.30132812 16.02417969 -10.60265625 15.04835938 -9.8828125 14.04296875 C-8.96351652 12.75783049 -8.04424707 11.47267325 -7.125 10.1875 C-6.66480469 9.54490234 -6.20460938 8.90230469 -5.73046875 8.24023438 C-5.28574219 7.61826172 -4.84101563 6.99628906 -4.3828125 6.35546875 C-3.97434082 5.78465576 -3.56586914 5.21384277 -3.14501953 4.62573242 C-2.07137168 3.10133561 -1.0342601 1.55139015 0 0 Z " fill="#6363E0" transform="translate(317,62)"/>
<path d="M0 0 C0.66 0.33 1.32 0.66 2 1 C2.625 3.0625 2.625 3.0625 3 5 C2.01 5 1.02 5 0 5 C-2.17032476 6.43990623 -2.17032476 6.43990623 -4 8 C-4.66 7.67 -5.32 7.34 -6 7 C-4.02 4.69 -2.04 2.38 0 0 Z " fill="#6566E5" transform="translate(325,53)"/>
<path d="M0 0 C1.32 0 2.64 0 4 0 C4.33 1.32 4.66 2.64 5 4 C2.69 4 0.38 4 -2 4 C-1 1 -1 1 0 0 Z " fill="#4C58ED" transform="translate(799,429)"/>
<path d="M0 0 C2.3125 0.1875 2.3125 0.1875 4 1 C2.02579865 3.52259061 1.03254358 3.9929808 -2.1875 4.6875 C-3.5796875 4.8421875 -3.5796875 4.8421875 -5 5 C-2.75 2.4375 -2.75 2.4375 0 0 Z " fill="#6264E3" transform="translate(345,37)"/>
</svg>
