<svg version="1.1" id="Layer_1" xmlns="http://www.w3.org/2000/svg" xmlns:xlink="http://www.w3.org/1999/xlink" x="0px" y="0px"
	 width="100%" viewBox="0 0 400 400" enable-background="new 0 0 400 400" xml:space="preserve">
<path fill="#F02731" opacity="1.000000" stroke="none" 
	d="
M1.000000,151.000000 
	C1.000000,100.682236 1.000000,50.864475 1.000000,1.023355 
	C134.276093,1.023355 267.552216,1.023355 400.914154,1.023355 
	C400.914154,134.234390 400.914154,267.468872 400.914154,400.851685 
	C267.666779,400.851685 134.333420,400.851685 1.000000,400.851685 
	C1.000000,317.781219 1.000000,234.640610 1.000000,151.000000 
M123.378723,57.014149 
	C122.941826,57.346359 122.504929,57.678570 121.425835,58.141403 
	C121.255478,58.278137 121.085114,58.414875 120.590309,58.525116 
	C120.361694,58.623959 120.251625,58.797909 119.610619,59.141693 
	C119.080154,59.523277 118.549683,59.904861 117.406914,60.391678 
	C116.262466,61.242607 115.118011,62.093540 113.973816,62.973316 
	C113.973816,62.973316 113.941841,62.962402 113.257805,63.070591 
	C109.797264,65.608604 106.336716,68.146622 102.206154,70.886421 
	C97.778442,74.884216 93.350723,78.882019 88.322350,83.169052 
	C85.816711,85.661201 83.311073,88.153351 80.242004,91.034302 
	C78.091866,93.581879 75.941734,96.129456 73.266640,99.067116 
	C72.148499,100.649345 71.030365,102.231583 69.337540,104.178993 
	C65.845757,110.032906 62.353973,115.886826 58.202057,121.960342 
	C56.738499,124.513718 55.274937,127.067093 53.317669,130.138565 
	C51.883514,133.426773 50.449356,136.714981 48.573780,140.542114 
	C47.680180,142.960495 46.786579,145.378891 45.464348,148.387756 
	C44.608315,151.244217 43.752285,154.100677 42.434471,157.518082 
	C41.621437,161.012512 40.808399,164.506927 39.624428,168.667908 
	C39.078140,171.777603 38.531849,174.887314 37.548439,178.647491 
	C37.059803,182.760101 36.571167,186.872726 36.016663,191.781860 
	C35.993031,192.847031 35.969398,193.912186 35.615482,195.423477 
	C35.498543,195.953735 35.381607,196.484009 35.198906,197.755096 
	C35.200417,198.497803 35.201931,199.240494 35.120537,200.856003 
	C35.098946,202.899857 35.077354,204.943710 35.023682,207.880630 
	C35.353642,211.251221 35.683601,214.621826 35.999653,218.867310 
	C36.009613,220.906830 36.019573,222.946350 36.068802,225.753357 
	C37.842064,233.358673 38.639267,234.655869 45.921219,233.831848 
	C56.707150,232.611328 67.377792,230.337830 78.067001,228.348679 
	C79.154533,228.146286 80.033379,226.822540 81.852142,226.009552 
	C90.902222,223.675797 99.952309,221.342041 109.782158,218.973663 
	C111.153870,217.626450 113.193153,216.500214 113.730515,214.876816 
	C114.422699,212.785721 113.911613,210.296295 113.953537,207.092972 
	C113.934441,204.724594 113.915337,202.356232 113.948334,199.140549 
	C114.251808,196.419952 114.555290,193.699371 114.958908,190.193832 
	C115.301430,188.129074 115.643951,186.064316 116.321434,183.353607 
	C116.846069,181.211517 117.370705,179.069443 118.080002,176.229233 
	C118.747032,174.174347 119.414062,172.119446 120.050339,170.022369 
	C120.050339,170.022369 120.027580,170.064117 120.445435,169.827042 
	C120.715630,169.623825 120.876335,169.355133 121.291351,168.431137 
	C122.616653,165.745102 123.941963,163.059082 125.339851,160.281494 
	C125.339851,160.281494 125.254417,160.201797 125.847809,159.945755 
	C126.580063,158.631409 127.312317,157.317062 128.349945,155.467422 
	C128.612167,154.700989 128.874405,153.934555 129.104172,153.143768 
	C129.104172,153.143768 129.102982,153.150345 129.769119,153.037003 
	C131.231766,151.386978 132.694412,149.736954 134.683075,147.723114 
	C135.620483,146.543793 136.557877,145.364487 138.016220,143.820099 
	C147.358521,136.923691 156.700821,130.027267 166.777298,122.994041 
	C177.383270,120.052338 187.989243,117.110634 199.003647,114.465912 
	C199.304352,114.350906 199.605057,114.235901 200.848648,114.205994 
	C205.878433,113.765739 210.908218,113.325478 216.626740,112.964851 
	C217.074844,112.866173 217.522934,112.767494 218.692032,112.676804 
	C223.155518,110.151985 227.619003,107.627167 232.015396,105.011612 
	C232.015396,105.011612 232.096329,105.090683 232.688354,104.968063 
	C233.383148,104.281540 234.077942,103.595024 234.912048,102.911079 
	C234.912048,102.911079 234.909500,102.771774 235.528168,102.558464 
	C237.220535,100.331367 238.912903,98.104271 240.833847,95.708725 
	C240.833847,95.708725 240.805405,95.426208 241.291885,95.028534 
	C241.873260,93.698181 242.454620,92.367836 243.000000,91.000000 
	C243.000000,91.000000 243.035995,91.037971 243.491592,90.883194 
	C243.812180,90.657173 243.878983,90.371727 243.914871,89.472908 
	C243.935760,89.274963 243.956635,89.077026 244.350739,88.744568 
	C244.611740,88.562927 244.675339,88.327850 244.887619,87.411667 
	C244.921265,86.938423 244.954910,86.465179 245.468765,85.467308 
	C245.603912,84.321075 245.739059,83.174843 246.046875,81.866234 
	C246.046875,81.866234 245.937073,81.656174 246.334290,81.243736 
	C246.457748,80.509827 246.581207,79.775909 246.929337,78.221512 
	C246.892303,76.808563 246.855270,75.395622 246.970322,73.505119 
	C246.918869,73.346184 246.867401,73.187248 246.950729,72.265282 
	C246.850525,71.504349 246.750320,70.743423 246.711746,69.210564 
	C245.282425,61.602375 242.880447,54.457630 236.819580,48.349960 
	C235.573975,47.213112 234.328369,46.076263 232.818832,44.315140 
	C225.873917,38.661854 217.988083,35.482033 208.240341,35.078495 
	C207.488815,35.150600 206.737274,35.222706 205.098663,35.148102 
	C197.394409,35.828671 189.690170,36.509239 181.347733,37.079407 
	C180.347488,37.398926 179.347244,37.718445 177.565063,37.968506 
	C177.050461,38.052963 176.535858,38.137421 175.450806,38.086395 
	C174.941971,38.319771 174.433121,38.553146 173.182037,38.800285 
	C172.451996,38.926743 171.721970,39.053200 170.361038,39.081772 
	C169.594467,39.417957 168.827881,39.754139 167.371887,40.036461 
	C166.929504,40.153427 166.487137,40.270397 165.494125,40.308266 
	C165.004044,40.558701 164.513962,40.809139 163.337677,41.014057 
	C162.890762,41.106289 162.443848,41.198524 161.530060,41.208740 
	C161.201019,41.331051 161.011337,41.565876 160.289139,41.959747 
	C159.853699,42.055256 159.418259,42.150768 158.444702,42.186871 
	C158.172760,42.405842 157.900803,42.624809 157.065323,42.825100 
	C156.704865,42.926907 156.344391,43.028713 155.377838,43.067600 
	C155.071228,43.311043 154.764633,43.554485 153.955612,43.828362 
	C153.640305,43.941708 153.325012,44.055054 152.438156,44.070572 
	C151.958267,44.375118 151.478378,44.679665 150.476379,44.977631 
	C150.314270,45.040947 150.152145,45.104263 149.418503,45.125202 
	C149.136124,45.361080 148.853745,45.596962 148.011932,45.858013 
	C147.669907,46.001255 147.327866,46.144501 146.471970,46.235374 
	C146.218536,46.448635 145.965118,46.661900 145.325745,46.867920 
	C145.325745,46.867920 145.006744,47.085300 144.317871,47.035088 
	C142.892731,47.725536 141.467606,48.415981 139.447449,49.102436 
	C138.955185,49.415226 138.462906,49.728020 137.368210,50.009560 
	C136.896103,50.326393 136.423996,50.643227 135.467255,51.022293 
	C135.467255,51.022293 135.031952,51.244205 134.425751,51.215237 
	C133.457977,51.877308 132.490204,52.539383 131.278320,53.093124 
	C131.278320,53.093124 131.054535,53.238895 130.512009,53.135754 
	C130.263489,53.388496 130.014969,53.641239 129.341934,53.929062 
	C129.341934,53.929062 128.986206,54.163380 128.478073,54.139801 
	C128.290619,54.405392 128.103165,54.670982 127.442665,55.015926 
	C127.442665,55.015926 127.019318,55.241421 126.405296,55.228348 
	C125.593582,55.794312 124.781860,56.360275 123.979912,56.961765 
	C123.979912,56.961765 123.945641,56.948502 123.378723,57.014149 
M165.949951,303.982330 
	C165.949951,303.982330 165.978821,304.081696 165.379944,304.394867 
	C164.354767,306.944702 163.329590,309.494537 162.082489,312.780304 
	C162.095947,313.036194 162.109406,313.292053 161.682205,313.892853 
	C161.515198,314.588074 161.348175,315.283264 161.023590,316.650909 
	C161.041733,317.109070 161.059860,317.567200 160.734802,318.758423 
	C160.901260,323.097168 161.067734,327.435913 161.087555,332.150909 
	C161.039413,332.437286 161.112015,332.688782 161.277695,333.532288 
	C162.179489,335.682831 163.081284,337.833374 164.058273,340.498505 
	C164.141510,340.650543 164.224762,340.802582 164.306046,341.567017 
	C164.859695,342.376770 165.413345,343.186523 166.092804,344.577332 
	C166.463898,345.040070 166.834991,345.502808 167.271133,346.614441 
	C168.674606,348.218018 170.078064,349.821564 171.500336,351.497589 
	C171.500336,351.497589 171.571487,351.520752 171.839294,352.117645 
	C177.567017,355.345123 183.294724,358.572632 189.533157,362.015717 
	C189.895203,362.077637 190.257248,362.139587 190.921402,362.668640 
	C191.275436,362.706573 191.629486,362.744537 192.729614,362.957855 
	C193.494370,362.953613 194.259140,362.949341 195.675949,363.314484 
	C198.124634,363.232758 200.573334,363.151031 203.856018,363.199219 
	C204.973770,363.104126 206.091537,363.009033 207.266937,363.122681 
	C207.266937,363.122681 207.583984,363.135620 207.583984,363.135620 
	C207.583984,363.135620 207.740982,362.899414 208.670425,363.007904 
	C211.434250,362.903290 214.198074,362.798706 217.594009,362.803070 
	C218.389130,362.527527 219.184250,362.251984 220.784119,362.083832 
	C221.855408,361.977783 222.926697,361.871735 224.684067,361.898376 
	C225.786285,361.592194 226.888489,361.286011 228.804779,361.077972 
	C229.882507,360.940521 230.960236,360.803070 232.502960,360.736023 
	C232.835190,360.639801 233.044525,360.424255 233.769333,360.123322 
	C234.179138,360.018372 234.588959,359.913391 235.687943,359.937714 
	C236.781860,359.599823 237.875778,359.261902 239.650375,359.016815 
	C240.098373,358.934631 240.546387,358.852448 241.759277,358.784607 
	C252.178589,355.059723 262.597900,351.334808 273.442169,347.661255 
	C273.728638,347.521729 273.878204,347.292725 274.468292,346.893311 
	C274.649231,346.822327 274.830139,346.751373 275.479492,346.750824 
	C275.811768,346.618774 275.986053,346.374146 276.004456,346.004791 
	C276.004456,346.004791 276.021576,346.003693 276.747162,345.982117 
	C284.865906,340.727722 292.984680,335.473297 301.736633,330.101685 
	C302.528351,329.442474 303.320038,328.783234 304.793304,328.077057 
	C306.209290,327.061005 307.625275,326.044952 309.593933,324.843170 
	C310.275208,324.178009 310.956512,323.512848 312.185394,322.647888 
	C312.445770,322.364807 312.706146,322.081696 313.414062,321.705750 
	C313.696594,321.545868 313.876068,321.308136 314.434601,320.847992 
	C314.634552,320.587433 314.834503,320.326874 315.657928,319.817841 
	C318.466309,316.931274 321.274658,314.044739 324.690399,310.867279 
	C327.161285,307.998505 329.632172,305.129730 332.684875,301.925720 
	C334.140564,299.997345 335.596252,298.069000 337.594482,295.736664 
	C339.774963,292.500977 341.955444,289.265259 344.653625,285.664062 
	C345.471710,284.183380 346.289825,282.702698 347.651825,280.790222 
	C349.884369,276.588501 352.116943,272.386749 354.773773,267.650574 
	C356.176453,264.433228 357.579132,261.215881 359.409332,257.478973 
	C359.923157,255.986633 360.437012,254.494293 361.301727,252.365814 
	C362.246948,249.291977 363.192169,246.218155 364.580231,242.560730 
	C365.373901,239.373032 366.167572,236.185333 367.407440,232.413910 
	C367.895447,229.955841 368.383453,227.497757 369.091797,224.276825 
	C369.385956,222.187042 369.680115,220.097275 370.298004,217.278595 
	C370.524078,214.857864 370.750122,212.437149 371.283142,209.301910 
	C372.858795,201.962173 370.824890,199.658386 363.690094,199.994751 
	C357.943115,200.265701 352.171753,200.006607 346.411194,200.003693 
	C332.120575,199.996460 317.829987,199.999268 303.539368,200.001907 
	C294.124969,200.003647 294.124969,200.006653 292.006561,209.831940 
	C291.657135,212.212433 291.307709,214.592911 290.733917,217.633560 
	C289.816345,220.085175 288.898773,222.536774 287.549622,225.534195 
	C286.663208,228.006256 285.776794,230.478317 284.447174,233.439026 
	C282.971802,235.961197 281.496399,238.483368 279.574982,241.505615 
	C278.002167,243.989395 276.429352,246.473190 274.344208,249.358948 
	C271.130219,252.858597 267.916260,256.358276 264.197479,260.138275 
	C263.466095,260.768463 262.734741,261.398651 261.536865,262.239716 
	C261.288910,262.473724 261.040985,262.707733 260.261444,263.230927 
	C259.475769,264.141663 258.690094,265.052429 257.294220,266.260773 
	C254.482330,268.127991 251.670441,269.995178 248.956436,271.859070 
	C248.956436,271.859070 248.870255,271.812531 248.198029,271.922974 
	C246.436066,272.887848 244.674103,273.852722 242.187180,274.970612 
	C235.789978,277.361725 229.392776,279.752838 222.331177,282.104370 
	C221.894882,282.173981 221.458572,282.243591 220.235474,282.344849 
	C216.327255,283.118927 212.419022,283.893005 207.813553,284.700989 
	C206.894089,284.818604 205.974625,284.936188 204.408035,284.826263 
	C203.281143,284.906708 202.154236,284.987183 200.353653,284.895691 
	C199.896606,284.949310 199.439545,285.002930 198.634949,284.822021 
	C198.102386,284.913483 197.569809,285.004913 196.231873,284.978638 
	C195.154205,285.061371 194.076523,285.144073 192.243652,285.135406 
	C189.074051,286.372528 185.904449,287.609650 182.335892,288.866028 
	C182.335892,288.866028 182.006653,289.092194 181.306885,289.076538 
	C177.182510,292.691010 173.058136,296.305511 168.453705,300.122894 
	C168.296509,300.422852 168.139328,300.722809 167.412430,301.261108 
	C166.957748,302.157562 166.503082,303.053986 165.949951,303.982330 
z"/>
<path fill="#FEFDFD" opacity="1.000000" stroke="none" 
	d="
M198.982498,285.056549 
	C199.439545,285.002930 199.896606,284.949310 200.908234,285.165405 
	C202.660278,285.307983 203.857712,285.180878 205.055161,285.053772 
	C205.974625,284.936188 206.894089,284.818604 208.126312,284.827332 
	C208.439056,284.953705 208.714783,285.060181 208.924286,285.304199 
	C209.745819,285.667419 210.357864,285.786652 211.245117,286.004456 
	C211.902328,286.127686 212.284332,286.152313 212.712708,286.240265 
	C212.759094,286.303589 212.891464,286.219177 213.103699,286.483643 
	C218.224121,289.835175 223.132294,292.922272 228.183838,296.307129 
	C230.259338,299.046753 232.191498,301.488525 234.239868,304.264587 
	C235.573135,307.398285 236.790192,310.197784 238.016037,313.389465 
	C238.410843,315.841980 238.796860,317.902283 239.134644,320.339783 
	C239.094879,321.476196 239.103363,322.235413 239.082169,323.440796 
	C238.677750,327.591339 238.303024,331.295685 237.697906,335.247498 
	C236.648865,337.663300 235.830231,339.831635 234.735382,342.204407 
	C233.307983,344.608978 232.156815,346.809113 230.721085,349.181458 
	C227.553345,351.820129 224.603104,354.213562 221.811111,356.779236 
	C220.012939,358.431671 218.447174,360.336975 216.817474,362.272217 
	C216.857651,362.415436 216.961899,362.694092 216.961899,362.694092 
	C214.198074,362.798706 211.434250,362.903290 208.071960,362.916687 
	C207.473511,362.825439 207.209290,362.913940 207.209290,362.913940 
	C206.091537,363.009033 204.973770,363.104126 203.128769,362.911438 
	C199.942307,362.730804 197.483109,362.837952 195.023895,362.945099 
	C194.259140,362.949341 193.494370,362.953613 192.163391,362.702087 
	C191.271210,362.364716 190.945251,362.283142 190.619293,362.201538 
	C190.257248,362.139587 189.895203,362.077637 189.147583,361.605591 
	C184.108078,358.230225 179.483124,355.217560 174.774841,352.341309 
	C173.875595,351.791901 172.647736,351.780396 171.571487,351.520752 
	C171.571487,351.520752 171.500336,351.497589 171.554077,351.102539 
	C170.140549,349.126862 168.673309,347.546204 167.206070,345.965546 
	C166.834991,345.502808 166.463898,345.040070 166.049652,343.968781 
	C165.440338,342.558350 164.874176,341.756500 164.308014,340.954651 
	C164.224762,340.802582 164.141510,340.650543 164.044144,339.840759 
	C163.121796,337.090515 162.213577,334.997955 161.305359,332.905426 
	C161.112015,332.688782 161.039413,332.437286 161.323975,331.468384 
	C161.399612,326.532349 161.238815,322.278839 161.078003,318.025360 
	C161.059860,317.567200 161.041733,317.109070 161.287262,316.114441 
	C161.741577,314.901276 161.932220,314.224609 162.122864,313.547913 
	C162.109406,313.292053 162.095947,313.036194 162.506454,312.295410 
	C163.946548,309.234253 164.962677,306.657990 165.978821,304.081696 
	C165.978821,304.081696 165.949951,303.982330 166.303955,303.868073 
	C167.099365,302.843475 167.540756,301.933105 167.982147,301.022766 
	C168.139328,300.722809 168.296509,300.422852 169.034210,299.976166 
	C173.745361,296.250366 177.876007,292.671265 182.006653,289.092163 
	C182.006653,289.092194 182.335892,288.866028 182.935959,288.879822 
	C186.690308,287.671356 189.844589,286.449066 192.998856,285.226776 
	C194.076523,285.144073 195.154205,285.061371 196.803513,285.188477 
	C197.910934,285.284363 198.446716,285.170441 198.982498,285.056549 
z"/>
<path fill="#FEFEFD" opacity="1.000000" stroke="none" 
	d="
M217.971039,112.668816 
	C217.522934,112.767494 217.074844,112.866173 215.931534,112.723747 
	C210.160522,112.649216 205.084702,112.815796 199.606903,112.971001 
	C194.177689,110.946358 189.150467,108.933075 183.937943,106.641502 
	C180.211548,102.883202 176.670471,99.403191 173.049805,95.580719 
	C171.749512,92.771095 170.528809,90.303925 169.270721,87.436226 
	C168.852600,85.006912 168.471848,82.978127 168.077240,80.493515 
	C168.049057,76.358658 168.034744,72.679642 168.226120,68.699203 
	C168.633591,66.942848 168.835388,65.487892 169.363144,63.860912 
	C170.133026,61.464645 170.576950,59.240414 171.338562,56.907001 
	C174.047684,53.671810 176.740616,50.728508 178.768478,47.382179 
	C183.146927,40.156982 188.595810,35.925850 197.728760,37.637035 
	C200.246429,38.108753 203.220886,36.142448 205.985748,35.294807 
	C206.737274,35.222706 207.488815,35.150600 208.775543,35.471535 
	C211.004852,36.443962 212.704498,37.007675 214.391891,37.606033 
	C217.820068,38.821701 221.269791,39.983856 224.657227,41.305023 
	C227.505035,42.415730 230.277145,43.720543 233.082764,44.939415 
	C234.328369,46.076263 235.573975,47.213112 236.915665,49.041534 
	C239.023712,54.183727 240.991791,58.654934 243.065430,63.076630 
	C244.165756,65.422928 245.449280,67.683319 246.650116,69.982491 
	C246.750320,70.743423 246.850525,71.504349 246.788132,72.750015 
	C246.514755,73.528000 246.578979,73.777313 246.818237,73.982674 
	C246.855270,75.395622 246.892303,76.808563 246.641129,78.854248 
	C246.214294,80.210045 246.075684,80.933105 245.937073,81.656174 
	C245.937073,81.656174 246.046875,81.866234 245.665924,82.048805 
	C245.186157,83.484894 245.087357,84.738419 244.988556,85.991936 
	C244.954910,86.465179 244.921265,86.938423 244.569458,87.826279 
	C244.083313,88.420692 243.992050,88.633430 243.977524,88.879089 
	C243.956635,89.077026 243.935760,89.274963 243.641998,89.880898 
	C243.174118,90.501236 243.063080,90.750931 243.035995,91.037971 
	C243.035995,91.037971 243.000000,91.000000 242.680054,91.118042 
	C241.841873,92.632790 241.323639,94.029503 240.805420,95.426208 
	C240.805405,95.426208 240.833847,95.708725 240.357788,95.651443 
	C235.404449,96.033249 235.548050,99.673431 234.909500,102.771774 
	C234.909500,102.771774 234.912048,102.911079 234.522278,102.942032 
	C233.453766,103.678886 232.775040,104.384781 232.096329,105.090683 
	C232.096329,105.090683 232.015396,105.011612 231.674652,105.050415 
	C226.879623,107.615753 222.425339,110.142281 217.971039,112.668816 
z"/>
<path fill="#FAB1B6" opacity="1.000000" stroke="none" 
	d="
M184.123260,106.919800 
	C189.150467,108.933075 194.177689,110.946358 199.601532,113.257507 
	C199.967346,113.743874 199.936554,113.932373 199.905746,114.120880 
	C199.605057,114.235901 199.304352,114.350906 198.339996,114.280159 
	C191.017532,114.321686 184.339859,114.968925 177.704681,114.670746 
	C169.270493,114.291718 160.876572,112.536285 152.454971,112.456039 
	C133.827194,112.278564 115.193314,112.814896 96.561188,112.976936 
	C91.116615,113.024284 85.606735,112.222672 80.238037,112.816315 
	C71.574081,113.774315 69.473770,112.285820 69.912224,103.813812 
	C71.030365,102.231583 72.148499,100.649345 73.764435,99.155319 
	C76.650169,100.695808 79.028664,103.387032 81.427536,103.405319 
	C101.488373,103.558243 121.552681,103.145546 141.616562,103.070923 
	C148.387451,103.045746 155.257202,104.307739 161.904175,103.507126 
	C168.290619,102.737892 174.060547,103.597511 179.901413,105.671097 
	C181.282410,106.161377 182.714615,106.507416 184.123260,106.919800 
z"/>
<path fill="#FAA7AB" opacity="1.000000" stroke="none" 
	d="
M69.624878,103.996399 
	C69.473770,112.285820 71.574081,113.774315 80.238037,112.816315 
	C85.606735,112.222672 91.116615,113.024284 96.561188,112.976936 
	C115.193314,112.814896 133.827194,112.278564 152.454971,112.456039 
	C160.876572,112.536285 169.270493,114.291718 177.704681,114.670746 
	C184.339859,114.968925 191.017532,114.321686 198.135773,114.131668 
	C187.989243,117.110634 177.383270,120.052338 166.156372,122.849213 
	C162.705414,122.829109 159.875397,122.953850 156.822952,122.778397 
	C151.958710,121.984680 147.301178,120.951439 142.677658,121.086113 
	C114.795624,121.898262 86.822144,118.820213 58.985268,122.680450 
	C58.920223,122.157967 58.891209,121.949348 58.862190,121.740738 
	C62.353973,115.886826 65.845757,110.032906 69.624878,103.996399 
z"/>
<path fill="#F89A9E" opacity="1.000000" stroke="none" 
	d="
M221.022278,282.313171 
	C221.458572,282.243591 221.894882,282.173981 222.797852,282.402191 
	C226.392960,282.230957 229.521881,281.765198 232.649658,281.291809 
	C235.343719,280.884125 238.060135,280.007080 240.725220,280.144104 
	C247.889542,280.512451 255.028381,281.784729 262.183319,281.834229 
	C273.913391,281.915466 285.648224,281.067749 297.380981,281.069519 
	C309.002045,281.071289 320.624573,281.899475 332.243378,281.832031 
	C336.948914,281.804718 341.676666,280.276947 344.135925,286.029572 
	C341.955444,289.265259 339.774963,292.500977 337.312958,295.543884 
	C337.355499,293.568237 337.679596,291.785400 338.059753,289.971436 
	C338.115845,289.940369 337.997437,289.996338 337.584167,289.987427 
	C327.642822,289.653015 318.113342,289.028107 308.586884,289.070709 
	C293.536072,289.137970 278.487640,289.671967 263.437256,289.959808 
	C260.950989,290.007324 258.459839,289.810944 255.971207,289.720490 
	C250.340240,289.515869 244.707336,289.096161 239.079086,289.152161 
	C231.682861,289.225830 224.085541,291.784119 217.252991,286.542358 
	C216.285751,285.800323 214.368835,286.296234 212.891464,286.219177 
	C212.891464,286.219177 212.759094,286.303589 213.052719,286.016907 
	C215.904984,284.591187 218.463638,283.452179 221.022278,282.313171 
z"/>
<path fill="#F78E93" opacity="1.000000" stroke="none" 
	d="
M344.394775,285.846802 
	C341.676666,280.276947 336.948914,281.804718 332.243378,281.832031 
	C320.624573,281.899475 309.002045,281.071289 297.380981,281.069519 
	C285.648224,281.067749 273.913391,281.915466 262.183319,281.834229 
	C255.028381,281.784729 247.889542,280.512451 240.725220,280.144104 
	C238.060135,280.007080 235.343719,280.884125 232.649658,281.291809 
	C229.521881,281.765198 226.392960,282.230957 223.130066,282.421997 
	C229.392776,279.752838 235.789978,277.361725 242.805710,275.089783 
	C246.185486,275.593536 248.364365,275.044312 248.870255,271.812531 
	C248.870255,271.812531 248.956436,271.859070 249.336090,271.899170 
	C282.469238,271.939270 315.222717,271.939270 348.486237,271.939270 
	C347.909180,275.825775 347.508575,278.523895 347.107941,281.222046 
	C346.289825,282.702698 345.471710,284.183380 344.394775,285.846802 
z"/>
<path fill="#FAB6B9" opacity="1.000000" stroke="none" 
	d="
M238.007248,312.997253 
	C236.790192,310.197784 235.573135,307.398285 234.541779,304.075317 
	C238.737152,303.367706 242.746536,303.031891 246.756546,303.024261 
	C272.001129,302.976105 297.245850,302.993286 322.490540,303.017151 
	C324.332367,303.018890 326.174011,303.243713 327.410034,303.324982 
	C326.153961,306.282288 325.118500,308.720245 324.083038,311.158173 
	C321.274658,314.044739 318.466309,316.931274 315.319122,319.607422 
	C315.258392,317.210236 315.536499,315.023438 315.904022,312.133301 
	C314.280121,311.970886 312.569427,311.549347 310.904358,311.685547 
	C307.480621,311.965729 304.079773,312.929260 300.672241,312.915680 
	C294.563873,312.891357 288.455017,312.045349 282.350922,312.095673 
	C270.658630,312.192078 258.969971,312.693237 247.278839,312.986938 
	C244.190170,313.064545 241.097870,312.997742 238.007248,312.997253 
z"/>
<path fill="#F9BBBF" opacity="1.000000" stroke="none" 
	d="
M183.937943,106.641510 
	C182.714615,106.507416 181.282410,106.161377 179.901413,105.671097 
	C174.060547,103.597511 168.290619,102.737892 161.904175,103.507126 
	C155.257202,104.307739 148.387451,103.045746 141.616562,103.070923 
	C121.552681,103.145546 101.488373,103.558243 81.427536,103.405319 
	C79.028664,103.387032 76.650169,100.695808 74.026917,98.960281 
	C75.941734,96.129456 78.091866,93.581879 80.688072,91.186226 
	C82.318840,94.963737 84.762016,96.117752 88.469734,95.435028 
	C90.729950,95.018852 93.086609,95.020081 95.400200,95.016891 
	C116.139961,94.988319 136.880066,94.940598 157.619370,95.042725 
	C162.790695,95.068176 167.959457,95.615646 173.129395,95.923187 
	C176.670471,99.403191 180.211548,102.883202 183.937943,106.641510 
z"/>
<path fill="#F78E93" opacity="1.000000" stroke="none" 
	d="
M157.045380,123.078590 
	C159.875397,122.953850 162.705414,122.829109 165.789276,122.917610 
	C156.700821,130.027267 147.358521,136.923691 137.377899,144.011536 
	C135.162354,145.138855 133.585129,146.074707 131.756561,147.009369 
	C131.337677,147.004837 131.170135,147.001511 130.738525,146.880859 
	C124.753319,146.313049 119.033066,145.850815 113.310440,145.420090 
	C111.838722,145.309296 110.358810,145.233551 108.883919,145.250641 
	C96.605537,145.392792 84.317604,145.923538 72.052811,145.590530 
	C64.107918,145.374817 55.511440,146.670227 49.015198,140.003189 
	C50.449356,136.714981 51.883514,133.426773 53.606144,130.319305 
	C53.770157,132.957657 53.645695,135.415298 53.565407,137.000610 
	C63.334263,137.000610 73.049065,137.000580 82.763870,137.000626 
	C96.079384,137.000671 109.394974,137.022461 122.710365,136.982452 
	C125.359993,136.974487 128.345001,135.869919 130.597427,136.750046 
	C138.500046,139.837952 143.365784,134.423904 149.287292,130.840500 
	C150.717560,129.473877 151.870758,128.274948 153.298035,126.899246 
	C154.729889,125.507843 155.887634,124.293221 157.045380,123.078590 
z"/>
<path fill="#F66F76" opacity="1.000000" stroke="none" 
	d="
M264.702301,259.857941 
	C267.916260,256.358276 271.130219,252.858597 275.041138,249.161407 
	C281.191528,248.642578 286.643494,248.077682 292.098694,248.044235 
	C310.869690,247.929214 329.642639,248.096909 348.412964,247.935562 
	C353.448059,247.892273 358.271118,247.576462 360.950867,253.001953 
	C360.437012,254.494293 359.923157,255.986633 358.777527,257.705261 
	C355.024414,257.620819 351.904144,257.053131 348.781677,257.040955 
	C328.050903,256.960114 307.319672,257.019348 286.588654,256.980957 
	C282.152191,256.972748 277.673004,256.328491 273.294922,256.775177 
	C270.356476,257.074982 267.561493,258.781067 264.702301,259.857941 
z"/>
<path fill="#FBCCCF" opacity="1.000000" stroke="none" 
	d="
M168.091095,80.949348 
	C168.471848,82.978127 168.852600,85.006912 168.843658,87.470978 
	C166.964722,87.771423 165.474655,87.510941 163.986359,87.520660 
	C142.835724,87.658646 121.685478,87.864395 100.534714,87.959427 
	C97.897362,87.971283 95.093056,87.891640 92.678185,87.004692 
	C91.130264,86.436165 90.154984,84.308540 88.923004,82.879822 
	C93.350723,78.882019 97.778442,74.884216 102.511093,71.166855 
	C102.130966,73.731483 101.445900,76.015671 100.377899,79.576675 
	C105.323685,78.735626 109.277679,77.508118 113.236969,77.490791 
	C126.820755,77.431343 140.406143,77.817276 153.991470,77.987686 
	C158.898117,78.049232 163.938004,77.352615 168.091095,80.949348 
z"/>
<path fill="#F8A4A7" opacity="1.000000" stroke="none" 
	d="
M338.003662,290.002533 
	C337.679596,291.785400 337.355499,293.568237 337.041687,295.745880 
	C335.596252,298.069000 334.140564,299.997345 332.388611,301.715759 
	C333.088562,297.612091 331.477936,295.949585 327.568542,296.006531 
	C322.577698,296.079224 317.584778,296.002472 312.592773,296.002502 
	C284.408691,296.002747 256.224579,296.006683 228.040482,296.009338 
	C223.132294,292.922272 218.224121,289.835175 213.103699,286.483643 
	C214.368835,286.296234 216.285751,285.800323 217.252991,286.542358 
	C224.085541,291.784119 231.682861,289.225830 239.079086,289.152161 
	C244.707336,289.096161 250.340240,289.515869 255.971207,289.720490 
	C258.459839,289.810944 260.950989,290.007324 263.437256,289.959808 
	C278.487640,289.671967 293.536072,289.137970 308.586884,289.070709 
	C318.113342,289.028107 327.642822,289.653015 337.585449,289.989258 
	C338.000000,290.000000 338.003662,290.002533 338.003662,290.002533 
z"/>
<path fill="#F66B72" opacity="1.000000" stroke="none" 
	d="
M120.081085,170.064560 
	C119.414062,172.119446 118.747032,174.174347 117.794556,176.425598 
	C115.253387,177.412460 113.018410,178.817307 110.738571,178.894333 
	C95.215286,179.418762 79.683739,179.762955 64.152267,179.946167 
	C58.540653,180.012360 52.922668,179.458954 47.306149,179.222565 
	C44.541977,179.106201 41.774517,179.068024 38.859520,178.807007 
	C38.498184,178.377869 38.256542,178.170349 37.985561,177.997009 
	C38.531849,174.887314 39.078140,171.777603 40.207649,168.363098 
	C46.682476,168.705505 52.566982,169.821320 58.467049,169.910828 
	C75.224907,170.165009 91.989120,169.996307 108.750832,170.003159 
	C112.527588,170.004700 116.304337,170.043121 120.081085,170.064560 
z"/>
<path fill="#F77B81" opacity="1.000000" stroke="none" 
	d="
M264.449890,259.998108 
	C267.561493,258.781067 270.356476,257.074982 273.294922,256.775177 
	C277.673004,256.328491 282.152191,256.972748 286.588654,256.980957 
	C307.319672,257.019348 328.050903,256.960114 348.781677,257.040955 
	C351.904144,257.053131 355.024414,257.620819 358.563782,257.965027 
	C357.579132,261.215881 356.176453,264.433228 354.255798,267.658875 
	C351.711609,266.779877 349.731689,265.285278 347.649963,265.126556 
	C342.688477,264.748352 337.677826,265.065216 332.688843,264.986633 
	C318.441437,264.762238 304.192291,264.189026 289.948914,264.317230 
	C279.263336,264.413391 268.585632,265.382629 257.904419,265.963165 
	C258.690094,265.052429 259.475769,264.141663 260.758514,262.973755 
	C261.504852,262.487366 261.754120,262.258118 262.003387,262.028870 
	C262.734741,261.398651 263.466095,260.768463 264.449890,259.998108 
z"/>
<path fill="#F7848B" opacity="1.000000" stroke="none" 
	d="
M257.599304,266.111969 
	C268.585632,265.382629 279.263336,264.413391 289.948914,264.317230 
	C304.192291,264.189026 318.441437,264.762238 332.688843,264.986633 
	C337.677826,265.065216 342.688477,264.748352 347.649963,265.126556 
	C349.731689,265.285278 351.711609,266.779877 354.043640,267.926086 
	C352.116943,272.386749 349.884369,276.588501 347.379883,281.006134 
	C347.508575,278.523895 347.909180,275.825775 348.486237,271.939270 
	C315.222717,271.939270 282.469238,271.939270 249.287140,271.900818 
	C251.670441,269.995178 254.482330,268.127991 257.599304,266.111969 
z"/>
<path fill="#FCD7D8" opacity="1.000000" stroke="none" 
	d="
M168.077240,80.493515 
	C163.938004,77.352615 158.898117,78.049232 153.991470,77.987686 
	C140.406143,77.817276 126.820755,77.431343 113.236969,77.490791 
	C109.277679,77.508118 105.323685,78.735626 100.377899,79.576675 
	C101.445900,76.015671 102.130966,73.731483 102.846100,71.065964 
	C106.336716,68.146622 109.797264,65.608604 113.546021,63.345360 
	C113.444305,64.802635 113.054367,65.985146 112.718864,67.002586 
	C127.669243,67.002586 142.333862,66.872154 156.993164,67.093910 
	C160.677689,67.149643 164.345139,68.334602 168.020432,69.000610 
	C168.034744,72.679642 168.049057,76.358658 168.077240,80.493515 
z"/>
<path fill="#F77E84" opacity="1.000000" stroke="none" 
	d="
M129.136627,153.168121 
	C128.874405,153.934555 128.612167,154.700989 127.874252,155.840698 
	C126.683853,157.543259 125.969139,158.872528 125.254425,160.201797 
	C125.254417,160.201797 125.339851,160.281494 125.016830,160.176132 
	C123.519791,160.057281 122.304169,159.840927 121.180161,160.071365 
	C118.621254,160.595978 116.114021,161.874359 113.573975,161.906281 
	C99.152969,162.087540 84.728477,161.995621 70.305176,161.989105 
	C64.537544,161.986496 58.769558,161.919174 53.002434,161.966553 
	C48.755226,162.001419 45.169727,160.838074 42.896252,156.957138 
	C43.752285,154.100677 44.608315,151.244217 45.771355,148.464264 
	C46.624416,152.678452 48.767841,153.772003 52.939148,153.174133 
	C57.324997,152.545486 61.867935,152.993607 66.342155,153.003983 
	C87.273659,153.052505 108.205139,153.112335 129.136627,153.168121 
z"/>
<path fill="#F9ACB1" opacity="1.000000" stroke="none" 
	d="
M228.183838,296.307129 
	C256.224579,296.006683 284.408691,296.002747 312.592773,296.002502 
	C317.584778,296.002472 322.577698,296.079224 327.568542,296.006531 
	C331.477936,295.949585 333.088562,297.612091 332.097717,301.883362 
	C329.632172,305.129730 327.161285,307.998505 324.386719,311.012726 
	C325.118500,308.720245 326.153961,306.282288 327.410034,303.324982 
	C326.174011,303.243713 324.332367,303.018890 322.490540,303.017151 
	C297.245850,302.993286 272.001129,302.976105 246.756546,303.024261 
	C242.746536,303.031891 238.737152,303.367706 234.425568,303.741058 
	C232.191498,301.488525 230.259338,299.046753 228.183838,296.307129 
z"/>
<path fill="#F2424A" opacity="1.000000" stroke="none" 
	d="
M36.013557,217.992416 
	C35.683601,214.621826 35.353642,211.251221 35.390202,207.568207 
	C36.950634,207.802139 38.129871,208.786667 39.340725,208.827209 
	C51.726685,209.242020 64.116570,209.590424 76.508064,209.762665 
	C81.114708,209.826706 85.728966,209.387558 90.338898,209.160645 
	C98.199211,208.773758 106.058853,208.373245 113.918777,207.978439 
	C113.911613,210.296295 114.422699,212.785721 113.730515,214.876816 
	C113.193153,216.500214 111.153870,217.626450 109.052933,218.776245 
	C100.938522,218.386124 93.554001,218.064697 86.168022,218.026825 
	C69.450249,217.941086 52.731758,217.995178 36.013557,217.992416 
z"/>
<path fill="#F1343C" opacity="1.000000" stroke="none" 
	d="
M292.039276,209.029221 
	C294.124969,200.006653 294.124969,200.003647 303.539368,200.001907 
	C317.829987,199.999268 332.120575,199.996460 346.411194,200.003693 
	C352.171753,200.006607 357.943115,200.265701 363.690094,199.994751 
	C370.824890,199.658386 372.858795,201.962173 370.724182,209.567978 
	C368.033569,209.556091 365.902435,209.040802 363.770233,209.036545 
	C339.859985,208.988693 315.949615,209.019547 292.039276,209.029221 
z"/>
<path fill="#F6757B" opacity="1.000000" stroke="none" 
	d="
M42.665359,157.237610 
	C45.169727,160.838074 48.755226,162.001419 53.002434,161.966553 
	C58.769558,161.919174 64.537544,161.986496 70.305176,161.989105 
	C84.728477,161.995621 99.152969,162.087540 113.573975,161.906281 
	C116.114021,161.874359 118.621254,160.595978 121.180161,160.071365 
	C122.304169,159.840927 123.519791,160.057281 124.980537,160.221909 
	C123.941963,163.059082 122.616653,165.745102 120.936310,168.878189 
	C120.361313,169.544998 120.176743,169.791290 120.027580,170.064117 
	C120.027580,170.064117 120.050339,170.022369 120.065712,170.043457 
	C116.304337,170.043121 112.527588,170.004700 108.750832,170.003159 
	C91.989120,169.996307 75.224907,170.165009 58.467049,169.910828 
	C52.566982,169.821320 46.682476,168.705505 40.393112,168.029831 
	C40.808399,164.506927 41.621437,161.012512 42.665359,157.237610 
z"/>
<path fill="#F6656C" opacity="1.000000" stroke="none" 
	d="
M361.126282,252.683884 
	C358.271118,247.576462 353.448059,247.892273 348.412964,247.935562 
	C329.642639,248.096909 310.869690,247.929214 292.098694,248.044235 
	C286.643494,248.077682 281.191528,248.642578 275.297333,248.960419 
	C276.429352,246.473190 278.002167,243.989395 280.209991,241.245773 
	C284.286743,240.957947 287.728485,240.929749 291.170227,240.902023 
	C298.098419,240.846207 305.028076,240.859329 311.954315,240.712326 
	C317.092773,240.603287 322.225311,240.237610 327.363220,240.072784 
	C336.940460,239.765518 346.530731,239.710526 356.092682,239.155869 
	C359.820496,238.939636 362.703583,239.273956 364.137390,243.144333 
	C363.192169,246.218155 362.246948,249.291977 361.126282,252.683884 
z"/>
<path fill="#F7848B" opacity="1.000000" stroke="none" 
	d="
M129.120392,153.155945 
	C108.205139,153.112335 87.273659,153.052505 66.342155,153.003983 
	C61.867935,152.993607 57.324997,152.545486 52.939148,153.174133 
	C48.767841,153.772003 46.624416,152.678452 45.985672,148.169022 
	C46.786579,145.378891 47.680180,142.960495 48.794487,140.272644 
	C55.511440,146.670227 64.107918,145.374817 72.052811,145.590530 
	C84.317604,145.923538 96.605537,145.392792 108.883919,145.250641 
	C110.358810,145.233551 111.838722,145.309296 113.310440,145.420090 
	C119.033066,145.850815 124.753319,146.313049 130.669312,147.231033 
	C130.277100,149.515778 129.690048,151.333069 129.102982,153.150345 
	C129.102982,153.150345 129.104172,153.143768 129.120392,153.155945 
z"/>
<path fill="#F8979C" opacity="1.000000" stroke="none" 
	d="
M149.010223,131.008194 
	C143.365784,134.423904 138.500046,139.837952 130.597427,136.750046 
	C128.345001,135.869919 125.359993,136.974487 122.710365,136.982452 
	C109.394974,137.022461 96.079384,137.000671 82.763870,137.000626 
	C73.049065,137.000580 63.334263,137.000610 53.565407,137.000610 
	C53.645695,135.415298 53.770157,132.957657 53.852997,130.060242 
	C55.274937,127.067093 56.738499,124.513718 58.532124,121.850540 
	C58.891209,121.949348 58.920223,122.157967 58.979561,123.057213 
	C59.004066,124.501099 58.998245,125.254349 58.800079,126.238434 
	C58.987167,127.298050 59.258221,128.766083 59.763626,128.851761 
	C63.016026,129.403152 66.314537,129.885437 69.607475,129.958450 
	C81.698563,130.226517 93.795845,130.549530 105.886055,130.417694 
	C115.576134,130.312042 125.257301,129.311142 134.946503,129.236252 
	C139.629562,129.200043 144.322021,130.379272 149.010223,131.008194 
z"/>
<path fill="#F45259" opacity="1.000000" stroke="none" 
	d="
M284.890350,232.950363 
	C285.776794,230.478317 286.663208,228.006256 288.236023,225.265427 
	C315.572113,225.011002 342.221771,225.025345 368.871460,225.039688 
	C368.383453,227.497757 367.895447,229.955841 366.819519,232.778000 
	C364.924011,233.196762 363.614960,233.323303 362.309174,233.295334 
	C343.273743,232.887634 324.240234,232.342346 305.202850,232.098480 
	C298.436768,232.011810 291.661438,232.645508 284.890350,232.950363 
z"/>
<path fill="#FBC3C7" opacity="1.000000" stroke="none" 
	d="
M88.622681,83.024429 
	C90.154984,84.308540 91.130264,86.436165 92.678185,87.004692 
	C95.093056,87.891640 97.897362,87.971283 100.534714,87.959427 
	C121.685478,87.864395 142.835724,87.658646 163.986359,87.520660 
	C165.474655,87.510941 166.964722,87.771423 168.881042,87.871506 
	C170.528809,90.303925 171.749512,92.771095 173.049805,95.580719 
	C167.959457,95.615646 162.790695,95.068176 157.619370,95.042725 
	C136.880066,94.940598 116.139961,94.988319 95.400200,95.016891 
	C93.086609,95.020081 90.729950,95.018852 88.469734,95.435028 
	C84.762016,96.117752 82.318840,94.963737 80.969788,90.991821 
	C83.311073,88.153351 85.816711,85.661201 88.622681,83.024429 
z"/>
<path fill="#F34B53" opacity="1.000000" stroke="none" 
	d="
M113.936157,207.535706 
	C106.058853,208.373245 98.199211,208.773758 90.338898,209.160645 
	C85.728966,209.387558 81.114708,209.826706 76.508064,209.762665 
	C64.116570,209.590424 51.726685,209.242020 39.340725,208.827209 
	C38.129871,208.786667 36.950634,207.802139 35.406242,207.121674 
	C35.077354,204.943710 35.098946,202.899857 35.518120,200.509705 
	C41.797558,200.443283 47.678146,200.927902 53.561516,200.964447 
	C70.879120,201.072037 88.198074,201.046768 105.515884,200.956024 
	C108.310951,200.941376 111.102859,200.325714 113.896233,199.987854 
	C113.915337,202.356232 113.934441,204.724594 113.936157,207.535706 
z"/>
<path fill="#F34750" opacity="1.000000" stroke="none" 
	d="
M368.981628,224.658264 
	C342.221771,225.025345 315.572113,225.011002 288.451813,224.992523 
	C288.898773,222.536774 289.816345,220.085175 291.319397,217.311279 
	C315.142456,216.992950 338.380219,216.963150 361.617554,217.045181 
	C364.404236,217.055008 367.188751,217.671951 369.974274,218.007492 
	C369.680115,220.097275 369.385956,222.187042 368.981628,224.658264 
z"/>
<path fill="#F23E46" opacity="1.000000" stroke="none" 
	d="
M370.136139,217.643036 
	C367.188751,217.671951 364.404236,217.055008 361.617554,217.045181 
	C338.380219,216.963150 315.142456,216.992950 291.431580,216.981201 
	C291.307709,214.592911 291.657135,212.212433 292.022919,209.430573 
	C315.949615,209.019547 339.859985,208.988693 363.770233,209.036545 
	C365.902435,209.040802 368.033569,209.556091 370.570709,209.925232 
	C370.750122,212.437149 370.524078,214.857864 370.136139,217.643036 
z"/>
<path fill="#F45259" opacity="1.000000" stroke="none" 
	d="
M113.922287,199.564209 
	C111.102859,200.325714 108.310951,200.941376 105.515884,200.956024 
	C88.198074,201.046768 70.879120,201.072037 53.561516,200.964447 
	C47.678146,200.927902 41.797558,200.443283 35.559570,200.073303 
	C35.201931,199.240494 35.200417,198.497803 35.442539,197.300629 
	C35.772701,196.223221 35.859234,195.600281 35.945763,194.977356 
	C35.969398,193.912186 35.993031,192.847031 36.394951,191.477234 
	C40.213146,192.073669 43.616390,193.494339 47.102516,193.740311 
	C51.186047,194.028458 55.340240,193.070724 59.466396,193.043015 
	C74.575172,192.941483 89.686714,193.121002 104.793213,192.909302 
	C108.156754,192.862152 111.504013,191.652939 114.858765,190.978775 
	C114.555290,193.699371 114.251808,196.419952 113.922287,199.564209 
z"/>
<path fill="#FBD4D6" opacity="1.000000" stroke="none" 
	d="
M237.928284,335.000000 
	C238.303024,331.295685 238.677750,327.591339 239.394531,323.584503 
	C241.547638,326.323853 244.181183,327.311523 247.700806,327.069580 
	C251.846909,326.784546 256.036072,326.830994 260.191620,327.036377 
	C270.418030,327.541809 280.633331,328.273499 290.860596,328.755524 
	C292.003021,328.809357 293.360718,328.058472 294.333221,327.309998 
	C298.802155,323.870483 300.195099,324.432068 301.103424,330.218903 
	C292.984680,335.473297 284.865906,340.727722 276.460205,345.680328 
	C276.785980,344.252075 277.398651,343.125641 278.261963,341.879303 
	C279.007629,341.506439 279.502716,341.253418 280.186798,340.855774 
	C280.615692,340.500427 280.825562,340.263214 281.332794,339.995544 
	C282.488007,339.737061 283.315887,339.482513 285.274536,338.880249 
	C283.059814,338.140686 282.026794,337.532990 280.967163,337.482330 
	C269.577789,336.937775 258.182129,336.523041 246.793121,335.971680 
	C243.829453,335.828217 240.882782,335.333435 237.928284,335.000000 
z"/>
<path fill="#F55C63" opacity="1.000000" stroke="none" 
	d="
M284.668762,233.194702 
	C291.661438,232.645508 298.436768,232.011810 305.202850,232.098480 
	C324.240234,232.342346 343.273743,232.887634 362.309174,233.295334 
	C363.614960,233.323303 364.924011,233.196762 366.596405,233.069870 
	C366.167572,236.185333 365.373901,239.373032 364.358826,242.852539 
	C362.703583,239.273956 359.820496,238.939636 356.092682,239.155869 
	C346.530731,239.710526 336.940460,239.765518 327.363220,240.072784 
	C322.225311,240.237610 317.092773,240.603287 311.954315,240.712326 
	C305.028076,240.859329 298.098419,240.846207 291.170227,240.902023 
	C287.728485,240.929749 284.286743,240.957947 280.432983,240.995728 
	C281.496399,238.483368 282.971802,235.961197 284.668762,233.194702 
z"/>
<path fill="#FBC3C7" opacity="1.000000" stroke="none" 
	d="
M238.016037,313.389465 
	C241.097870,312.997742 244.190170,313.064545 247.278839,312.986938 
	C258.969971,312.693237 270.658630,312.192078 282.350922,312.095673 
	C288.455017,312.045349 294.563873,312.891357 300.672241,312.915680 
	C304.079773,312.929260 307.480621,311.965729 310.904358,311.685547 
	C312.569427,311.549347 314.280121,311.970886 315.904022,312.133301 
	C315.536499,315.023438 315.258392,317.210236 315.007385,319.731628 
	C314.834503,320.326874 314.634552,320.587433 313.999268,321.014893 
	C313.317322,321.341431 313.118164,321.547028 312.966522,321.798615 
	C312.706146,322.081696 312.445770,322.364807 311.592346,322.593323 
	C308.602448,322.030273 306.225403,321.249115 303.804352,321.073334 
	C299.544312,320.764008 295.249878,320.951141 290.983582,320.698700 
	C285.555634,320.377472 280.140045,319.461243 274.721619,319.481384 
	C269.822327,319.499573 264.929108,320.832825 260.028412,320.865234 
	C253.082214,320.911194 246.131607,320.295532 239.182892,319.962585 
	C238.796860,317.902283 238.410843,315.841980 238.016037,313.389465 
z"/>
<path fill="#F5626A" opacity="1.000000" stroke="none" 
	d="
M39.008545,178.994476 
	C41.774517,179.068024 44.541977,179.106201 47.306149,179.222565 
	C52.922668,179.458954 58.540653,180.012360 64.152267,179.946167 
	C79.683739,179.762955 95.215286,179.418762 110.738571,178.894333 
	C113.018410,178.817307 115.253387,177.412460 117.702225,176.774658 
	C117.370705,179.069443 116.846069,181.211517 115.815750,183.794495 
	C111.554634,185.143250 107.837006,186.558411 104.035019,186.841736 
	C98.131363,187.281708 92.170097,186.978653 86.233582,186.939941 
	C79.138100,186.893661 72.041756,186.677444 64.948051,186.751678 
	C58.371960,186.820496 51.765114,186.846497 45.236084,187.517105 
	C40.746998,187.978180 38.769264,186.709534 38.933460,181.988983 
	C38.968170,180.991150 38.984009,179.992661 39.008545,178.994476 
z"/>
<path fill="#FDEDED" opacity="1.000000" stroke="none" 
	d="
M205.542206,35.221458 
	C203.220886,36.142448 200.246429,38.108753 197.728760,37.637035 
	C188.595810,35.925850 183.146927,40.156982 178.768478,47.382179 
	C176.740616,50.728508 174.047684,53.671810 170.988831,56.689507 
	C158.539459,55.383148 146.757507,54.185101 134.992691,52.696800 
	C135.017197,52.019104 135.024582,51.631653 135.031952,51.244205 
	C135.031952,51.244205 135.467255,51.022293 135.997131,50.971924 
	C137.008209,50.627975 137.489426,50.334393 137.970642,50.040810 
	C138.462906,49.728020 138.955185,49.415226 140.004700,49.276237 
	C142.043549,48.661789 143.525146,47.873543 145.006744,47.085297 
	C145.006744,47.085300 145.325745,46.867920 145.758820,46.843582 
	C146.511124,46.723595 146.775772,46.546429 146.985840,46.287743 
	C147.327866,46.144501 147.669907,46.001255 148.555054,45.799873 
	C149.395447,45.550350 149.692734,45.358967 149.990005,45.167580 
	C150.152145,45.104263 150.314270,45.040947 150.923004,45.127045 
	C151.916306,44.907104 152.463013,44.537754 153.009705,44.168396 
	C153.325012,44.055054 153.640305,43.941708 154.485703,43.764149 
	C155.338501,43.510132 155.661224,43.320328 155.983932,43.130520 
	C156.344391,43.028713 156.704865,42.926907 157.599640,42.805447 
	C158.416901,42.605953 158.699860,42.426113 158.982819,42.246277 
	C159.418259,42.150768 159.853699,42.055256 160.826416,41.890114 
	C161.623642,41.702351 161.834717,41.525776 161.996933,41.290756 
	C162.443848,41.198524 162.890762,41.106289 163.858765,41.176300 
	C164.934814,41.021484 165.489792,40.704422 166.044754,40.387360 
	C166.487137,40.270397 166.929504,40.153427 167.918915,40.208076 
	C169.307922,39.979683 170.149933,39.579670 170.991928,39.179657 
	C171.721970,39.053200 172.451996,38.926743 173.721237,38.969620 
	C174.847382,38.833263 175.434311,38.527573 176.021255,38.221878 
	C176.535858,38.137421 177.050461,38.052963 178.269394,38.048035 
	C179.977783,37.814983 180.981857,37.502399 181.985916,37.189812 
	C189.690170,36.509239 197.394409,35.828671 205.542206,35.221458 
z"/>
<path fill="#F55C63" opacity="1.000000" stroke="none" 
	d="
M38.859520,178.807007 
	C38.984009,179.992661 38.968170,180.991150 38.933460,181.988983 
	C38.769264,186.709534 40.746998,187.978180 45.236084,187.517105 
	C51.765114,186.846497 58.371960,186.820496 64.948051,186.751678 
	C72.041756,186.677444 79.138100,186.893661 86.233582,186.939941 
	C92.170097,186.978653 98.131363,187.281708 104.035019,186.841736 
	C107.837006,186.558411 111.554634,185.143250 115.648270,184.117462 
	C115.643951,186.064316 115.301430,188.129074 114.908836,190.586304 
	C111.504013,191.652939 108.156754,192.862152 104.793213,192.909302 
	C89.686714,193.121002 74.575172,192.941483 59.466396,193.043015 
	C55.340240,193.070724 51.186047,194.028458 47.102516,193.740311 
	C43.616390,193.494339 40.213146,192.073669 36.427887,191.078979 
	C36.571167,186.872726 37.059803,182.760101 37.766998,178.322250 
	C38.256542,178.170349 38.498184,178.377869 38.859520,178.807007 
z"/>
<path fill="#F23941" opacity="1.000000" stroke="none" 
	d="
M36.006607,218.429871 
	C52.731758,217.995178 69.450249,217.941086 86.168022,218.026825 
	C93.554001,218.064697 100.938522,218.386124 108.663048,218.793549 
	C99.952309,221.342041 90.902222,223.675797 81.081009,225.794235 
	C78.358665,225.385651 76.408127,225.033234 74.456123,225.024933 
	C61.647434,224.970459 48.838436,224.990280 36.029537,224.985870 
	C36.019573,222.946350 36.009613,220.906830 36.006607,218.429871 
z"/>
<path fill="#FBCCCF" opacity="1.000000" stroke="none" 
	d="
M239.134644,320.339783 
	C246.131607,320.295532 253.082214,320.911194 260.028412,320.865234 
	C264.929108,320.832825 269.822327,319.499573 274.721619,319.481384 
	C280.140045,319.461243 285.555634,320.377472 290.983582,320.698700 
	C295.249878,320.951141 299.544312,320.764008 303.804352,321.073334 
	C306.225403,321.249115 308.602448,322.030273 311.318573,322.693237 
	C310.956512,323.512848 310.275208,324.178009 308.963806,324.938660 
	C306.926361,326.064117 305.519073,327.094086 304.111755,328.124023 
	C303.320038,328.783234 302.528351,329.442474 301.420044,330.160278 
	C300.195099,324.432068 298.802155,323.870483 294.333221,327.309998 
	C293.360718,328.058472 292.003021,328.809357 290.860596,328.755524 
	C280.633331,328.273499 270.418030,327.541809 260.191620,327.036377 
	C256.036072,326.830994 251.846909,326.784546 247.700806,327.069580 
	C244.181183,327.311523 241.547638,326.323853 239.424225,323.138306 
	C239.103363,322.235413 239.094879,321.476196 239.134644,320.339783 
z"/>
<path fill="#FCE8E9" opacity="1.000000" stroke="none" 
	d="
M278.011353,341.999176 
	C277.398651,343.125641 276.785980,344.252075 276.097412,345.691101 
	C276.021576,346.003693 276.004456,346.004791 275.804626,346.063843 
	C275.349335,346.247467 275.151428,346.433319 275.011047,346.680450 
	C274.830139,346.751373 274.649231,346.822327 273.999634,346.985870 
	C273.296722,347.194641 273.125458,347.371796 273.017212,347.609894 
	C262.597900,351.334808 252.178589,355.059723 241.488678,358.442871 
	C243.305801,356.929810 245.393509,355.758484 247.481232,354.587158 
	C243.851120,352.994263 240.182266,352.731628 236.649734,351.894135 
	C234.652634,351.420593 232.879593,350.002106 231.005646,349.009247 
	C232.156815,346.809113 233.307983,344.608978 235.164276,342.206970 
	C244.361588,342.330536 252.852386,342.850769 261.346497,342.911957 
	C266.898987,342.951996 272.456238,342.326538 278.011353,341.999176 
z"/>
<path fill="#FCE0E2" opacity="1.000000" stroke="none" 
	d="
M168.226120,68.699203 
	C164.345139,68.334602 160.677689,67.149643 156.993164,67.093910 
	C142.333862,66.872154 127.669243,67.002586 112.718864,67.002586 
	C113.054367,65.985146 113.444305,64.802635 113.888046,63.291264 
	C113.941841,62.962402 113.973816,62.973316 114.332909,62.972515 
	C115.801071,62.076626 116.910149,61.181538 118.019218,60.286449 
	C118.549683,59.904861 119.080154,59.523277 120.060776,59.034523 
	C120.671906,58.830441 120.806519,58.705196 120.914757,58.551617 
	C121.085114,58.414875 121.255478,58.278137 122.019394,58.022285 
	C123.057182,57.584942 123.501411,57.266720 123.945641,56.948502 
	C123.945641,56.948502 123.979912,56.961765 124.246078,56.994003 
	C124.693230,57.059139 124.874207,57.092037 125.014656,57.450329 
	C124.584808,58.973164 124.195480,60.170605 123.728951,61.605495 
	C125.111206,62.004459 126.270988,62.740734 127.270767,62.565277 
	C136.624252,60.923794 146.030960,60.545456 155.494873,60.981972 
	C156.814102,61.042820 158.237289,61.166832 159.451279,60.769505 
	C163.540131,59.431271 166.540619,60.897411 169.037186,64.032944 
	C168.835388,65.487892 168.633591,66.942848 168.226120,68.699203 
z"/>
<path fill="#FCE8E9" opacity="1.000000" stroke="none" 
	d="
M169.363144,63.860912 
	C166.540619,60.897411 163.540131,59.431271 159.451279,60.769505 
	C158.237289,61.166832 156.814102,61.042820 155.494873,60.981972 
	C146.030960,60.545456 136.624252,60.923794 127.270767,62.565277 
	C126.270988,62.740734 125.111206,62.004459 123.728951,61.605495 
	C124.195480,60.170605 124.584808,58.973164 125.283447,57.345970 
	C126.068291,56.357956 126.543808,55.799690 127.019318,55.241425 
	C127.019318,55.241421 127.442665,55.015926 127.887421,54.894119 
	C128.592880,54.615208 128.810883,54.412231 128.986206,54.163380 
	C128.986206,54.163380 129.341934,53.929062 129.791901,53.853409 
	C130.549789,53.653999 130.820679,53.474380 131.054535,53.238895 
	C131.054535,53.238895 131.278320,53.093124 131.745392,53.124130 
	C133.133514,53.099110 134.054535,53.043079 134.975571,52.987053 
	C146.757507,54.185101 158.539459,55.383148 170.671143,56.798691 
	C170.576950,59.240414 170.133026,61.464645 169.363144,63.860912 
z"/>
<path fill="#F1343C" opacity="1.000000" stroke="none" 
	d="
M36.049171,225.369614 
	C48.838436,224.990280 61.647434,224.970459 74.456123,225.024933 
	C76.408127,225.033234 78.358665,225.385651 80.659477,225.799042 
	C80.033379,226.822540 79.154533,228.146286 78.067001,228.348679 
	C67.377792,230.337830 56.707150,232.611328 45.921219,233.831848 
	C38.639267,234.655869 37.842064,233.358673 36.049171,225.369614 
z"/>
<path fill="#FDEDED" opacity="1.000000" stroke="none" 
	d="
M230.721069,349.181458 
	C232.879593,350.002106 234.652634,351.420593 236.649734,351.894135 
	C240.182266,352.731628 243.851120,352.994263 247.481232,354.587158 
	C245.393509,355.758484 243.305801,356.929810 241.106232,358.435699 
	C240.546387,358.852448 240.098373,358.934631 239.054535,358.791931 
	C237.305389,358.980804 236.152084,359.394623 234.998764,359.808441 
	C234.588959,359.913391 234.179138,360.018372 233.253235,360.169495 
	C232.480072,360.328369 232.247009,360.478363 232.037949,360.665649 
	C230.960236,360.803070 229.882507,360.940521 228.146759,360.842590 
	C226.325150,360.993347 225.161560,361.379517 223.997986,361.765686 
	C222.926697,361.871735 221.855408,361.977783 220.154236,361.869507 
	C218.608673,361.813110 217.692978,361.971039 216.777283,362.128967 
	C218.447174,360.336975 220.012939,358.431671 221.811111,356.779236 
	C224.603104,354.213562 227.553345,351.820129 230.721069,349.181458 
z"/>
<path fill="#FDEDED" opacity="1.000000" stroke="none" 
	d="
M232.950806,44.627281 
	C230.277145,43.720543 227.505035,42.415730 224.657227,41.305023 
	C221.269791,39.983856 217.820068,38.821701 214.391891,37.606033 
	C212.704498,37.007675 211.004852,36.443962 209.146301,35.556091 
	C217.988083,35.482033 225.873917,38.661854 232.950806,44.627281 
z"/>
<path fill="#FDEDED" opacity="1.000000" stroke="none" 
	d="
M246.680939,69.596527 
	C245.449280,67.683319 244.165756,65.422928 243.065430,63.076630 
	C240.991791,58.654934 239.023712,54.183727 237.033569,49.338482 
	C242.880447,54.457630 245.282425,61.602375 246.680939,69.596527 
z"/>
<path fill="#FCE0E2" opacity="1.000000" stroke="none" 
	d="
M171.705383,351.819214 
	C172.647736,351.780396 173.875595,351.791901 174.774841,352.341309 
	C179.483124,355.217560 184.108078,358.230225 188.892212,361.497803 
	C183.294724,358.572632 177.567017,355.345123 171.705383,351.819214 
z"/>
<path fill="#FCE0E2" opacity="1.000000" stroke="none" 
	d="
M181.656769,289.084351 
	C177.876007,292.671265 173.745361,296.250366 169.274261,299.874725 
	C173.058136,296.305511 177.182510,292.691010 181.656769,289.084351 
z"/>
<path fill="#FDEDED" opacity="1.000000" stroke="none" 
	d="
M200.377197,114.163437 
	C199.936554,113.932373 199.967346,113.743874 200.003525,113.268875 
	C205.084702,112.815796 210.160522,112.649216 215.587158,112.683929 
	C210.908218,113.325478 205.878433,113.765739 200.377197,114.163437 
z"/>
<path fill="#FDEDED" opacity="1.000000" stroke="none" 
	d="
M218.331543,112.672806 
	C222.425339,110.142281 226.879623,107.615753 231.708206,105.095779 
	C227.619003,107.627167 223.155518,110.151985 218.331543,112.672806 
z"/>
<path fill="#FCE0E2" opacity="1.000000" stroke="none" 
	d="
M160.906403,318.391907 
	C161.238815,322.278839 161.399612,326.532349 161.397308,331.280243 
	C161.067734,327.435913 160.901260,323.097168 160.906403,318.391907 
z"/>
<path fill="#FDEDED" opacity="1.000000" stroke="none" 
	d="
M235.218842,102.665115 
	C235.548050,99.673431 235.404449,96.033249 240.243500,95.735664 
	C238.912903,98.104271 237.220535,100.331367 235.218842,102.665115 
z"/>
<path fill="#F78E93" opacity="1.000000" stroke="none" 
	d="
M220.628876,282.329010 
	C218.463638,283.452179 215.904984,284.591187 213.006348,285.953552 
	C212.284332,286.152313 211.902328,286.127686 211.000366,285.822632 
	C209.891861,285.381531 209.303314,285.220856 208.714783,285.060181 
	C208.714783,285.060181 208.439056,284.953705 208.474930,284.810394 
	C212.419022,283.893005 216.327255,283.118927 220.628876,282.329010 
z"/>
<path fill="#FCE0E2" opacity="1.000000" stroke="none" 
	d="
M192.621246,285.181091 
	C189.844589,286.449066 186.690308,287.671356 183.135437,288.870239 
	C185.904449,287.609650 189.074051,286.372528 192.621246,285.181091 
z"/>
<path fill="#FCE0E2" opacity="1.000000" stroke="none" 
	d="
M195.349915,363.129791 
	C197.483109,362.837952 199.942307,362.730804 202.711761,362.846497 
	C200.573334,363.151031 198.124634,363.232758 195.349915,363.129791 
z"/>
<path fill="#F77E84" opacity="1.000000" stroke="none" 
	d="
M129.436050,153.093674 
	C129.690048,151.333069 130.277100,149.515778 130.933380,147.348328 
	C131.170135,147.001511 131.337677,147.004837 132.025543,147.141846 
	C133.082947,147.545990 133.619995,147.816452 134.157059,148.086914 
	C132.694412,149.736954 131.231766,151.386978 129.436050,153.093674 
z"/>
<path fill="#FCE0E2" opacity="1.000000" stroke="none" 
	d="
M165.679382,304.238281 
	C164.962677,306.657990 163.946548,309.234253 162.617416,311.927460 
	C163.329590,309.494537 164.354767,306.944702 165.679382,304.238281 
z"/>
<path fill="#FCE0E2" opacity="1.000000" stroke="none" 
	d="
M167.238602,346.289978 
	C168.673309,347.546204 170.140549,349.126862 171.544678,351.066345 
	C170.078064,349.821564 168.674606,348.218018 167.238602,346.289978 
z"/>
<path fill="#F7848B" opacity="1.000000" stroke="none" 
	d="
M248.534149,271.867737 
	C248.364365,275.044312 246.185486,275.593536 243.168182,275.013275 
	C244.674103,273.852722 246.436066,272.887848 248.534149,271.867737 
z"/>
<path fill="#F7848B" opacity="1.000000" stroke="none" 
	d="
M134.420074,147.905014 
	C133.619995,147.816452 133.082947,147.545990 132.276886,147.143051 
	C133.585129,146.074707 135.162354,145.138855 137.117432,144.194077 
	C136.557877,145.364487 135.620483,146.543793 134.420074,147.905014 
z"/>
<path fill="#FCE0E2" opacity="1.000000" stroke="none" 
	d="
M161.291519,333.218872 
	C162.213577,334.997955 163.121796,337.090515 164.006546,339.583496 
	C163.081284,337.833374 162.179489,335.682831 161.291519,333.218872 
z"/>
<path fill="#FCD7D8" opacity="1.000000" stroke="none" 
	d="
M144.662308,47.060188 
	C143.525146,47.873543 142.043549,48.661789 140.302216,49.278236 
	C141.467606,48.415981 142.892731,47.725536 144.662308,47.060188 
z"/>
<path fill="#FAB6B9" opacity="1.000000" stroke="none" 
	d="
M304.452515,328.100525 
	C305.519073,327.094086 306.926361,326.064117 308.687439,325.031555 
	C307.625275,326.044952 306.209290,327.061005 304.452515,328.100525 
z"/>
<path fill="#FDEDED" opacity="1.000000" stroke="none" 
	d="
M241.048645,95.227371 
	C241.323639,94.029503 241.841873,92.632790 242.698059,91.136780 
	C242.454620,92.367836 241.873260,93.698181 241.048645,95.227371 
z"/>
<path fill="#FCE8E9" opacity="1.000000" stroke="none" 
	d="
M235.343353,359.873077 
	C236.152084,359.394623 237.305389,358.980804 238.714203,358.745483 
	C237.875778,359.261902 236.781860,359.599823 235.343353,359.873077 
z"/>
<path fill="#FCE8E9" opacity="1.000000" stroke="none" 
	d="
M224.341034,361.832031 
	C225.161560,361.379517 226.325150,360.993347 227.739716,360.793518 
	C226.888489,361.286011 225.786285,361.592194 224.341034,361.832031 
z"/>
<path fill="#F6757B" opacity="1.000000" stroke="none" 
	d="
M125.551117,160.073776 
	C125.969139,158.872528 126.683853,157.543259 127.721573,156.108353 
	C127.312317,157.317062 126.580063,158.631409 125.551117,160.073776 
z"/>
<path fill="#FCE0E2" opacity="1.000000" stroke="none" 
	d="
M204.731598,284.940002 
	C203.857712,285.180878 202.660278,285.307983 201.245087,285.251343 
	C202.154236,284.987183 203.281143,284.906708 204.731598,284.940002 
z"/>
<path fill="#FDEDED" opacity="1.000000" stroke="none" 
	d="
M245.228668,85.729622 
	C245.087357,84.738419 245.186157,83.484894 245.579590,82.129990 
	C245.739059,83.174843 245.603912,84.321075 245.228668,85.729622 
z"/>
<path fill="#FCD7D8" opacity="1.000000" stroke="none" 
	d="
M117.713066,60.339066 
	C116.910149,61.181538 115.801071,62.076626 114.332779,62.958092 
	C115.118011,62.093540 116.262466,61.242607 117.713066,60.339066 
z"/>
<path fill="#FCD7D8" opacity="1.000000" stroke="none" 
	d="
M134.992691,52.696800 
	C134.054535,53.043079 133.133514,53.099110 131.867462,53.178299 
	C132.490204,52.539383 133.457977,51.877308 134.728851,51.229721 
	C135.024582,51.631653 135.017197,52.019104 134.992691,52.696800 
z"/>
<path fill="#FCD7D8" opacity="1.000000" stroke="none" 
	d="
M170.676483,39.130714 
	C170.149933,39.579670 169.307922,39.979683 168.263611,40.235008 
	C168.827881,39.754139 169.594467,39.417957 170.676483,39.130714 
z"/>
<path fill="#FCE8E9" opacity="1.000000" stroke="none" 
	d="
M216.817474,362.272217 
	C217.692978,361.971039 218.608673,361.813110 219.751862,361.815796 
	C219.184250,362.251984 218.389130,362.527527 217.277954,362.748596 
	C216.961899,362.694092 216.857651,362.415436 216.817474,362.272217 
z"/>
<path fill="#FCE0E2" opacity="1.000000" stroke="none" 
	d="
M167.697296,301.141937 
	C167.540756,301.933105 167.099365,302.843475 166.353180,303.852112 
	C166.503082,303.053986 166.957748,302.157562 167.697296,301.141937 
z"/>
<path fill="#FCE0E2" opacity="1.000000" stroke="none" 
	d="
M164.307037,341.260834 
	C164.874176,341.756500 165.440338,342.558350 165.986755,343.678253 
	C165.413345,343.186523 164.859695,342.376770 164.307037,341.260834 
z"/>
<path fill="#FDEDED" opacity="1.000000" stroke="none" 
	d="
M232.392334,105.029373 
	C232.775040,104.384781 233.453766,103.678886 234.452606,102.940750 
	C234.077942,103.595024 233.383148,104.281540 232.392334,105.029373 
z"/>
<path fill="#FCD7D8" opacity="1.000000" stroke="none" 
	d="
M126.712311,55.234886 
	C126.543808,55.799690 126.068291,56.357956 125.323975,57.020576 
	C124.874207,57.092037 124.693230,57.059139 124.241196,56.976242 
	C124.781860,56.360275 125.593582,55.794312 126.712311,55.234886 
z"/>
<path fill="#FCD7D8" opacity="1.000000" stroke="none" 
	d="
M165.769440,40.347813 
	C165.489792,40.704422 164.934814,41.021484 164.201874,41.199059 
	C164.513962,40.809139 165.004044,40.558701 165.769440,40.347813 
z"/>
<path fill="#FCE0E2" opacity="1.000000" stroke="none" 
	d="
M198.808716,284.939270 
	C198.446716,285.170441 197.910934,285.284363 197.206207,285.247314 
	C197.569809,285.004913 198.102386,284.913483 198.808716,284.939270 
z"/>
<path fill="#F34B53" opacity="1.000000" stroke="none" 
	d="
M35.780624,195.200409 
	C35.859234,195.600281 35.772701,196.223221 35.475422,196.930206 
	C35.381607,196.484009 35.498543,195.953735 35.780624,195.200409 
z"/>
<path fill="#FCD7D8" opacity="1.000000" stroke="none" 
	d="
M152.723938,44.119484 
	C152.463013,44.537754 151.916306,44.907104 151.184052,45.130333 
	C151.478378,44.679665 151.958267,44.375118 152.723938,44.119484 
z"/>
<path fill="#FCD7D8" opacity="1.000000" stroke="none" 
	d="
M175.736023,38.154137 
	C175.434311,38.527573 174.847382,38.833263 174.092361,38.962738 
	C174.433121,38.553146 174.941971,38.319771 175.736023,38.154137 
z"/>
<path fill="#FCD7D8" opacity="1.000000" stroke="none" 
	d="
M181.666824,37.134609 
	C180.981857,37.502399 179.977783,37.814983 178.660370,38.082767 
	C179.347244,37.718445 180.347488,37.398926 181.666824,37.134609 
z"/>
<path fill="#FCE0E2" opacity="1.000000" stroke="none" 
	d="
M161.902527,313.720398 
	C161.932220,314.224609 161.741577,314.901276 161.366043,315.778229 
	C161.348175,315.283264 161.515198,314.588074 161.902527,313.720398 
z"/>
<path fill="#FDEDED" opacity="1.000000" stroke="none" 
	d="
M246.135681,81.449951 
	C246.075684,80.933105 246.214294,80.210045 246.528793,79.264481 
	C246.581207,79.775909 246.457748,80.509827 246.135681,81.449951 
z"/>
<path fill="#FCD7D8" opacity="1.000000" stroke="none" 
	d="
M123.662186,56.981323 
	C123.501411,57.266720 123.057182,57.584942 122.340500,57.956970 
	C122.504929,57.678570 122.941826,57.346359 123.662186,56.981323 
z"/>
<path fill="#FCD7D8" opacity="1.000000" stroke="none" 
	d="
M137.669434,50.025185 
	C137.489426,50.334393 137.008209,50.627975 136.239441,50.940807 
	C136.423996,50.643227 136.896103,50.326393 137.669434,50.025185 
z"/>
<path fill="#FCE8E9" opacity="1.000000" stroke="none" 
	d="
M232.270447,360.700806 
	C232.247009,360.478363 232.480072,360.328369 232.934036,360.152527 
	C233.044525,360.424255 232.835190,360.639801 232.270447,360.700806 
z"/>
<path fill="#FBD4D6" opacity="1.000000" stroke="none" 
	d="
M273.229675,347.635559 
	C273.125458,347.371796 273.296722,347.194641 273.710938,347.026367 
	C273.878204,347.292725 273.728638,347.521729 273.229675,347.635559 
z"/>
<path fill="#FCD7D8" opacity="1.000000" stroke="none" 
	d="
M120.752533,58.538368 
	C120.806519,58.705196 120.671906,58.830441 120.385513,58.987152 
	C120.251625,58.797909 120.361694,58.623959 120.752533,58.538368 
z"/>
<path fill="#F66B72" opacity="1.000000" stroke="none" 
	d="
M120.236511,169.945587 
	C120.176743,169.791290 120.361313,169.544998 120.754410,169.173111 
	C120.876335,169.355133 120.715630,169.623825 120.236511,169.945587 
z"/>
<path fill="#FDEDED" opacity="1.000000" stroke="none" 
	d="
M246.894287,73.743896 
	C246.578979,73.777313 246.514755,73.528000 246.720734,73.131531 
	C246.867401,73.187248 246.918869,73.346184 246.894287,73.743896 
z"/>
<path fill="#FCD7D8" opacity="1.000000" stroke="none" 
	d="
M130.783264,53.187325 
	C130.820679,53.474380 130.549789,53.653999 130.004150,53.835869 
	C130.014969,53.641239 130.263489,53.388496 130.783264,53.187325 
z"/>
<path fill="#FCE0E2" opacity="1.000000" stroke="none" 
	d="
M190.770355,362.435089 
	C190.945251,362.283142 191.271210,362.364716 191.790344,362.614410 
	C191.629486,362.744537 191.275436,362.706573 190.770355,362.435089 
z"/>
<path fill="#FDEDED" opacity="1.000000" stroke="none" 
	d="
M244.164124,88.811829 
	C243.992050,88.633430 244.083313,88.420692 244.396423,88.140106 
	C244.675339,88.327850 244.611740,88.562927 244.164124,88.811829 
z"/>
<path fill="#FDEDED" opacity="1.000000" stroke="none" 
	d="
M243.263794,90.960587 
	C243.063080,90.750931 243.174118,90.501236 243.530548,90.157883 
	C243.878983,90.371727 243.812180,90.657173 243.263794,90.960587 
z"/>
<path fill="#FCE0E2" opacity="1.000000" stroke="none" 
	d="
M207.238113,363.018311 
	C207.209290,362.913940 207.473511,362.825439 207.607239,362.862427 
	C207.740982,362.899414 207.583984,363.135620 207.583984,363.135620 
	C207.583984,363.135620 207.266937,363.122681 207.238113,363.018311 
z"/>
<path fill="#FBD4D6" opacity="1.000000" stroke="none" 
	d="
M275.245270,346.715637 
	C275.151428,346.433319 275.349335,346.247467 275.803528,346.069946 
	C275.986053,346.374146 275.811768,346.618774 275.245270,346.715637 
z"/>
<path fill="#FCD7D8" opacity="1.000000" stroke="none" 
	d="
M128.732147,54.151588 
	C128.810883,54.412231 128.592880,54.615208 128.123932,54.854439 
	C128.103165,54.670982 128.290619,54.405392 128.732147,54.151588 
z"/>
<path fill="#FCD7D8" opacity="1.000000" stroke="none" 
	d="
M146.728912,46.261559 
	C146.775772,46.546429 146.511124,46.723595 145.951797,46.847206 
	C145.965118,46.661900 146.218536,46.448635 146.728912,46.261559 
z"/>
<path fill="#FAB6B9" opacity="1.000000" stroke="none" 
	d="
M313.190308,321.752197 
	C313.118164,321.547028 313.317322,321.341431 313.758179,321.087158 
	C313.876068,321.308136 313.696594,321.545868 313.190308,321.752197 
z"/>
<path fill="#F66F76" opacity="1.000000" stroke="none" 
	d="
M261.770142,262.134277 
	C261.754120,262.258118 261.504852,262.487366 261.024292,262.829163 
	C261.040985,262.707733 261.288910,262.473724 261.770142,262.134277 
z"/>
<path fill="#FCD7D8" opacity="1.000000" stroke="none" 
	d="
M149.704254,45.146393 
	C149.692734,45.358967 149.395447,45.550350 148.834778,45.787289 
	C148.853745,45.596962 149.136124,45.361080 149.704254,45.146393 
z"/>
<path fill="#FCD7D8" opacity="1.000000" stroke="none" 
	d="
M155.680878,43.099060 
	C155.661224,43.320328 155.338501,43.510132 154.736908,43.748932 
	C154.764633,43.554485 155.071228,43.311043 155.680878,43.099060 
z"/>
<path fill="#FCD7D8" opacity="1.000000" stroke="none" 
	d="
M161.763489,41.249748 
	C161.834717,41.525776 161.623642,41.702351 161.162354,41.866852 
	C161.011337,41.565876 161.201019,41.331051 161.763489,41.249748 
z"/>
<path fill="#FCD7D8" opacity="1.000000" stroke="none" 
	d="
M158.713760,42.216572 
	C158.699860,42.426113 158.416901,42.605953 157.881409,42.814785 
	C157.900803,42.624809 158.172760,42.405842 158.713760,42.216572 
z"/>
<path fill="#FCE0E2" opacity="1.000000" stroke="none" 
	d="
M278.261963,341.879303 
	C272.456238,342.326538 266.898987,342.951996 261.346497,342.911957 
	C252.852386,342.850769 244.361588,342.330536 235.440475,342.002563 
	C235.830231,339.831635 236.648865,337.663300 237.697906,335.247467 
	C240.882782,335.333435 243.829453,335.828217 246.793121,335.971680 
	C258.182129,336.523041 269.577789,336.937775 280.967163,337.482330 
	C282.026794,337.532990 283.059814,338.140686 285.274536,338.880249 
	C283.315887,339.482513 282.488007,339.737061 281.146179,340.142914 
	C280.393982,340.505585 280.182495,340.740997 279.997772,341.000427 
	C279.502716,341.253418 279.007629,341.506439 278.261963,341.879303 
z"/>
<path fill="#F89A9E" opacity="1.000000" stroke="none" 
	d="
M208.924286,285.304199 
	C209.303314,285.220856 209.891861,285.381531 210.725143,285.724030 
	C210.357864,285.786652 209.745819,285.667419 208.924286,285.304199 
z"/>
<path fill="#F8A4A7" opacity="1.000000" stroke="none" 
	d="
M58.992424,126.007599 
	C58.998245,125.254349 59.004066,124.501099 59.015591,123.371086 
	C86.822144,118.820213 114.795624,121.898262 142.677658,121.086113 
	C147.301178,120.951439 151.958710,121.984680 156.822952,122.778397 
	C155.887634,124.293221 154.729889,125.507843 153.016022,126.628082 
	C150.909454,126.030365 149.355377,125.077789 147.809067,125.090218 
	C118.202972,125.328232 88.597794,125.679642 58.992424,126.007599 
z"/>
<path fill="#F8A4A7" opacity="1.000000" stroke="none" 
	d="
M337.998718,289.998169 
	C337.997437,289.996338 338.115845,289.940369 338.059753,289.971436 
	C338.003662,290.002533 338.000000,290.000000 337.998718,289.998169 
z"/>
<path fill="#F89A9E" opacity="1.000000" stroke="none" 
	d="
M58.800083,126.238434 
	C88.597794,125.679642 118.202972,125.328232 147.809067,125.090218 
	C149.355377,125.077789 150.909454,126.030365 152.741928,126.804848 
	C151.870758,128.274948 150.717560,129.473877 149.287292,130.840500 
	C144.322021,130.379272 139.629562,129.200043 134.946503,129.236252 
	C125.257301,129.311142 115.576134,130.312042 105.886055,130.417694 
	C93.795845,130.549530 81.698563,130.226517 69.607475,129.958450 
	C66.314537,129.885437 63.016026,129.403152 59.763626,128.851761 
	C59.258221,128.766083 58.987167,127.298050 58.800083,126.238434 
z"/>
<path fill="#FCE8E9" opacity="1.000000" stroke="none" 
	d="
M280.186798,340.855774 
	C280.182495,340.740997 280.393982,340.505585 280.818848,340.146851 
	C280.825562,340.263214 280.615692,340.500427 280.186798,340.855774 
z"/>
</svg>