<svg xmlns="http://www.w3.org/2000/svg" xmlns:xlink="http://www.w3.org/1999/xlink" version="1.1" width="256" height="256" viewBox="0 0 256 256" xml:space="preserve">

<defs>
</defs>
<g style="stroke: none; stroke-width: 0; stroke-dasharray: none; stroke-linecap: butt; stroke-linejoin: miter; stroke-miterlimit: 10; fill: none; fill-rule: nonzero; opacity: 1;" transform="translate(1.4065934065934016 1.4065934065934016) scale(2.81 2.81)" >
	<path d="M 54.195 50.796 c 3.477 -2.753 3.477 -8.114 0 -10.953 c -4.949 -4.109 -10.379 -7.602 -16.169 -10.403 c -3.999 -1.912 -8.461 0.753 -9.099 5.303 c -0.985 6.954 -1.159 13.967 -0.522 20.632 c 0.435 4.607 4.839 7.36 8.896 5.593 c 6.06 -2.608 11.742 -6.019 16.894 -10.142 V 50.796 z M 80.187 30.541 c 7.633 8.354 7.658 21.143 0.058 29.527 C 67.147 74.523 50.037 84.743 31.1 89.422 c -10.068 2.52 -20.314 -3.425 -23.124 -13.416 C 2.268 56.504 3.109 34.453 8.614 14.865 C 11.512 4.578 21.19 -1.884 31.158 0.492 C 49.616 4.897 66.945 16.226 80.187 30.541 z" style="stroke: none; stroke-width: 1; stroke-dasharray: none; stroke-linecap: butt; stroke-linejoin: miter; stroke-miterlimit: 10; fill: rgb(134,197,68); fill-rule: nonzero; opacity: 1;" transform=" matrix(1 0 0 1 0 0) " stroke-linecap="round" />
</g>
</svg>