<svg xmlns="http://www.w3.org/2000/svg" xmlns:xlink="http://www.w3.org/1999/xlink" version="1.1" width="256" height="256" viewBox="0 0 256 256" xml:space="preserve">

<defs>
</defs>
<g style="stroke: none; stroke-width: 0; stroke-dasharray: none; stroke-linecap: butt; stroke-linejoin: miter; stroke-miterlimit: 10; fill: none; fill-rule: nonzero; opacity: 1;" transform="translate(1.4065934065934016 1.4065934065934016) scale(2.81 2.81)" >
	<path d="M 89.956 24.088 c -0.401 8.76 -6.519 20.754 -18.355 35.979 c -12.236 15.899 -22.59 23.852 -31.056 23.852 c -5.248 0 -9.687 -4.84 -13.314 -14.526 c -2.421 -8.878 -4.841 -17.756 -7.263 -26.635 c -2.694 -9.68 -5.581 -14.527 -8.672 -14.527 c -0.674 0 -3.03 1.417 -7.064 4.238 L 0 27.016 c 4.442 -3.902 8.822 -7.803 13.133 -11.711 c 5.924 -5.117 10.374 -7.809 13.338 -8.081 c 7.002 -0.673 11.313 4.114 12.931 14.36 c 1.749 11.057 2.96 17.933 3.639 20.623 c 2.021 9.174 4.243 13.756 6.669 13.756 c 1.882 0 4.713 -2.975 8.487 -8.928 c 3.767 -5.949 5.786 -10.475 6.058 -13.587 c 0.539 -5.135 -1.481 -7.708 -6.058 -7.708 c -2.155 0 -4.377 0.496 -6.662 1.475 c 4.425 -14.485 12.875 -21.52 25.347 -21.119 C 86.129 6.369 90.49 12.365 89.956 24.088 z" style="stroke: none; stroke-width: 1; stroke-dasharray: none; stroke-linecap: butt; stroke-linejoin: miter; stroke-miterlimit: 10; fill: rgb(101,162,217); fill-rule: nonzero; opacity: 1;" transform=" matrix(1 0 0 1 0 0) " stroke-linecap="round" />
</g>
</svg>